<svg width="163" height="178" fill="none" xmlns="http://www.w3.org/2000/svg"><g opacity=".2" fill="#F1F5F7"><rect opacity=".45" width="15.206" height="50.411" rx="7.603" transform="matrix(.88854 -.4588 .44921 .89343 31.943 6.976)"/><rect opacity=".45" width="15.206" height="50.411" rx="7.603" transform="matrix(-.88854 -.4588 -.44921 .89343 52.25 6.976)"/><ellipse rx="7.611" ry="7.713" transform="matrix(-1 0 0 1 42.105 10.32)"/><ellipse rx="7.611" ry="7.713" transform="matrix(-1 0 0 1 26.312 41.635)"/><ellipse rx="7.611" ry="7.713" transform="matrix(-1 0 0 1 57.898 41.635)"/><rect opacity=".45" width="15.206" height="50.411" rx="7.603" transform="matrix(.88854 -.4588 .44921 .89343 63.543 6.976)"/><rect opacity=".45" width="15.206" height="50.411" rx="7.603" transform="matrix(-.88854 -.4588 -.44921 .89343 83.849 6.976)"/><ellipse rx="7.611" ry="7.713" transform="matrix(-1 0 0 1 73.705 10.32)"/><ellipse rx="7.611" ry="7.713" transform="matrix(-1 0 0 1 57.911 41.635)"/><ellipse rx="7.611" ry="7.713" transform="matrix(-1 0 0 1 89.498 41.635)"/><rect opacity=".45" width="15.206" height="50.411" rx="7.603" transform="matrix(.88854 -.4588 .44921 .89343 15.844 38.476)"/><rect opacity=".45" width="15.206" height="50.411" rx="7.603" transform="matrix(-.88854 -.4588 -.44921 .89343 36.15 38.476)"/><ellipse rx="7.611" ry="7.713" transform="matrix(-1 0 0 1 26.006 41.82)"/><ellipse rx="7.611" ry="7.713" transform="matrix(-1 0 0 1 10.212 73.135)"/><ellipse rx="7.611" ry="7.713" transform="matrix(-1 0 0 1 41.799 73.135)"/><rect opacity=".45" width="15.206" height="50.411" rx="7.603" transform="matrix(.88854 -.4588 .44921 .89343 31.844 69.476)"/><rect opacity=".45" width="15.206" height="50.411" rx="7.603" transform="matrix(-.88854 -.4588 -.44921 .89343 52.15 69.476)"/><ellipse rx="7.611" ry="7.713" transform="matrix(-1 0 0 1 42.005 72.82)"/><ellipse rx="7.611" ry="7.713" transform="matrix(-1 0 0 1 26.212 104.135)"/><ellipse rx="7.611" ry="7.713" transform="matrix(-1 0 0 1 57.799 104.135)"/><rect opacity=".45" width="15.206" height="50.411" rx="7.603" transform="matrix(.88854 -.4588 .44921 .89343 15.844 101.476)"/><rect opacity=".45" width="15.206" height="50.411" rx="7.603" transform="matrix(-.88854 -.4588 -.44921 .89343 36.15 101.476)"/><ellipse rx="7.611" ry="7.713" transform="matrix(-1 0 0 1 26.006 104.821)"/><ellipse rx="7.611" ry="7.713" transform="matrix(-1 0 0 1 10.212 136.135)"/><ellipse rx="7.611" ry="7.713" transform="matrix(-1 0 0 1 41.799 136.135)"/><rect opacity=".45" width="15.206" height="50.411" rx="7.603" transform="matrix(.88854 -.4588 .44921 .89343 31.844 132.476)"/><rect opacity=".45" width="15.206" height="50.411" rx="7.603" transform="matrix(-.88854 -.4588 -.44921 .89343 52.15 132.476)"/><ellipse rx="7.611" ry="7.713" transform="matrix(-1 0 0 1 42.005 135.821)"/><ellipse rx="7.611" ry="7.713" transform="matrix(-1 0 0 1 26.212 167.135)"/><ellipse rx="7.611" ry="7.713" transform="matrix(-1 0 0 1 57.799 167.135)"/><rect opacity=".45" width="15.206" height="50.411" rx="7.603" transform="matrix(.88854 -.4588 .44921 .89343 63.443 132.476)"/><rect opacity=".45" width="15.206" height="50.411" rx="7.603" transform="matrix(-.88854 -.4588 -.44921 .89343 83.75 132.476)"/><ellipse rx="7.611" ry="7.713" transform="matrix(-1 0 0 1 73.605 135.821)"/><ellipse rx="7.611" ry="7.713" transform="matrix(-1 0 0 1 57.812 167.135)"/><ellipse rx="7.611" ry="7.713" transform="matrix(-1 0 0 1 89.398 167.135)"/><rect opacity=".45" width="15.206" height="50.411" rx="7.603" transform="matrix(.88854 -.4588 .44921 .89343 95.043 132.476)"/><rect opacity=".45" width="15.206" height="50.411" rx="7.603" transform="matrix(-.88854 -.4588 -.44921 .89343 115.349 132.476)"/><ellipse rx="7.611" ry="7.713" transform="matrix(-1 0 0 1 105.205 135.821)"/><ellipse rx="7.611" ry="7.713" transform="matrix(-1 0 0 1 89.412 167.135)"/><ellipse rx="7.611" ry="7.713" transform="matrix(-1 0 0 1 120.998 167.135)"/><rect opacity=".45" width="15.206" height="50.411" rx="7.603" transform="matrix(.88854 -.4588 .44921 .89343 126.543 132.476)"/><rect opacity=".45" width="15.206" height="50.411" rx="7.603" transform="matrix(-.88854 -.4588 -.44921 .89343 146.849 132.476)"/><ellipse rx="7.611" ry="7.713" transform="matrix(-1 0 0 1 136.705 135.821)"/><ellipse rx="7.611" ry="7.713" transform="matrix(-1 0 0 1 120.911 167.135)"/><ellipse rx="7.611" ry="7.713" transform="matrix(-1 0 0 1 152.498 167.135)"/><rect opacity=".45" width="15.206" height="50.411" rx="7.603" transform="matrix(.88854 -.4588 .44921 .89343 79.244 101.076)"/><rect opacity=".45" width="15.206" height="50.411" rx="7.603" transform="matrix(-.88854 -.4588 -.44921 .89343 99.55 101.076)"/><ellipse rx="7.611" ry="7.713" transform="matrix(-1 0 0 1 89.406 104.42)"/><ellipse rx="7.611" ry="7.713" transform="matrix(-1 0 0 1 73.613 135.734)"/><ellipse rx="7.611" ry="7.713" transform="matrix(-1 0 0 1 105.199 135.734)"/><rect opacity=".45" width="15.206" height="50.411" rx="7.603" transform="matrix(.88854 -.4588 .44921 .89343 95.043 69.776)"/><rect opacity=".45" width="15.206" height="50.411" rx="7.603" transform="matrix(-.88854 -.4588 -.44921 .89343 115.349 69.776)"/><ellipse rx="7.611" ry="7.713" transform="matrix(-1 0 0 1 105.205 73.12)"/><ellipse rx="7.611" ry="7.713" transform="matrix(-1 0 0 1 89.412 104.435)"/><ellipse rx="7.611" ry="7.713" transform="matrix(-1 0 0 1 120.998 104.435)"/><rect opacity=".45" width="15.206" height="50.411" rx="7.603" transform="matrix(.88854 -.4588 .44921 .89343 110.844 101.076)"/><rect opacity=".45" width="15.206" height="50.411" rx="7.603" transform="matrix(-.88854 -.4588 -.44921 .89343 131.149 101.076)"/><ellipse rx="7.611" ry="7.713" transform="matrix(-1 0 0 1 121.006 104.42)"/><ellipse rx="7.611" ry="7.713" transform="matrix(-1 0 0 1 105.212 135.734)"/><ellipse rx="7.611" ry="7.713" transform="matrix(-1 0 0 1 136.799 135.734)"/><rect opacity=".45" width="15.206" height="50.411" rx="7.603" transform="matrix(.88854 -.4588 .44921 .89343 126.644 69.776)"/><rect opacity=".45" width="15.206" height="50.411" rx="7.603" transform="matrix(-.88854 -.4588 -.44921 .89343 146.95 69.776)"/><ellipse rx="7.611" ry="7.713" transform="matrix(-1 0 0 1 136.806 73.12)"/><ellipse rx="7.611" ry="7.713" transform="matrix(-1 0 0 1 121.013 104.435)"/><ellipse rx="7.611" ry="7.713" transform="matrix(-1 0 0 1 152.6 104.435)"/><rect opacity=".45" width="15.206" height="50.411" rx="7.603" transform="matrix(.88854 -.4588 .44921 .89343 79.443 38.276)"/><rect opacity=".45" width="15.206" height="50.411" rx="7.603" transform="matrix(-.88854 -.4588 -.44921 .89343 99.75 38.276)"/><ellipse rx="7.611" ry="7.713" transform="matrix(-1 0 0 1 89.605 41.62)"/><ellipse rx="7.611" ry="7.713" transform="matrix(-1 0 0 1 73.812 72.935)"/><ellipse rx="7.611" ry="7.713" transform="matrix(-1 0 0 1 105.398 72.935)"/><rect opacity=".45" width="15.206" height="50.411" rx="7.603" transform="matrix(.88854 -.4588 .44921 .89343 63.443 69.476)"/><rect opacity=".45" width="15.206" height="50.411" rx="7.603" transform="matrix(-.88854 -.4588 -.44921 .89343 83.75 69.476)"/><ellipse rx="7.611" ry="7.713" transform="matrix(-1 0 0 1 73.605 72.82)"/><ellipse rx="7.611" ry="7.713" transform="matrix(-1 0 0 1 57.812 104.135)"/><ellipse rx="7.611" ry="7.713" transform="matrix(-1 0 0 1 89.398 104.135)"/></g></svg>