<svg fill="none" height="206" width="240" xmlns="http://www.w3.org/2000/svg"><clipPath id="a"><path d="M0 0h30.069v29.723H0z" transform="matrix(1 0 0 -1 93.691 187.287)"/></clipPath><clipPath id="b"><path d="M0 0h30.069v29.723H0z" transform="matrix(1 0 0 -1 96.582 149.254)"/></clipPath><clipPath id="c"><path d="M0 0h30.069v29.723H0z" transform="matrix(1 0 0 -1 105.246 167.548)"/></clipPath><clipPath id="d"><path d="M0 0h30.069v29.723H0z" transform="matrix(1 0 0 -1 124.504 167.548)"/></clipPath><clipPath id="e"><path d="M0 0h30.069v29.723H0z" transform="matrix(1 0 0 -1 133.652 185.842)"/></clipPath><clipPath id="f"><path d="M0 0h30.069v29.723H0z" transform="matrix(1 0 0 -1 152.906 185.842)"/></clipPath><clipPath id="g"><path d="M0 0h30.069v29.723H0z" transform="matrix(1 0 0 -1 94.371 187.299)"/></clipPath><clipPath id="h"><path d="M0 0h30.069v29.723H0z" transform="matrix(1 0 0 -1 103.52 205.593)"/></clipPath><clipPath id="i"><path d="M0 0h30.069v29.723H0z" transform="matrix(1 0 0 -1 122.777 205.593)"/></clipPath><clipPath id="j"><path d="M0 0h30.069v29.723H0z" transform="matrix(1 0 0 -1 103.055 82.199)"/></clipPath><clipPath id="k"><path d="M0 0h30.069v29.723H0z" transform="matrix(1 0 0 -1 112.684 100.011)"/></clipPath><clipPath id="l"><path d="M0 0h30.069v29.723H0z" transform="matrix(1 0 0 -1 120.387 82.199)"/></clipPath><clipPath id="m"><path d="M0 0h30.069v29.723H0z" transform="matrix(1 0 0 -1 129.051 100.493)"/></clipPath><clipPath id="n"><path d="M0 0h30.069v29.723H0z" transform="matrix(1 0 0 -1 167.086 65.83)"/></clipPath><clipPath id="o"><path d="M0 0h30.069v29.723H0z" transform="matrix(1 0 0 -1 176.715 83.643)"/></clipPath><clipPath id="p"><path d="M0 0h30.069v29.723H0z" transform="matrix(1 0 0 -1 184.414 65.83)"/></clipPath><clipPath id="q"><path d="M0 0h30.069v29.723H0z" transform="matrix(1 0 0 -1 193.082 84.124)"/></clipPath><clipPath id="r"><path d="M0 0h30.069v29.723H0z" transform="matrix(1 0 0 -1 183.934 29.723)"/></clipPath><clipPath id="s"><path d="M0 0h30.069v29.723H0z" transform="matrix(1 0 0 -1 193.562 47.536)"/></clipPath><clipPath id="t"><path d="M0 0h30.069v29.723H0z" transform="matrix(1 0 0 -1 201.266 29.723)"/></clipPath><clipPath id="u"><path d="M0 0h30.069v29.723H0z" transform="matrix(1 0 0 -1 209.93 48.017)"/></clipPath><clipPath id="v"><path d="M0 0h30.069v29.723H0z" transform="matrix(1 0 0 -1 148.309 100.493)"/></clipPath><clipPath id="w"><path d="M0 0h30.069v29.723H0z" transform="matrix(1 0 0 -1 176.715 118.787)"/></clipPath><clipPath id="x"><path d="M0 0h30.069v29.723H0z" transform="matrix(1 0 0 -1 185.859 136.599)"/></clipPath><clipPath id="y"><path d="M0 0h30.069v29.723H0z" transform="matrix(1 0 0 -1 142.797 168.03)"/></clipPath><clipPath id="z"><path d="M0 0h30.069v29.723H0z" transform="matrix(1 0 0 -1 140.125 46.092)"/></clipPath><clipPath id="A"><path d="M0 0h30.069v29.723H0z" transform="matrix(1 0 0 -1 149.754 63.904)"/></clipPath><clipPath id="B"><path d="M0 0h30.069v29.723H0z" transform="matrix(1 0 0 -1 157.938 82.199)"/></clipPath><clipPath id="C"><path d="M0 0h30.069v29.723H0z" transform="matrix(1 0 0 -1 167.566 100.493)"/></clipPath><clipPath id="D"><path d="M0 0h30.069v29.723H0z" transform="matrix(1 0 0 -1 203.672 136.599)"/></clipPath><clipPath id="E"><path d="M0 0h30.069v29.723H0z" transform="matrix(1 0 0 -1 0 151.18)"/></clipPath><clipPath id="F"><path d="M0 0h30.069v29.723H0z" transform="matrix(1 0 0 -1 88.152 131.969)"/></clipPath><clipPath id="G"><path d="M0 0h30.069v29.723H0z" transform="matrix(1 0 0 -1 19.258 151.18)"/></clipPath><clipPath id="H"><path d="M0 0h30.069v29.723H0z" transform="matrix(1 0 0 -1 47.664 169.474)"/></clipPath><clipPath id="I"><path d="M0 0h30.069v29.723H0z" transform="matrix(1 0 0 -1 56.809 187.287)"/></clipPath><clipPath id="J"><path d="M0 0h30.069v29.723H0z" transform="matrix(1 0 0 -1 38.516 151.18)"/></clipPath><clipPath id="K"><path d="M0 0h30.069v29.723H0z" transform="matrix(1 0 0 -1 74.621 187.287)"/></clipPath><g fill="#f1f5f7" opacity=".3"><g clip-path="url(#a)" opacity=".2"><rect height="28.883" opacity=".45" rx="4.386" transform="rotate(152.96 35.262 105.427) skewX(-.08)" width="8.772"/><rect height="28.883" opacity=".45" rx="4.386" transform="matrix(.89069 .45461 .45337 -.89132 102.859 183.298)" width="8.772"/><ellipse rx="4.401" ry="4.408" transform="matrix(1 0 0 -1 108.721 181.387)"/><ellipse rx="4.401" ry="4.408" transform="matrix(1 0 0 -1 117.854 163.488)"/><ellipse rx="4.401" ry="4.408" transform="matrix(1 0 0 -1 99.592 163.488)"/></g><g clip-path="url(#b)" opacity=".2"><rect height="28.883" opacity=".45" rx="4.386" transform="rotate(152.96 41.28 86.758) skewX(-.08)" width="8.772"/><rect height="28.883" opacity=".45" rx="4.386" transform="matrix(.89069 .45461 .45337 -.89132 105.75 145.266)" width="8.772"/><ellipse rx="4.401" ry="4.408" transform="matrix(1 0 0 -1 111.612 143.355)"/><ellipse rx="4.401" ry="4.408" transform="matrix(1 0 0 -1 120.745 125.455)"/><ellipse rx="4.401" ry="4.408" transform="matrix(1 0 0 -1 102.483 125.455)"/></g><g clip-path="url(#c)" opacity=".2"><rect height="28.883" opacity=".45" rx="4.386" transform="rotate(152.96 43.412 96.947) skewX(-.08)" width="8.772"/><rect height="28.883" opacity=".45" rx="4.386" transform="matrix(.89069 .45461 .45337 -.89132 114.414 163.56)" width="8.772"/><ellipse rx="4.401" ry="4.408" transform="matrix(1 0 0 -1 120.276 161.649)"/><ellipse rx="4.401" ry="4.408" transform="matrix(1 0 0 -1 129.409 143.749)"/><ellipse rx="4.401" ry="4.408" transform="matrix(1 0 0 -1 111.147 143.749)"/></g><g clip-path="url(#d)" opacity=".2"><rect height="28.883" opacity=".45" rx="4.386" transform="rotate(152.96 53.041 99.262) skewX(-.08)" width="8.772"/><rect height="28.883" opacity=".45" rx="4.386" transform="matrix(.89069 .45461 .45337 -.89132 133.672 163.56)" width="8.772"/><ellipse rx="4.401" ry="4.408" transform="matrix(1 0 0 -1 139.534 161.649)"/><ellipse rx="4.401" ry="4.408" transform="matrix(1 0 0 -1 148.666 143.749)"/><ellipse rx="4.401" ry="4.408" transform="matrix(1 0 0 -1 130.405 143.749)"/></g><g clip-path="url(#e)" opacity=".2"><rect height="28.883" opacity=".45" rx="4.386" transform="rotate(152.96 55.416 109.51) skewX(-.08)" width="8.772"/><rect height="28.883" opacity=".45" rx="4.386" transform="matrix(.89069 .45461 .45337 -.89132 142.82 181.854)" width="8.772"/><ellipse rx="4.401" ry="4.408" transform="matrix(1 0 0 -1 148.682 179.943)"/><ellipse rx="4.401" ry="4.408" transform="matrix(1 0 0 -1 157.815 162.043)"/><ellipse rx="4.401" ry="4.408" transform="matrix(1 0 0 -1 139.553 162.043)"/></g><g clip-path="url(#f)" opacity=".2"><rect height="28.883" opacity=".45" rx="4.386" transform="rotate(152.96 65.043 111.824) skewX(-.08)" width="8.772"/><rect height="28.883" opacity=".45" rx="4.386" transform="matrix(.89069 .45461 .45337 -.89132 162.074 181.854)" width="8.772"/><ellipse rx="4.401" ry="4.408" transform="matrix(1 0 0 -1 167.936 179.943)"/><ellipse rx="4.401" ry="4.408" transform="matrix(1 0 0 -1 177.069 162.043)"/><ellipse rx="4.401" ry="4.408" transform="matrix(1 0 0 -1 158.807 162.043)"/></g><g clip-path="url(#g)" opacity=".2"><rect height="28.883" opacity=".45" rx="4.386" transform="rotate(152.96 35.6 105.515) skewX(-.08)" width="8.772"/><rect height="28.883" opacity=".45" rx="4.386" transform="matrix(.89069 .45461 .45337 -.89132 103.539 183.311)" width="8.772"/><ellipse rx="4.401" ry="4.408" transform="matrix(1 0 0 -1 109.401 181.4)"/><ellipse rx="4.401" ry="4.408" transform="matrix(1 0 0 -1 118.534 163.5)"/><ellipse rx="4.401" ry="4.408" transform="matrix(1 0 0 -1 100.272 163.5)"/></g><g clip-path="url(#h)" opacity=".2"><rect height="28.883" opacity=".45" rx="4.386" transform="rotate(152.96 37.975 115.762) skewX(-.08)" width="8.772"/><rect height="28.883" opacity=".45" rx="4.386" transform="matrix(.89069 .45461 .45337 -.89132 112.688 201.605)" width="8.772"/><ellipse rx="4.401" ry="4.408" transform="matrix(1 0 0 -1 118.549 199.694)"/><ellipse rx="4.401" ry="4.408" transform="matrix(1 0 0 -1 127.682 181.794)"/><ellipse rx="4.401" ry="4.408" transform="matrix(1 0 0 -1 109.42 181.794)"/></g><g clip-path="url(#i)" opacity=".2"><rect height="28.883" opacity=".45" rx="4.386" transform="rotate(152.96 47.604 118.077) skewX(-.08)" width="8.772"/><rect height="28.883" opacity=".45" rx="4.386" transform="matrix(.89069 .45461 .45337 -.89132 131.945 201.605)" width="8.772"/><ellipse rx="4.401" ry="4.408" transform="matrix(1 0 0 -1 137.807 199.694)"/><ellipse rx="4.401" ry="4.408" transform="matrix(1 0 0 -1 146.94 181.794)"/><ellipse rx="4.401" ry="4.408" transform="matrix(1 0 0 -1 128.678 181.794)"/></g><g clip-path="url(#j)" opacity=".2"><rect height="28.883" opacity=".45" rx="4.386" transform="rotate(152.96 52.578 54.009) skewX(-.08)" width="8.772"/><rect height="28.883" opacity=".45" rx="4.386" transform="matrix(.89069 .45461 .45337 -.89132 112.223 78.21)" width="8.772"/><ellipse rx="4.401" ry="4.408" transform="matrix(1 0 0 -1 118.084 76.299)"/><ellipse rx="4.401" ry="4.408" transform="matrix(1 0 0 -1 127.217 58.4)"/><ellipse rx="4.401" ry="4.408" transform="matrix(1 0 0 -1 108.956 58.4)"/></g><g clip-path="url(#k)" opacity=".2"><rect height="28.883" opacity=".45" rx="4.386" transform="rotate(152.96 55.25 64.073) skewX(-.08)" width="8.772"/><rect height="28.883" opacity=".45" rx="4.386" transform="matrix(.89069 .45461 .45337 -.89132 121.852 96.023)" width="8.772"/><ellipse rx="4.401" ry="4.408" transform="matrix(1 0 0 -1 127.713 94.112)"/><ellipse rx="4.401" ry="4.408" transform="matrix(1 0 0 -1 136.846 76.212)"/><ellipse rx="4.401" ry="4.408" transform="matrix(1 0 0 -1 118.584 76.212)"/></g><g clip-path="url(#l)" opacity=".2"><rect height="28.883" opacity=".45" rx="4.386" transform="rotate(152.96 61.244 56.093) skewX(-.08)" width="8.772"/><rect height="28.883" opacity=".45" rx="4.386" transform="matrix(.89069 .45461 .45337 -.89132 129.555 78.21)" width="8.772"/><ellipse rx="4.401" ry="4.408" transform="matrix(1 0 0 -1 135.416 76.299)"/><ellipse rx="4.401" ry="4.408" transform="matrix(1 0 0 -1 144.549 58.4)"/><ellipse rx="4.401" ry="4.408" transform="matrix(1 0 0 -1 126.288 58.4)"/></g><g clip-path="url(#m)" opacity=".2"><rect height="28.883" opacity=".45" rx="4.386" transform="rotate(152.96 63.376 66.281) skewX(-.08)" width="8.772"/><rect height="28.883" opacity=".45" rx="4.386" transform="matrix(.89069 .45461 .45337 -.89132 138.219 96.504)" width="8.772"/><ellipse rx="4.401" ry="4.408" transform="matrix(1 0 0 -1 144.081 94.593)"/><ellipse rx="4.401" ry="4.408" transform="matrix(1 0 0 -1 153.213 76.694)"/><ellipse rx="4.401" ry="4.408" transform="matrix(1 0 0 -1 134.952 76.694)"/></g><g clip-path="url(#n)" opacity=".2"><rect height="28.883" opacity=".45" rx="4.386" transform="rotate(152.96 86.56 53.523) skewX(-.08)" width="8.772"/><rect height="28.883" opacity=".45" rx="4.386" transform="matrix(.89069 .45461 .45337 -.89132 176.254 61.842)" width="8.772"/><ellipse rx="4.401" ry="4.408" transform="matrix(1 0 0 -1 182.116 59.93)"/><ellipse rx="4.401" ry="4.408" transform="matrix(1 0 0 -1 191.249 42.032)"/><ellipse rx="4.401" ry="4.408" transform="matrix(1 0 0 -1 172.987 42.032)"/></g><g clip-path="url(#o)" opacity=".2"><rect height="28.883" opacity=".45" rx="4.386" transform="rotate(152.96 89.234 63.587) skewX(-.08)" width="8.772"/><rect height="28.883" opacity=".45" rx="4.386" transform="matrix(.89069 .45461 .45337 -.89132 185.883 79.655)" width="8.772"/><ellipse rx="4.401" ry="4.408" transform="matrix(1 0 0 -1 191.745 77.743)"/><ellipse rx="4.401" ry="4.408" transform="matrix(1 0 0 -1 200.877 59.844)"/><ellipse rx="4.401" ry="4.408" transform="matrix(1 0 0 -1 182.616 59.844)"/></g><g clip-path="url(#p)" opacity=".2"><rect height="28.883" opacity=".45" rx="4.386" transform="rotate(152.96 95.225 55.606) skewX(-.08)" width="8.772"/><rect height="28.883" opacity=".45" rx="4.386" transform="matrix(.89069 .45461 .45337 -.89132 193.582 61.842)" width="8.772"/><ellipse rx="4.401" ry="4.408" transform="matrix(1 0 0 -1 199.444 59.93)"/><ellipse rx="4.401" ry="4.408" transform="matrix(1 0 0 -1 208.577 42.032)"/><ellipse rx="4.401" ry="4.408" transform="matrix(1 0 0 -1 190.315 42.032)"/></g><g clip-path="url(#q)" opacity=".2"><rect height="28.883" opacity=".45" rx="4.386" transform="rotate(152.96 97.36 65.795) skewX(-.08)" width="8.772"/><rect height="28.883" opacity=".45" rx="4.386" transform="matrix(.89069 .45461 .45337 -.89132 202.25 80.136)" width="8.772"/><ellipse rx="4.401" ry="4.408" transform="matrix(1 0 0 -1 208.112 78.225)"/><ellipse rx="4.401" ry="4.408" transform="matrix(1 0 0 -1 217.245 60.325)"/><ellipse rx="4.401" ry="4.408" transform="matrix(1 0 0 -1 198.983 60.325)"/></g><g clip-path="url(#r)" opacity=".2"><rect height="28.883" opacity=".45" rx="4.386" transform="rotate(152.96 99.326 37.495) skewX(-.08)" width="8.772"/><rect height="28.883" opacity=".45" rx="4.386" transform="matrix(.89069 .45461 .45337 -.89132 193.102 25.735)" width="8.772"/><ellipse rx="4.401" ry="4.408" transform="matrix(1 0 0 -1 198.963 23.823)"/><ellipse rx="4.401" ry="4.408" transform="matrix(1 0 0 -1 208.096 5.924)"/><ellipse rx="4.401" ry="4.408" transform="matrix(1 0 0 -1 189.834 5.924)"/></g><g clip-path="url(#s)" opacity=".2"><rect height="28.883" opacity=".45" rx="4.386" transform="rotate(152.96 101.999 47.559) skewX(-.08)" width="8.772"/><rect height="28.883" opacity=".45" rx="4.386" transform="matrix(.89069 .45461 .45337 -.89132 202.73 43.547)" width="8.772"/><ellipse rx="4.401" ry="4.408" transform="matrix(1 0 0 -1 208.592 41.636)"/><ellipse rx="4.401" ry="4.408" transform="matrix(1 0 0 -1 217.725 23.736)"/><ellipse rx="4.401" ry="4.408" transform="matrix(1 0 0 -1 199.463 23.736)"/></g><g clip-path="url(#t)" opacity=".2"><rect height="28.883" opacity=".45" rx="4.386" transform="rotate(152.96 107.992 39.578) skewX(-.08)" width="8.772"/><rect height="28.883" opacity=".45" rx="4.386" transform="matrix(.89069 .45461 .45337 -.89132 210.434 25.735)" width="8.772"/><ellipse rx="4.401" ry="4.408" transform="matrix(1 0 0 -1 216.295 23.823)"/><ellipse rx="4.401" ry="4.408" transform="matrix(1 0 0 -1 225.428 5.924)"/><ellipse rx="4.401" ry="4.408" transform="matrix(1 0 0 -1 207.166 5.924)"/></g><g clip-path="url(#u)" opacity=".2"><rect height="28.883" opacity=".45" rx="4.386" transform="rotate(152.96 110.125 49.767) skewX(-.08)" width="8.772"/><rect height="28.883" opacity=".45" rx="4.386" transform="matrix(.89069 .45461 .45337 -.89132 219.098 44.029)" width="8.772"/><ellipse rx="4.401" ry="4.408" transform="matrix(1 0 0 -1 224.959 42.117)"/><ellipse rx="4.401" ry="4.408" transform="matrix(1 0 0 -1 234.092 24.218)"/><ellipse rx="4.401" ry="4.408" transform="matrix(1 0 0 -1 215.831 24.218)"/></g><g clip-path="url(#v)" opacity=".2"><rect height="28.883" opacity=".45" rx="4.386" transform="rotate(152.96 73.005 68.596) skewX(-.08)" width="8.772"/><rect height="28.883" opacity=".45" rx="4.386" transform="matrix(.89069 .45461 .45337 -.89132 157.477 96.504)" width="8.772"/><ellipse rx="4.401" ry="4.408" transform="matrix(1 0 0 -1 163.338 94.593)"/><ellipse rx="4.401" ry="4.408" transform="matrix(1 0 0 -1 172.471 76.694)"/><ellipse rx="4.401" ry="4.408" transform="matrix(1 0 0 -1 154.209 76.694)"/></g><g clip-path="url(#w)" opacity=".2"><rect height="28.883" opacity=".45" rx="4.386" transform="rotate(152.96 85.009 81.158) skewX(-.08)" width="8.772"/><rect height="28.883" opacity=".45" rx="4.386" transform="matrix(.89069 .45461 .45337 -.89132 185.883 114.798)" width="8.772"/><ellipse rx="4.401" ry="4.408" transform="matrix(1 0 0 -1 191.745 112.887)"/><ellipse rx="4.401" ry="4.408" transform="matrix(1 0 0 -1 200.877 94.987)"/><ellipse rx="4.401" ry="4.408" transform="matrix(1 0 0 -1 182.616 94.987)"/></g><g clip-path="url(#x)" opacity=".2"><rect height="28.883" opacity=".45" rx="4.386" transform="rotate(152.96 87.44 91.164) skewX(-.08)" width="8.772"/><rect height="28.883" opacity=".45" rx="4.386" transform="matrix(.89069 .45461 .45337 -.89132 195.027 132.611)" width="8.772"/><ellipse rx="4.401" ry="4.408" transform="matrix(1 0 0 -1 200.889 130.699)"/><ellipse rx="4.401" ry="4.408" transform="matrix(1 0 0 -1 210.022 112.8)"/><ellipse rx="4.401" ry="4.408" transform="matrix(1 0 0 -1 191.76 112.8)"/></g><g clip-path="url(#y)" opacity=".2"><rect height="28.883" opacity=".45" rx="4.386" transform="rotate(152.96 62.13 101.702) skewX(-.08)" width="8.772"/><rect height="28.883" opacity=".45" rx="4.386" transform="matrix(.89069 .45461 .45337 -.89132 151.965 164.042)" width="8.772"/><ellipse rx="4.401" ry="4.408" transform="matrix(1 0 0 -1 157.827 162.13)"/><ellipse rx="4.401" ry="4.408" transform="matrix(1 0 0 -1 166.959 144.231)"/><ellipse rx="4.401" ry="4.408" transform="matrix(1 0 0 -1 148.698 144.231)"/></g><g clip-path="url(#z)" opacity=".2"><rect height="28.883" opacity=".45" rx="4.386" transform="rotate(152.96 75.453 40.412) skewX(-.08)" width="8.772"/><rect height="28.883" opacity=".45" rx="4.386" transform="matrix(.89069 .45461 .45337 -.89132 149.293 42.104)" width="8.772"/><ellipse rx="4.401" ry="4.408" transform="matrix(1 0 0 -1 155.155 40.193)"/><ellipse rx="4.401" ry="4.408" transform="matrix(1 0 0 -1 164.288 22.293)"/><ellipse rx="4.401" ry="4.408" transform="matrix(1 0 0 -1 146.026 22.293)"/></g><g clip-path="url(#A)" opacity=".2"><rect height="28.883" opacity=".45" rx="4.386" transform="rotate(152.96 78.127 50.476) skewX(-.08)" width="8.772"/><rect height="28.883" opacity=".45" rx="4.386" transform="matrix(.89069 .45461 .45337 -.89132 158.922 59.916)" width="8.772"/><ellipse rx="4.401" ry="4.408" transform="matrix(1 0 0 -1 164.784 58.004)"/><ellipse rx="4.401" ry="4.408" transform="matrix(1 0 0 -1 173.916 40.105)"/><ellipse rx="4.401" ry="4.408" transform="matrix(1 0 0 -1 155.655 40.105)"/></g><g clip-path="url(#B)" opacity=".2"><rect height="28.883" opacity=".45" rx="4.386" transform="rotate(152.96 80.02 60.607) skewX(-.08)" width="8.772"/><rect height="28.883" opacity=".45" rx="4.386" transform="matrix(.89069 .45461 .45337 -.89132 167.105 78.21)" width="8.772"/><ellipse rx="4.401" ry="4.408" transform="matrix(1 0 0 -1 172.967 76.299)"/><ellipse rx="4.401" ry="4.408" transform="matrix(1 0 0 -1 182.1 58.4)"/><ellipse rx="4.401" ry="4.408" transform="matrix(1 0 0 -1 163.838 58.4)"/></g><g clip-path="url(#C)" opacity=".2"><rect height="28.883" opacity=".45" rx="4.386" transform="rotate(152.96 82.634 70.912) skewX(-.08)" width="8.772"/><rect height="28.883" opacity=".45" rx="4.386" transform="matrix(.89069 .45461 .45337 -.89132 176.734 96.504)" width="8.772"/><ellipse rx="4.401" ry="4.408" transform="matrix(1 0 0 -1 182.596 94.593)"/><ellipse rx="4.401" ry="4.408" transform="matrix(1 0 0 -1 191.729 76.694)"/><ellipse rx="4.401" ry="4.408" transform="matrix(1 0 0 -1 173.467 76.694)"/></g><g clip-path="url(#D)" opacity=".2"><rect height="28.883" opacity=".45" rx="4.386" transform="rotate(152.96 96.346 93.306) skewX(-.08)" width="8.772"/><rect height="28.883" opacity=".45" rx="4.386" transform="matrix(.89069 .45461 .45337 -.89132 212.84 132.611)" width="8.772"/><ellipse rx="4.401" ry="4.408" transform="matrix(1 0 0 -1 218.702 130.699)"/><ellipse rx="4.401" ry="4.408" transform="matrix(1 0 0 -1 227.834 112.8)"/><ellipse rx="4.401" ry="4.408" transform="matrix(1 0 0 -1 209.573 112.8)"/></g><g clip-path="url(#E)" opacity=".2"><rect height="28.883" opacity=".45" rx="4.386" transform="rotate(152.96 -7.243 76.11) skewX(-.08)" width="8.772"/><rect height="28.883" opacity=".45" rx="4.386" transform="matrix(.89069 .45461 .45337 -.89132 9.168 147.192)" width="8.772"/><ellipse rx="4.401" ry="4.408" transform="matrix(1 0 0 -1 15.03 145.28)"/><ellipse rx="4.401" ry="4.408" transform="matrix(1 0 0 -1 24.163 127.381)"/><ellipse rx="4.401" ry="4.408" transform="matrix(1 0 0 -1 5.9 127.381)"/></g><g clip-path="url(#F)" opacity=".2"><rect height="28.883" opacity=".45" rx="4.386" transform="rotate(152.96 39.143 77.103) skewX(-.08)" width="8.772"/><rect height="28.883" opacity=".45" rx="4.386" transform="matrix(.89069 .45461 .45337 -.89132 97.32 127.981)" width="8.772"/><ellipse rx="4.401" ry="4.408" transform="matrix(1 0 0 -1 103.182 126.07)"/><ellipse rx="4.401" ry="4.408" transform="matrix(1 0 0 -1 112.315 108.17)"/><ellipse rx="4.401" ry="4.408" transform="matrix(1 0 0 -1 94.053 108.17)"/></g><g clip-path="url(#G)" opacity=".2"><rect height="28.883" opacity=".45" rx="4.386" transform="rotate(152.96 2.386 78.425) skewX(-.08)" width="8.772"/><rect height="28.883" opacity=".45" rx="4.386" transform="matrix(.89069 .45461 .45337 -.89132 28.426 147.192)" width="8.772"/><ellipse rx="4.401" ry="4.408" transform="matrix(1 0 0 -1 34.291 145.28)"/><ellipse rx="4.401" ry="4.408" transform="matrix(1 0 0 -1 43.42 127.381)"/><ellipse rx="4.401" ry="4.408" transform="matrix(1 0 0 -1 25.159 127.382)"/></g><g clip-path="url(#H)" opacity=".2"><rect height="28.883" opacity=".45" rx="4.386" transform="rotate(152.96 14.39 90.987) skewX(-.08)" width="8.772"/><rect height="28.883" opacity=".45" rx="4.386" transform="matrix(.89069 .45461 .45337 -.89132 56.832 165.486)" width="8.772"/><ellipse rx="4.401" ry="4.408" transform="matrix(1 0 0 -1 62.694 163.574)"/><ellipse rx="4.401" ry="4.408" transform="matrix(1 0 0 -1 71.827 145.675)"/><ellipse rx="4.401" ry="4.408" transform="matrix(1 0 0 -1 53.565 145.675)"/></g><g clip-path="url(#I)" opacity=".2"><rect height="28.883" opacity=".45" rx="4.386" transform="rotate(152.96 16.82 100.993) skewX(-.08)" width="8.772"/><rect height="28.883" opacity=".45" rx="4.386" transform="matrix(.89069 .45461 .45337 -.89132 65.977 183.298)" width="8.772"/><ellipse rx="4.401" ry="4.408" transform="matrix(1 0 0 -1 71.838 181.387)"/><ellipse rx="4.401" ry="4.408" transform="matrix(1 0 0 -1 80.971 163.488)"/><ellipse rx="4.401" ry="4.408" transform="matrix(1 0 0 -1 62.71 163.488)"/></g><g clip-path="url(#J)" opacity=".2"><rect height="28.883" opacity=".45" rx="4.386" transform="rotate(152.96 12.015 80.74) skewX(-.08)" width="8.772"/><rect height="28.883" opacity=".45" rx="4.386" transform="matrix(.89069 .45461 .45337 -.89132 47.684 147.192)" width="8.772"/><ellipse rx="4.401" ry="4.408" transform="matrix(1 0 0 -1 53.55 145.28)"/><ellipse rx="4.401" ry="4.408" transform="matrix(1 0 0 -1 62.678 127.381)"/><ellipse rx="4.401" ry="4.408" transform="matrix(1 0 0 -1 44.416 127.382)"/></g><g clip-path="url(#K)" opacity=".2"><rect height="28.883" opacity=".45" rx="4.386" transform="rotate(152.96 25.727 103.134) skewX(-.08)" width="8.772"/><rect height="28.883" opacity=".45" rx="4.386" transform="matrix(.89069 .45461 .45337 -.89132 83.79 183.298)" width="8.772"/><ellipse rx="4.401" ry="4.408" transform="matrix(1 0 0 -1 89.65 181.387)"/><ellipse rx="4.401" ry="4.408" transform="matrix(1 0 0 -1 98.784 163.488)"/><ellipse rx="4.401" ry="4.408" transform="matrix(1 0 0 -1 80.522 163.488)"/></g></g></svg>