<svg width="400" height="400" fill="none" xmlns="http://www.w3.org/2000/svg"><g opacity=".2" fill="#fff"><ellipse cx="167.026" cy="29.891" rx="2.703" ry="2.717"/><ellipse cx="167.026" cy="55.978" rx="2.703" ry="2.717"/><ellipse cx="180" cy="42.935" rx="2.703" ry="2.717"/><ellipse cx="154.054" cy="42.935" rx="2.703" ry="2.717"/><ellipse cx="192.973" cy="2.717" rx="2.703" ry="2.717"/><ellipse cx="192.973" cy="28.804" rx="2.703" ry="2.717"/><ellipse cx="205.948" cy="15.761" rx="2.703" ry="2.717"/><ellipse cx="180.002" cy="15.761" rx="2.703" ry="2.717"/><ellipse cx="195.132" cy="54.892" rx="2.703" ry="2.717"/><ellipse cx="195.132" cy="80.978" rx="2.703" ry="2.717"/><ellipse cx="208.106" cy="67.935" rx="2.703" ry="2.717"/><ellipse cx="182.16" cy="67.935" rx="2.703" ry="2.717"/><ellipse cx="222.162" cy="78.804" rx="2.703" ry="2.717"/><ellipse cx="222.162" cy="104.891" rx="2.703" ry="2.717"/><ellipse cx="235.136" cy="91.848" rx="2.703" ry="2.717"/><ellipse cx="209.19" cy="91.848" rx="2.703" ry="2.717"/><ellipse cx="248.105" cy="51.631" rx="2.703" ry="2.717"/><ellipse cx="248.105" cy="77.717" rx="2.703" ry="2.717"/><ellipse cx="261.079" cy="64.674" rx="2.703" ry="2.717"/><ellipse cx="235.133" cy="64.674" rx="2.703" ry="2.717"/><ellipse cx="218.916" cy="26.631" rx="2.703" ry="2.717"/><ellipse cx="218.916" cy="52.717" rx="2.703" ry="2.717"/><ellipse cx="231.891" cy="39.674" rx="2.703" ry="2.717"/><ellipse cx="205.945" cy="39.674" rx="2.703" ry="2.717"/><ellipse cx="117.296" cy="85.326" rx="2.703" ry="2.717"/><ellipse cx="117.296" cy="111.413" rx="2.703" ry="2.717"/><ellipse cx="130.27" cy="98.37" rx="2.703" ry="2.717"/><ellipse cx="104.324" cy="98.37" rx="2.703" ry="2.717"/><ellipse cx="143.242" cy="58.152" rx="2.703" ry="2.717"/><ellipse cx="143.242" cy="84.239" rx="2.703" ry="2.717"/><ellipse cx="156.216" cy="71.196" rx="2.703" ry="2.717"/><ellipse cx="130.27" cy="71.196" rx="2.703" ry="2.717"/><ellipse cx="145.404" cy="110.326" rx="2.703" ry="2.717"/><ellipse cx="145.404" cy="136.413" rx="2.703" ry="2.717"/><ellipse cx="158.378" cy="123.37" rx="2.703" ry="2.717"/><ellipse cx="132.432" cy="123.37" rx="2.703" ry="2.717"/><ellipse cx="172.431" cy="134.239" rx="2.703" ry="2.717"/><ellipse cx="172.431" cy="160.326" rx="2.703" ry="2.717"/><ellipse cx="185.405" cy="147.283" rx="2.703" ry="2.717"/><ellipse cx="159.459" cy="147.283" rx="2.703" ry="2.717"/><ellipse cx="198.377" cy="107.065" rx="2.703" ry="2.717"/><ellipse cx="198.377" cy="133.152" rx="2.703" ry="2.717"/><ellipse cx="211.351" cy="120.109" rx="2.703" ry="2.717"/><ellipse cx="185.405" cy="120.109" rx="2.703" ry="2.717"/><ellipse cx="169.189" cy="82.065" rx="2.703" ry="2.717"/><ellipse cx="169.189" cy="108.152" rx="2.703" ry="2.717"/><ellipse cx="182.163" cy="95.109" rx="2.703" ry="2.717"/><ellipse cx="156.217" cy="95.109" rx="2.703" ry="2.717"/><ellipse cx="249.188" cy="104.891" rx="2.703" ry="2.717"/><ellipse cx="249.188" cy="130.978" rx="2.703" ry="2.717"/><ellipse cx="262.162" cy="117.935" rx="2.703" ry="2.717"/><ellipse cx="236.216" cy="117.935" rx="2.703" ry="2.717"/><ellipse cx="275.135" cy="77.717" rx="2.703" ry="2.717"/><ellipse cx="275.135" cy="103.804" rx="2.703" ry="2.717"/><ellipse cx="288.109" cy="90.761" rx="2.703" ry="2.717"/><ellipse cx="262.163" cy="90.761" rx="2.703" ry="2.717"/><ellipse cx="277.297" cy="129.892" rx="2.703" ry="2.717"/><ellipse cx="277.297" cy="155.978" rx="2.703" ry="2.717"/><ellipse cx="290.272" cy="142.935" rx="2.703" ry="2.717"/><ellipse cx="264.326" cy="142.935" rx="2.703" ry="2.717"/><ellipse cx="304.323" cy="153.804" rx="2.703" ry="2.717"/><ellipse cx="304.323" cy="179.891" rx="2.703" ry="2.717"/><ellipse cx="317.297" cy="166.848" rx="2.703" ry="2.717"/><ellipse cx="291.351" cy="166.848" rx="2.703" ry="2.717"/><ellipse cx="330.271" cy="126.631" rx="2.703" ry="2.717"/><ellipse cx="330.271" cy="152.717" rx="2.703" ry="2.717"/><ellipse cx="343.245" cy="139.674" rx="2.703" ry="2.717"/><ellipse cx="317.299" cy="139.674" rx="2.703" ry="2.717"/><ellipse cx="301.078" cy="101.631" rx="2.703" ry="2.717"/><ellipse cx="301.078" cy="127.717" rx="2.703" ry="2.717"/><ellipse cx="314.052" cy="114.674" rx="2.703" ry="2.717"/><ellipse cx="288.106" cy="114.674" rx="2.703" ry="2.717"/><ellipse cx="199.457" cy="160.326" rx="2.703" ry="2.717"/><ellipse cx="199.457" cy="186.413" rx="2.703" ry="2.717"/><ellipse cx="212.431" cy="173.37" rx="2.703" ry="2.717"/><ellipse cx="186.485" cy="173.37" rx="2.703" ry="2.717"/><ellipse cx="225.404" cy="133.152" rx="2.703" ry="2.717"/><ellipse cx="225.404" cy="159.239" rx="2.703" ry="2.717"/><ellipse cx="238.378" cy="146.196" rx="2.703" ry="2.717"/><ellipse cx="212.432" cy="146.196" rx="2.703" ry="2.717"/><ellipse cx="227.566" cy="185.326" rx="2.703" ry="2.717"/><ellipse cx="227.566" cy="211.413" rx="2.703" ry="2.717"/><ellipse cx="240.541" cy="198.37" rx="2.703" ry="2.717"/><ellipse cx="214.595" cy="198.37" rx="2.703" ry="2.717"/><ellipse cx="254.593" cy="209.239" rx="2.703" ry="2.717"/><ellipse cx="254.593" cy="235.326" rx="2.703" ry="2.717"/><ellipse cx="267.568" cy="222.283" rx="2.703" ry="2.717"/><ellipse cx="241.622" cy="222.283" rx="2.703" ry="2.717"/><ellipse cx="280.539" cy="182.065" rx="2.703" ry="2.717"/><ellipse cx="280.539" cy="208.152" rx="2.703" ry="2.717"/><ellipse cx="293.514" cy="195.109" rx="2.703" ry="2.717"/><ellipse cx="267.568" cy="195.109" rx="2.703" ry="2.717"/><ellipse cx="251.35" cy="157.065" rx="2.703" ry="2.717"/><ellipse cx="251.35" cy="183.152" rx="2.703" ry="2.717"/><ellipse cx="264.324" cy="170.109" rx="2.703" ry="2.717"/><ellipse cx="238.378" cy="170.109" rx="2.703" ry="2.717"/><ellipse cx="65.405" cy="139.674" rx="2.703" ry="2.717"/><ellipse cx="65.405" cy="165.761" rx="2.703" ry="2.717"/><ellipse cx="78.38" cy="152.718" rx="2.703" ry="2.717"/><ellipse cx="52.434" cy="152.718" rx="2.703" ry="2.717"/><ellipse cx="91.348" cy="112.5" rx="2.703" ry="2.717"/><ellipse cx="91.348" cy="138.586" rx="2.703" ry="2.717"/><ellipse cx="104.323" cy="125.543" rx="2.703" ry="2.717"/><ellipse cx="78.377" cy="125.543" rx="2.703" ry="2.717"/><ellipse cx="93.511" cy="164.674" rx="2.703" ry="2.717"/><ellipse cx="93.511" cy="190.761" rx="2.703" ry="2.717"/><ellipse cx="106.485" cy="177.718" rx="2.703" ry="2.717"/><ellipse cx="80.539" cy="177.718" rx="2.703" ry="2.717"/><ellipse cx="120.541" cy="188.587" rx="2.703" ry="2.717"/><ellipse cx="120.541" cy="214.674" rx="2.703" ry="2.717"/><ellipse cx="133.515" cy="201.631" rx="2.703" ry="2.717"/><ellipse cx="107.569" cy="201.631" rx="2.703" ry="2.717"/><ellipse cx="146.484" cy="161.413" rx="2.703" ry="2.717"/><ellipse cx="146.484" cy="187.5" rx="2.703" ry="2.717"/><ellipse cx="159.458" cy="174.456" rx="2.703" ry="2.717"/><ellipse cx="133.512" cy="174.456" rx="2.703" ry="2.717"/><ellipse cx="117.296" cy="136.413" rx="2.703" ry="2.717"/><ellipse cx="117.296" cy="162.5" rx="2.703" ry="2.717"/><ellipse cx="130.27" cy="149.457" rx="2.703" ry="2.717"/><ellipse cx="104.324" cy="149.457" rx="2.703" ry="2.717"/><ellipse cx="15.674" cy="195.109" rx="2.703" ry="2.717"/><ellipse cx="15.674" cy="221.195" rx="2.703" ry="2.717"/><ellipse cx="28.649" cy="208.152" rx="2.703" ry="2.717"/><ellipse cx="2.703" cy="208.152" rx="2.703" ry="2.717"/><ellipse cx="41.62" cy="167.935" rx="2.703" ry="2.717"/><ellipse cx="41.62" cy="194.021" rx="2.703" ry="2.717"/><ellipse cx="54.594" cy="180.978" rx="2.703" ry="2.717"/><ellipse cx="28.649" cy="180.978" rx="2.703" ry="2.717"/><ellipse cx="43.784" cy="220.109" rx="2.703" ry="2.717"/><ellipse cx="43.784" cy="246.195" rx="2.703" ry="2.717"/><ellipse cx="56.758" cy="233.152" rx="2.703" ry="2.717"/><ellipse cx="30.812" cy="233.152" rx="2.703" ry="2.717"/><ellipse cx="70.809" cy="244.022" rx="2.703" ry="2.717"/><ellipse cx="70.809" cy="270.108" rx="2.703" ry="2.717"/><ellipse cx="83.784" cy="257.065" rx="2.703" ry="2.717"/><ellipse cx="57.838" cy="257.065" rx="2.703" ry="2.717"/><ellipse cx="96.757" cy="216.847" rx="2.703" ry="2.717"/><ellipse cx="96.757" cy="242.934" rx="2.703" ry="2.717"/><ellipse cx="109.731" cy="229.891" rx="2.703" ry="2.717"/><ellipse cx="83.785" cy="229.891" rx="2.703" ry="2.717"/><ellipse cx="67.568" cy="191.847" rx="2.703" ry="2.717"/><ellipse cx="67.568" cy="217.934" rx="2.703" ry="2.717"/><ellipse cx="80.542" cy="204.891" rx="2.703" ry="2.717"/><ellipse cx="54.596" cy="204.891" rx="2.703" ry="2.717"/><ellipse cx="147.567" cy="214.674" rx="2.703" ry="2.717"/><ellipse cx="147.567" cy="240.761" rx="2.703" ry="2.717"/><ellipse cx="160.542" cy="227.718" rx="2.703" ry="2.717"/><ellipse cx="134.596" cy="227.718" rx="2.703" ry="2.717"/><ellipse cx="173.514" cy="187.5" rx="2.703" ry="2.717"/><ellipse cx="173.514" cy="213.586" rx="2.703" ry="2.717"/><ellipse cx="186.488" cy="200.543" rx="2.703" ry="2.717"/><ellipse cx="160.542" cy="200.543" rx="2.703" ry="2.717"/><ellipse cx="175.673" cy="239.674" rx="2.703" ry="2.717"/><ellipse cx="175.673" cy="265.761" rx="2.703" ry="2.717"/><ellipse cx="188.647" cy="252.718" rx="2.703" ry="2.717"/><ellipse cx="162.701" cy="252.718" rx="2.703" ry="2.717"/><ellipse cx="202.703" cy="263.587" rx="2.703" ry="2.717"/><ellipse cx="202.703" cy="289.674" rx="2.703" ry="2.717"/><ellipse cx="215.677" cy="276.631" rx="2.703" ry="2.717"/><ellipse cx="189.731" cy="276.631" rx="2.703" ry="2.717"/><ellipse cx="228.646" cy="236.413" rx="2.703" ry="2.717"/><ellipse cx="228.646" cy="262.5" rx="2.703" ry="2.717"/><ellipse cx="241.62" cy="249.456" rx="2.703" ry="2.717"/><ellipse cx="215.674" cy="249.456" rx="2.703" ry="2.717"/><ellipse cx="199.457" cy="211.413" rx="2.703" ry="2.717"/><ellipse cx="199.457" cy="237.5" rx="2.703" ry="2.717"/><ellipse cx="212.431" cy="224.456" rx="2.703" ry="2.717"/><ellipse cx="186.485" cy="224.456" rx="2.703" ry="2.717"/><ellipse cx="97.836" cy="270.109" rx="2.703" ry="2.717"/><ellipse cx="97.836" cy="296.195" rx="2.703" ry="2.717"/><ellipse cx="110.811" cy="283.152" rx="2.703" ry="2.717"/><ellipse cx="84.865" cy="283.152" rx="2.703" ry="2.717"/><ellipse cx="123.782" cy="242.935" rx="2.703" ry="2.717"/><ellipse cx="123.782" cy="269.021" rx="2.703" ry="2.717"/><ellipse cx="136.757" cy="255.978" rx="2.703" ry="2.717"/><ellipse cx="110.811" cy="255.978" rx="2.703" ry="2.717"/><ellipse cx="125.944" cy="295.109" rx="2.703" ry="2.717"/><ellipse cx="125.944" cy="321.195" rx="2.703" ry="2.717"/><ellipse cx="138.919" cy="308.152" rx="2.703" ry="2.717"/><ellipse cx="112.973" cy="308.152" rx="2.703" ry="2.717"/><ellipse cx="152.971" cy="319.022" rx="2.703" ry="2.717"/><ellipse cx="152.971" cy="345.108" rx="2.703" ry="2.717"/><ellipse cx="165.946" cy="332.065" rx="2.703" ry="2.717"/><ellipse cx="140" cy="332.065" rx="2.703" ry="2.717"/><ellipse cx="178.917" cy="291.848" rx="2.703" ry="2.717"/><ellipse cx="178.917" cy="317.935" rx="2.703" ry="2.717"/><ellipse cx="191.892" cy="304.891" rx="2.703" ry="2.717"/><ellipse cx="165.946" cy="304.891" rx="2.703" ry="2.717"/><ellipse cx="331.35" cy="179.891" rx="2.703" ry="2.717"/><ellipse cx="331.35" cy="205.978" rx="2.703" ry="2.717"/><ellipse cx="344.324" cy="192.935" rx="2.703" ry="2.717"/><ellipse cx="318.378" cy="192.935" rx="2.703" ry="2.717"/><ellipse cx="357.296" cy="152.717" rx="2.703" ry="2.717"/><ellipse cx="357.296" cy="178.804" rx="2.703" ry="2.717"/><ellipse cx="370.27" cy="165.761" rx="2.703" ry="2.717"/><ellipse cx="344.324" cy="165.761" rx="2.703" ry="2.717"/><ellipse cx="281.619" cy="235.326" rx="2.703" ry="2.717"/><ellipse cx="281.619" cy="261.413" rx="2.703" ry="2.717"/><ellipse cx="294.593" cy="248.37" rx="2.703" ry="2.717"/><ellipse cx="268.647" cy="248.37" rx="2.703" ry="2.717"/><ellipse cx="307.566" cy="208.152" rx="2.703" ry="2.717"/><ellipse cx="307.566" cy="234.239" rx="2.703" ry="2.717"/><ellipse cx="320.541" cy="221.196" rx="2.703" ry="2.717"/><ellipse cx="294.595" cy="221.196" rx="2.703" ry="2.717"/><ellipse cx="229.728" cy="289.674" rx="2.703" ry="2.717"/><ellipse cx="229.728" cy="315.761" rx="2.703" ry="2.717"/><ellipse cx="242.703" cy="302.717" rx="2.703" ry="2.717"/><ellipse cx="216.757" cy="302.717" rx="2.703" ry="2.717"/><ellipse cx="255.676" cy="262.5" rx="2.703" ry="2.717"/><ellipse cx="255.676" cy="288.586" rx="2.703" ry="2.717"/><ellipse cx="268.65" cy="275.543" rx="2.703" ry="2.717"/><ellipse cx="242.704" cy="275.543" rx="2.703" ry="2.717"/><ellipse cx="179.999" cy="345.109" rx="2.703" ry="2.717"/><ellipse cx="179.999" cy="371.195" rx="2.703" ry="2.717"/><ellipse cx="192.973" cy="358.152" rx="2.703" ry="2.717"/><ellipse cx="167.027" cy="358.152" rx="2.703" ry="2.717"/><ellipse cx="205.944" cy="317.935" rx="2.703" ry="2.717"/><ellipse cx="205.944" cy="344.021" rx="2.703" ry="2.717"/><ellipse cx="218.919" cy="330.978" rx="2.703" ry="2.717"/><ellipse cx="192.973" cy="330.978" rx="2.703" ry="2.717"/><ellipse cx="358.377" cy="205.978" rx="2.703" ry="2.717"/><ellipse cx="358.377" cy="232.065" rx="2.703" ry="2.717"/><ellipse cx="371.351" cy="219.022" rx="2.703" ry="2.717"/><ellipse cx="345.405" cy="219.022" rx="2.703" ry="2.717"/><ellipse cx="384.323" cy="178.804" rx="2.703" ry="2.717"/><ellipse cx="384.323" cy="204.891" rx="2.703" ry="2.717"/><ellipse cx="397.297" cy="191.848" rx="2.703" ry="2.717"/><ellipse cx="371.351" cy="191.848" rx="2.703" ry="2.717"/><ellipse cx="308.649" cy="261.413" rx="2.703" ry="2.717"/><ellipse cx="308.649" cy="287.5" rx="2.703" ry="2.717"/><ellipse cx="321.623" cy="274.456" rx="2.703" ry="2.717"/><ellipse cx="295.677" cy="274.456" rx="2.703" ry="2.717"/><ellipse cx="334.592" cy="234.24" rx="2.703" ry="2.717"/><ellipse cx="334.592" cy="260.326" rx="2.703" ry="2.717"/><ellipse cx="347.566" cy="247.283" rx="2.703" ry="2.717"/><ellipse cx="321.62" cy="247.283" rx="2.703" ry="2.717"/><ellipse cx="256.755" cy="315.761" rx="2.703" ry="2.717"/><ellipse cx="256.755" cy="341.848" rx="2.703" ry="2.717"/><ellipse cx="269.73" cy="328.804" rx="2.703" ry="2.717"/><ellipse cx="243.784" cy="328.804" rx="2.703" ry="2.717"/><ellipse cx="282.701" cy="288.587" rx="2.703" ry="2.717"/><ellipse cx="282.701" cy="314.674" rx="2.703" ry="2.717"/><ellipse cx="295.676" cy="301.63" rx="2.703" ry="2.717"/><ellipse cx="269.73" cy="301.63" rx="2.703" ry="2.717"/><ellipse cx="207.024" cy="371.195" rx="2.703" ry="2.717"/><ellipse cx="207.024" cy="397.282" rx="2.703" ry="2.717"/><ellipse cx="219.998" cy="384.239" rx="2.703" ry="2.717"/><ellipse cx="194.052" cy="384.239" rx="2.703" ry="2.717"/><ellipse cx="232.971" cy="344.022" rx="2.703" ry="2.717"/><ellipse cx="232.971" cy="370.108" rx="2.703" ry="2.717"/><ellipse cx="245.946" cy="357.065" rx="2.703" ry="2.717"/><ellipse cx="220" cy="357.065" rx="2.703" ry="2.717"/><ellipse cx="149.73" cy="266.847" rx="2.703" ry="2.717"/><ellipse cx="149.73" cy="292.934" rx="2.703" ry="2.717"/><ellipse cx="162.704" cy="279.891" rx="2.703" ry="2.717"/><ellipse cx="136.758" cy="279.891" rx="2.703" ry="2.717"/></g></svg>