<svg width="148" height="36" fill="none" xmlns="http://www.w3.org/2000/svg"><path d="M52.175 27.93h2.454c.45 0 .705-.28.817-.56l1.382-3.032h8.432l1.382 3.031c.198.393.395.562.818.562h2.454c.423 0 .648-.365.48-.73L61.706 8.697c-.084-.168-.197-.308-.48-.308h-.281c-.254 0-.395.14-.48.308l-8.77 18.504c-.17.365.056.73.48.73zm6.035-6.708l2.764-6.176h.085l2.82 6.176H58.21zm19.828 6.175c0 .281.226.534.536.534h10.322c.31 0 .535-.253.535-.534v-2.301a.534.534 0 0 0-.535-.534h-7.192V8.814a.553.553 0 0 0-.535-.533h-2.595a.534.534 0 0 0-.536.533v18.583zm17.993 0c0 .281.253.534.535.534h2.623a.553.553 0 0 0 .536-.534V8.814a.553.553 0 0 0-.536-.533h-2.623a.554.554 0 0 0-.535.533v18.583zm11.498-9.263c0 5.614 4.54 10.077 10.18 10.077 2.51 0 4.936-.87 6.853-2.723.198-.196.254-.56.029-.757l-1.749-1.797a.521.521 0 0 0-.705 0c-1.184.954-2.623 1.6-4.315 1.6-3.61 0-6.317-2.976-6.317-6.484 0-3.537 2.679-6.541 6.289-6.541 1.579 0 3.159.617 4.343 1.656.226.225.508.225.705 0l1.72-1.768a.52.52 0 0 0-.028-.786C122.616 8.898 120.558 8 117.709 8c-5.64 0-10.18 4.52-10.18 10.134zm24.812 9.263c0 .281.226.534.536.534h11.478c.31 0 .536-.253.536-.534v-2.301a.535.535 0 0 0-.536-.534h-8.348V19.65h6.966a.534.534 0 0 0 .536-.534v-2.33a.554.554 0 0 0-.536-.533h-6.966v-4.604h8.348c.31 0 .536-.252.536-.533V8.814a.534.534 0 0 0-.536-.533h-11.478a.534.534 0 0 0-.536.533v18.583z" fill="#5D6C7C"/><g clip-path="url(#clip0)"><rect opacity=".45" width="10.617" height="34.976" rx="5.309" transform="matrix(-.89054 -.45491 -.45307 .89148 25.301 4.83)" fill="#F1C40F"/><rect opacity=".45" width="10.617" height="34.976" rx="5.309" transform="rotate(-27.059 15.582 -20.632) skewX(-.119)" fill="#358EFE"/><ellipse cx="18.19" cy="7.145" rx="5.326" ry="5.339" fill="#3CBA7A"/><ellipse cx="29.242" cy="28.824" rx="5.326" ry="5.339" fill="#AB49C9"/><ellipse cx="7.139" cy="28.824" rx="5.326" ry="5.339" fill="#F1C40F"/></g><defs><clipPath id="clip0"><path fill="#fff" d="M0 0H36.388V36H0z"/></clipPath></defs></svg>