<svg fill="none" height="659" viewBox="0 0 628 659" width="628" xmlns="http://www.w3.org/2000/svg"><g fill="#f1c40f"><circle cx="114.805" cy="466.082" r="5.88735"/><circle cx="117.751" cy="479.819" r="5.88735"/><circle cx="121.673" cy="495.518" r="5.88735"/><circle cx="129.52" cy="464.12" r="5.88735"/><circle cx="132.465" cy="477.856" r="5.88735"/><circle cx="136.387" cy="493.555" r="5.88735"/><circle cx="148.169" cy="480.8" r="5.88735"/><circle cx="151.11" cy="494.538" r="5.88735"/><circle cx="155.032" cy="510.237" r="5.88735"/><circle cx="139.337" cy="453.327" r="5.88735"/><circle cx="142.278" cy="467.063" r="5.88735"/><circle cx="146.204" cy="482.763" r="5.88735"/><circle cx="123.633" cy="443.514" r="5.88735"/><circle cx="126.579" cy="457.252" r="5.88735"/><circle cx="130.505" cy="472.95" r="5.88735"/><circle cx="166.813" cy="464.12" r="5.88735"/><circle cx="169.751" cy="477.856" r="5.88735"/><circle cx="173.676" cy="493.555" r="5.88735"/><circle cx="185.45" cy="480.8" r="5.88735"/><circle cx="188.391" cy="494.538" r="5.88735"/><circle cx="176.622" cy="453.327" r="5.88735"/><circle cx="179.567" cy="467.063" r="5.88735"/><circle cx="183.489" cy="482.763" r="5.88735"/><circle cx="163.864" cy="457.252" r="5.88735"/><circle cx="167.79" cy="472.95" r="5.88735"/><circle cx="147.18" cy="443.514" r="5.88735"/><circle cx="150.126" cy="457.252" r="5.88735"/><circle cx="154.055" cy="472.95" r="5.88735"/><circle cx="165.825" cy="460.195" r="5.88735"/><circle cx="168.77" cy="473.932" r="5.88735"/><circle cx="156.993" cy="432.72" r="5.88735"/><circle cx="159.938" cy="446.458" r="5.88735"/><circle cx="163.864" cy="462.158" r="5.88735"/><circle cx="144.239" cy="436.646" r="5.88735"/><circle cx="148.169" cy="452.344" r="5.88735"/><circle cx="162.883" cy="430.758" r="5.88735"/><circle cx="165.825" cy="444.495" r="5.88735"/><circle cx="169.751" cy="460.195" r="5.88735"/><circle cx="181.528" cy="447.438" r="5.88735"/><circle cx="184.473" cy="461.176" r="5.88735"/><circle cx="172.696" cy="419.964" r="5.88735"/><circle cx="175.641" cy="433.701" r="5.88735"/><circle cx="179.567" cy="449.401" r="5.88735"/><circle cx="159.938" cy="423.889" r="5.88735"/><circle cx="163.864" cy="439.59" r="5.88735"/><circle cx="186.434" cy="443.514" r="5.88735"/><circle cx="189.38" cy="457.252" r="5.88735"/><circle cx="193.301" cy="472.95" r="5.88735"/><circle cx="205.075" cy="460.195" r="5.88735"/><circle cx="208.024" cy="473.932" r="5.88735"/><circle cx="196.243" cy="432.72" r="5.88735"/><circle cx="199.188" cy="446.458" r="5.88735"/><circle cx="203.118" cy="462.158" r="5.88735"/><circle cx="183.489" cy="436.646" r="5.88735"/><circle cx="187.415" cy="452.344" r="5.88735"/><circle cx="204.094" cy="454.307" r="5.88735"/><circle cx="207.04" cy="468.045" r="5.88735"/><circle cx="210.962" cy="483.744" r="5.88735"/><circle cx="222.739" cy="470.987" r="5.88735"/><circle cx="225.684" cy="484.725" r="5.88735"/><circle cx="213.907" cy="443.514" r="5.88735"/><circle cx="216.852" cy="457.252" r="5.88735"/><circle cx="220.778" cy="472.95" r="5.88735"/><circle cx="201.149" cy="447.438" r="5.88735"/><circle cx="205.075" cy="463.137" r="5.88735"/><circle cx="187.415" cy="475.895" r="5.88735"/><circle cx="190.356" cy="489.632" r="5.88735"/><circle cx="194.286" cy="505.331" r="5.88735"/><circle cx="206.055" cy="492.576" r="5.88735"/><circle cx="209.001" cy="506.312" r="5.88735"/><circle cx="197.227" cy="465.1" r="5.88735"/><circle cx="254.137" cy="466.082" r="5.88735"/><circle cx="241.383" cy="508.274" r="5.88735"/><circle cx="186.434" cy="589.716" r="5.88735"/><circle cx="188.391" cy="484.725" r="5.88735"/><circle cx="173.676" cy="496.501" r="5.88735"/><circle cx="176.622" cy="510.237" r="5.88735"/><circle cx="180.548" cy="525.936" r="5.88735"/><circle cx="192.321" cy="513.181" r="5.88735"/><circle cx="195.266" cy="526.919" r="5.88735"/><circle cx="252.176" cy="502.387" r="5.88735"/><circle cx="227.645" cy="537.713" r="5.88735"/><circle cx="190.356" cy="515.144" r="5.88735"/><circle cx="170.735" cy="489.632" r="5.88735"/><circle cx="174.657" cy="505.331" r="5.88735"/><circle cx="140.317" cy="501.406" r="5.88735"/><circle cx="143.258" cy="515.144" r="5.88735"/><circle cx="147.18" cy="530.842" r="5.88735"/><circle cx="158.962" cy="518.087" r="5.88735"/><circle cx="161.903" cy="531.824" r="5.88735"/><circle cx="32.3834" cy="533.787" r="5.88735"/><circle cx="153.075" cy="504.35" r="5.88735"/><circle cx="156.993" cy="520.049" r="5.88735"/><circle cx="137.372" cy="494.538" r="5.88735"/><circle cx="141.294" cy="510.237" r="5.88735"/><circle cx="162.883" cy="488.65" r="5.88735"/><circle cx="165.825" cy="502.387" r="5.88735"/><circle cx="169.751" cy="518.087" r="5.88735"/><circle cx="181.528" cy="505.331" r="5.88735"/><circle cx="184.473" cy="519.068" r="5.88735"/><circle cx="172.696" cy="477.856" r="5.88735"/><circle cx="175.641" cy="491.593" r="5.88735"/><circle cx="179.567" cy="507.294" r="5.88735"/><circle cx="221.755" cy="560.28" r="5.88735"/><circle cx="163.864" cy="497.481" r="5.88735"/><circle cx="121.673" cy="493.555" r="5.88735"/><circle cx="124.614" cy="507.294" r="5.88735"/><circle cx="128.54" cy="522.993" r="5.88735"/><circle cx="140.317" cy="510.237" r="5.88735"/><circle cx="143.258" cy="523.974" r="5.88735"/><circle cx="131.485" cy="482.763" r="5.88735"/><circle cx="134.426" cy="496.501" r="5.88735"/><circle cx="138.352" cy="512.199" r="5.88735"/><circle cx="118.727" cy="486.687" r="5.88735"/><circle cx="122.653" cy="502.387" r="5.88735"/><circle cx="113.821" cy="458.232" r="5.88735"/><circle cx="116.766" cy="471.969" r="5.88735"/><circle cx="120.688" cy="487.669" r="5.88735"/><circle cx="132.465" cy="474.913" r="5.88735"/><circle cx="113.821" cy="652.515" r="5.88735"/><circle cx="5.88735" cy="620.134" r="5.88735"/><circle cx="123.633" cy="447.438" r="5.88735"/><circle cx="84.3874" cy="455.29" r="5.88735"/><circle cx="130.505" cy="476.876" r="5.88735"/><circle cx="110.876" cy="451.364" r="5.88735"/><circle cx="114.805" cy="467.063" r="5.88735"/><circle cx="135.411" cy="435.664" r="5.88735"/><circle cx="138.352" cy="449.401" r="5.88735"/><circle cx="142.278" cy="465.1" r="5.88735"/><circle cx="154.055" cy="452.344" r="5.88735"/><circle cx="145.223" cy="531.824" r="5.88735"/><circle cx="145.223" cy="424.87" r="5.88735"/><circle cx="148.169" cy="438.608" r="5.88735"/><circle cx="100.083" cy="547.524" r="5.88735"/><circle cx="132.465" cy="428.796" r="5.88735"/><circle cx="126.579" cy="479.819" r="5.88735"/><circle cx="188.391" cy="431.739" r="5.88735"/><circle cx="191.337" cy="445.476" r="5.88735"/><circle cx="201.149" cy="500.424" r="5.88735"/><circle cx="207.04" cy="448.42" r="5.88735"/><circle cx="246.286" cy="455.29" r="5.88735"/><circle cx="198.208" cy="420.946" r="5.88735"/><circle cx="201.149" cy="434.683" r="5.88735"/><circle cx="205.075" cy="450.382" r="5.88735"/><circle cx="185.45" cy="424.87" r="5.88735"/><circle cx="189.38" cy="440.569" r="5.88735"/><circle cx="137.372" cy="400.34" r="5.88735"/><circle cx="144.239" cy="383.659" opacity=".5" r="5.88735"/><circle cx="171.715" cy="380.715" opacity=".5" r="5.88735"/><circle cx="173.676" cy="362.072" opacity=".5" r="5.88735"/><circle cx="188.391" cy="349.317" opacity=".5" r="5.88735"/><circle cx="198.208" cy="327.729" opacity=".5" r="5.88735"/><circle cx="212.926" cy="303.199" opacity=".5" r="5.88735"/><circle cx="231.567" cy="302.217" opacity=".5" r="5.88735"/><circle cx="213.907" cy="285.537" opacity=".5" r="5.88735"/><circle cx="234.512" cy="271.799" opacity=".5" r="5.88735"/><circle cx="238.442" cy="255.119" opacity=".5" r="5.88735"/><circle cx="254.137" cy="280.632" opacity=".5" r="5.88735"/><circle cx="245.305" cy="315.955" opacity=".5" r="5.88735"/><circle cx="235.493" cy="289.461" opacity=".5" r="5.88735"/><circle cx="268.856" cy="313.01" opacity=".5" r="5.88735"/><circle cx="235.493" cy="353.241" opacity=".5" r="5.88735"/><circle cx="211.946" cy="363.054" opacity=".5" r="5.88735"/><circle cx="230.59" cy="362.072" opacity=".5" r="5.88735"/><circle cx="212.926" cy="345.391" opacity=".5" r="5.88735"/><circle cx="296.329" cy="404.264" opacity=".5" r="5.88735"/><circle cx="244.329" cy="375.809" opacity=".5" r="5.88735"/><circle cx="234.512" cy="349.317" opacity=".5" r="5.88735"/><circle cx="234.512" cy="413.095" opacity=".5" r="5.88735"/><circle cx="245.305" cy="347.354" opacity=".5" r="5.88735"/><circle cx="263.95" cy="346.373" opacity=".5" r="5.88735"/><circle cx="246.286" cy="329.692" opacity=".5" r="5.88735"/><circle cx="266.895" cy="315.955" opacity=".5" r="5.88735"/><circle cx="277.688" cy="360.109" opacity=".5" r="5.88735"/><circle cx="267.872" cy="333.617" opacity=".5" r="5.88735"/><circle cx="198.208" cy="340.486" opacity=".5" r="5.88735"/><circle cx="235.493" cy="320.86" opacity=".5" r="5.88735"/><circle cx="254.137" cy="319.88" opacity=".5" r="5.88735"/><circle cx="236.477" cy="303.199" opacity=".5" r="5.88735"/><circle cx="257.083" cy="289.461" opacity=".5" r="5.88735"/><circle cx="267.872" cy="333.617" opacity=".5" r="5.88735"/><circle cx="258.063" cy="307.124" opacity=".5" r="5.88735"/><circle cx="258.063" cy="370.904" opacity=".5" r="5.88735"/><circle cx="190.356" cy="351.278" opacity=".5" r="5.88735"/><circle cx="209.001" cy="350.298" opacity=".5" r="5.88735"/><circle cx="191.337" cy="333.617" opacity=".5" r="5.88735"/><circle cx="37.2858" cy="313.01" opacity=".5" r="5.88735"/><circle cx="211.946" cy="319.88" opacity=".5" r="5.88735"/><circle cx="222.739" cy="364.035" opacity=".5" r="5.88735"/><circle cx="212.926" cy="337.541" opacity=".5" r="5.88735"/><circle cx="212.926" cy="401.321" opacity=".5" r="5.88735"/><circle cx="154.055" cy="368.941" opacity=".5" r="5.88735"/><circle cx="163.864" cy="344.41" opacity=".5" r="5.88735"/><circle cx="174.657" cy="329.692" opacity=".5" r="5.88735"/><circle cx="92.2311" cy="365.015" opacity=".5" r="5.88735"/><circle cx="267.872" cy="5.88735" opacity=".5" r="5.88735"/><circle cx="182.505" cy="308.105" opacity=".5" r="5.88735"/><circle cx="189.38" cy="402.303" r="5.88735"/><circle cx="204.094" cy="389.547" r="5.88735"/><circle cx="213.907" cy="367.96" opacity=".5" r="5.88735"/><circle cx="213.907" cy="380.715" opacity=".5" r="5.88735"/><circle cx="206.055" cy="391.509" opacity=".5" r="5.88735"/><circle cx="207.04" cy="373.846" opacity=".5" r="5.88735"/><circle cx="179.567" cy="384.64" opacity=".5" r="5.88735"/><circle cx="190.356" cy="369.923" opacity=".5" r="5.88735"/><circle cx="198.208" cy="348.336" opacity=".5" r="5.88735"/><circle cx="229.606" cy="425.851" r="5.88735"/><circle cx="244.329" cy="413.095" opacity=".5" r="5.88735"/><circle cx="254.137" cy="391.509" opacity=".5" r="5.88735"/><circle cx="254.137" cy="404.264" opacity=".5" r="5.88735"/><circle cx="246.286" cy="415.058" opacity=".5" r="5.88735"/><circle cx="247.27" cy="397.395" opacity=".5" r="5.88735"/><circle cx="219.794" cy="408.19" opacity=".5" r="5.88735"/><circle cx="230.59" cy="393.472" opacity=".5" r="5.88735"/><circle cx="238.442" cy="371.883" opacity=".5" r="5.88735"/><circle cx="225.684" cy="458.232" r="5.88735"/><circle cx="240.399" cy="445.476" r="5.88735"/><circle cx="250.212" cy="423.889" opacity=".5" r="5.88735"/><circle cx="250.212" cy="436.646" opacity=".5" r="5.88735"/><circle cx="242.36" cy="447.438" opacity=".5" r="5.88735"/><circle cx="243.344" cy="429.777" opacity=".5" r="5.88735"/><circle cx="215.872" cy="440.569" r="5.88735"/><circle cx="226.661" cy="425.851" opacity=".5" r="5.88735"/><circle cx="234.512" cy="404.264" opacity=".5" r="5.88735"/><circle cx="256.098" cy="389.547" opacity=".5" r="5.88735"/><circle cx="270.817" cy="376.791" opacity=".5" r="5.88735"/><circle cx="280.63" cy="355.204" opacity=".5" r="5.88735"/><circle cx="280.63" cy="367.96" opacity=".5" r="5.88735"/><circle cx="272.778" cy="378.753" opacity=".5" r="5.88735"/><circle cx="273.758" cy="361.091" opacity=".5" r="5.88735"/><circle cx="246.286" cy="371.883" opacity=".5" r="5.88735"/><circle cx="257.083" cy="357.166" opacity=".5" r="5.88735"/><circle cx="264.926" cy="335.579" opacity=".5" r="5.88735"/><circle cx="263.95" cy="351.278" opacity=".5" r="5.88735"/><circle cx="278.665" cy="338.523" opacity=".5" r="5.88735"/><circle cx="288.481" cy="316.935" opacity=".5" r="5.88735"/><circle cx="288.481" cy="329.692" opacity=".5" r="5.88735"/><circle cx="280.63" cy="340.486" opacity=".5" r="5.88735"/><circle cx="281.61" cy="322.823" opacity=".5" r="5.88735"/><circle cx="254.137" cy="333.617" opacity=".5" r="5.88735"/><circle cx="264.926" cy="318.897" opacity=".5" r="5.88735"/><circle cx="272.778" cy="297.311" opacity=".5" r="5.88735"/><circle cx="155.032" cy="279.649" opacity=".5" r="5.88735"/><circle cx="143.258" cy="90.2731" opacity=".5" r="5.88735"/><circle cx="301.231" cy="346.373" opacity=".5" r="5.88735"/></g><circle cx="328.712" cy="343.428" fill="#358efe" opacity=".4" r="5.88735"/><circle cx="330.673" cy="324.786" fill="#358efe" opacity=".4" r="5.88735"/><circle cx="345.387" cy="312.029" fill="#358efe" opacity=".4" r="5.88735"/><circle cx="355.2" cy="290.442" fill="#358efe" opacity=".4" r="5.88735"/><circle cx="369.923" cy="265.912" fill="#358efe" opacity=".4" r="5.88735"/><circle cx="388.567" cy="264.931" fill="#358efe" opacity=".4" r="5.88735"/><circle cx="370.903" cy="248.251" fill="#358efe" opacity=".4" r="5.88735"/><circle cx="391.505" cy="234.513" fill="#358efe" opacity=".4" r="5.88735"/><circle cx="411.133" cy="243.342" fill="#358efe" opacity=".4" r="5.88735"/><circle cx="402.301" cy="278.669" fill="#358efe" opacity=".4" r="5.88735"/><circle cx="392.493" cy="252.174" fill="#358efe" opacity=".4" r="5.88735"/><circle cx="425.852" cy="275.723" fill="#358efe" opacity=".4" r="5.88735"/><circle cx="392.493" cy="315.955" fill="#358efe" opacity=".4" r="5.88735"/><circle cx="368.938" cy="325.767" fill="#358efe" opacity=".4" r="5.88735"/><circle cx="387.587" cy="324.786" fill="#358efe" opacity=".4" r="5.88735"/><circle cx="369.923" cy="308.105" fill="#358efe" opacity=".4" r="5.88735"/><circle cx="390.528" cy="294.368" fill="#358efe" opacity=".4" r="5.88735"/><circle cx="401.325" cy="338.523" fill="#358efe" opacity=".4" r="5.88735"/><circle cx="391.505" cy="312.029" fill="#358efe" opacity=".4" r="5.88735"/><circle cx="463.137" cy="328.711" fill="#358efe" opacity=".4" r="5.88735"/><circle cx="420.946" cy="309.086" fill="#358efe" opacity=".4" r="5.88735"/><circle cx="403.286" cy="292.405" fill="#358efe" opacity=".4" r="5.88735"/><circle cx="423.891" cy="278.669" fill="#358efe" opacity=".4" r="5.88735"/><circle cx="424.868" cy="296.329" fill="#358efe" opacity=".4" r="5.88735"/><circle cx="324.786" cy="293.386" fill="#358efe" opacity=".4" r="5.88735"/><circle cx="392.493" cy="283.574" fill="#358efe" opacity=".4" r="5.88735"/><circle cx="411.133" cy="282.592" fill="#358efe" opacity=".4" r="5.88735"/><circle cx="393.473" cy="265.912" fill="#358efe" opacity=".4" r="5.88735"/><circle cx="414.075" cy="252.174" fill="#358efe" opacity=".4" r="5.88735"/><circle cx="424.868" cy="296.329" fill="#358efe" opacity=".4" r="5.88735"/><circle cx="415.059" cy="269.837" fill="#358efe" opacity=".4" r="5.88735"/><circle cx="415.059" cy="333.617" fill="#358efe" opacity=".4" r="5.88735"/><circle cx="347.356" cy="313.992" fill="#358efe" opacity=".4" r="5.88735"/><circle cx="365.997" cy="313.01" fill="#358efe" opacity=".4" r="5.88735"/><circle cx="338.524" cy="292.405" fill="#358efe" opacity=".4" r="5.88735"/><circle cx="368.938" cy="282.592" fill="#358efe" opacity=".4" r="5.88735"/><circle cx="380.715" cy="306.142" fill="#358efe" opacity=".4" r="5.88735"/><circle cx="384.641" cy="254.137" fill="#358efe" opacity=".4" r="5.88735"/><circle cx="307.126" cy="308.105" fill="#358efe" opacity=".4" r="5.88735"/><circle cx="320.864" cy="307.124" fill="#358efe" opacity=".4" r="5.88735"/><circle cx="297.313" cy="281.611" fill="#358efe" opacity=".4" r="5.88735"/><circle cx="289.462" cy="272.781" fill="#358efe" opacity=".4" r="5.88735"/><circle cx="313.012" cy="269.837" fill="#358efe" opacity=".4" r="5.88735"/><circle cx="339.505" cy="270.818" fill="#358efe" opacity=".4" r="5.88735"/><circle cx="352.262" cy="275.723" fill="#358efe" opacity=".4" r="5.88735"/><circle cx="387.587" cy="214.888" fill="#358efe" opacity=".4" r="5.88735"/><circle cx="361.09" cy="352.26" fill="#358efe" opacity=".4" r="5.88735"/><circle cx="370.903" cy="330.673" fill="#358efe" opacity=".4" r="5.88735"/><circle cx="370.903" cy="343.428" fill="#358efe" opacity=".4" r="5.88735"/><circle cx="363.051" cy="354.222" fill="#358efe" opacity=".4" r="5.88735"/><circle cx="364.032" cy="336.56" fill="#358efe" opacity=".4" r="5.88735"/><circle cx="336.559" cy="347.354" fill="#358efe" opacity=".4" r="5.88735"/><circle cx="347.356" cy="332.635" fill="#358efe" opacity=".4" r="5.88735"/><circle cx="355.2" cy="311.048" fill="#358efe" opacity=".4" r="5.88735"/><circle cx="411.133" cy="354.222" fill="#358efe" opacity=".4" r="5.88735"/><circle cx="387.587" cy="356.185" fill="#358efe" opacity=".4" r="5.88735"/><circle cx="395.434" cy="334.597" fill="#358efe" opacity=".4" r="5.88735"/><circle cx="413.094" cy="352.26" fill="#358efe" opacity=".4" r="5.88735"/><circle cx="427.809" cy="339.504" fill="#358efe" opacity=".4" r="5.88735"/><circle cx="429.778" cy="341.466" fill="#358efe" opacity=".4" r="5.88735"/><circle cx="430.755" cy="323.804" fill="#358efe" opacity=".4" r="5.88735"/><circle cx="403.286" cy="334.597" fill="#358efe" opacity=".4" r="5.88735"/><circle cx="414.075" cy="319.88" fill="#358efe" opacity=".4" r="5.88735"/><circle cx="421.926" cy="298.292" fill="#358efe" opacity=".4" r="5.88735"/><circle cx="420.946" cy="313.992" fill="#358efe" opacity=".4" r="5.88735"/><circle cx="411.133" cy="296.329" fill="#358efe" opacity=".4" r="5.88735"/><circle cx="421.926" cy="281.611" fill="#358efe" opacity=".4" r="5.88735"/><path d="m439.591 197.226c0 3.252-2.636 5.888-5.887 5.888-3.252 0-5.888-2.636-5.888-5.888 0-3.251 2.636-5.887 5.888-5.887 3.251 0 5.887 2.636 5.887 5.887z" fill="#358efe" opacity=".4"/><circle cx="429.778" cy="260.025" fill="#358efe" opacity=".4" r="5.88735"/><circle cx="349.317" cy="254.137" fill="#358efe" opacity=".4" r="5.88735"/><circle cx="338.524" cy="422.909" fill="#358efe" opacity=".4" r="5.88735"/><circle cx="330.673" cy="396.415" fill="#358efe" opacity=".4" r="5.88735"/><circle cx="332.633" cy="377.772" fill="#358efe" opacity=".4" r="5.88735"/><circle cx="347.356" cy="365.015" fill="#358efe" opacity=".4" r="5.88735"/><circle cx="357.169" cy="343.428" fill="#358efe" opacity=".4" r="5.88735"/><circle cx="377.77" cy="295.349" fill="#358efe" opacity=".4" r="5.88735"/><circle cx="515.141" cy="289.461" fill="#358efe" opacity=".4" r="5.88735"/><circle cx="329.692" cy="282.592" fill="#358efe" opacity=".4" r="5.88735"/><circle cx="384.641" cy="279.649" fill="#358efe" opacity=".4" r="5.88735"/><circle cx="469.024" cy="252.174" fill="#358efe" opacity=".4" r="5.88735"/><circle cx="437.63" cy="381.697" fill="#358efe" opacity=".4" r="5.88735"/><circle cx="394.45" cy="305.161" fill="#358efe" opacity=".4" r="5.88735"/><circle cx="427.809" cy="328.711" fill="#358efe" opacity=".4" r="5.88735"/><circle cx="394.45" cy="368.941" fill="#358efe" opacity=".4" r="5.88735"/><circle cx="370.903" cy="378.753" fill="#358efe" opacity=".4" r="5.88735"/><circle cx="389.548" cy="377.772" fill="#358efe" opacity=".4" r="5.88735"/><circle cx="371.883" cy="361.091" fill="#358efe" opacity=".4" r="5.88735"/><circle cx="392.493" cy="347.354" fill="#358efe" opacity=".4" r="5.88735"/><circle cx="403.286" cy="391.509" fill="#358efe" opacity=".4" r="5.88735"/><circle cx="445.473" cy="381.697" fill="#358efe" opacity=".4" r="5.88735"/><circle cx="368.938" cy="425.851" fill="#358efe" opacity=".4" r="5.88735"/><circle cx="422.907" cy="362.072" fill="#358efe" opacity=".4" r="5.88735"/><circle cx="471.965" cy="378.753" fill="#358efe" opacity=".4" r="5.88735"/><circle cx="425.852" cy="331.654" fill="#358efe" opacity=".4" r="5.88735"/><circle cx="426.833" cy="349.317" fill="#358efe" opacity=".4" r="5.88735"/><circle cx="313.989" cy="399.358" fill="#358efe" opacity=".4" r="5.88735"/><circle cx="477.86" cy="396.415" fill="#358efe" opacity=".4" r="5.88735"/><circle cx="450.387" cy="348.336" fill="#358efe" opacity=".4" r="5.88735"/><circle cx="453.325" cy="374.828" fill="#358efe" opacity=".4" r="5.88735"/><circle cx="443.512" cy="323.804" fill="#358efe" opacity=".4" r="5.88735"/><circle cx="426.833" cy="349.317" fill="#358efe" opacity=".4" r="5.88735"/><circle cx="447.442" cy="335.579" fill="#358efe" opacity=".4" r="5.88735"/><circle cx="417.024" cy="386.603" fill="#358efe" opacity=".4" r="5.88735"/><circle cx="349.317" cy="366.978" fill="#358efe" opacity=".4" r="5.88735"/><circle cx="378.755" cy="438.608" fill="#358efe" opacity=".4" r="5.88735"/><circle cx="300.255" cy="296.329" fill="#358efe" opacity=".4" r="5.88735"/><circle cx="380.715" cy="410.152" fill="#358efe" opacity=".4" r="5.88735"/><circle cx="381.696" cy="379.735" fill="#358efe" opacity=".4" r="5.88735"/><circle cx="371.883" cy="353.241" fill="#358efe" opacity=".4" r="5.88735"/><circle cx="365.997" cy="434.683" fill="#358efe" opacity=".4" r="5.88735"/><circle cx="322.821" cy="360.109" fill="#358efe" opacity=".4" r="5.88735"/><circle cx="333.618" cy="345.391" fill="#358efe" opacity=".4" r="5.88735"/><circle cx="341.465" cy="323.804" fill="#358efe" opacity=".4" r="5.88735"/><circle cx="363.051" cy="405.246" fill="#358efe" opacity=".4" r="5.88735"/><circle cx="372.864" cy="383.659" fill="#358efe" opacity=".4" r="5.88735"/><circle cx="372.864" cy="396.415" fill="#358efe" opacity=".4" r="5.88735"/><circle cx="365.02" cy="407.209" fill="#358efe" opacity=".4" r="5.88735"/><circle cx="365.997" cy="389.547" fill="#358efe" opacity=".4" r="5.88735"/><circle cx="356.184" cy="401.321" fill="#358efe" opacity=".4" r="5.88735"/><circle cx="349.317" cy="385.622" fill="#358efe" opacity=".4" r="5.88735"/><circle cx="357.169" cy="364.035" fill="#358efe" opacity=".4" r="5.88735"/><circle cx="413.094" cy="407.209" fill="#358efe" opacity=".4" r="5.88735"/><circle cx="389.548" cy="409.172" fill="#358efe" opacity=".4" r="5.88735"/><circle cx="397.395" cy="387.584" fill="#358efe" opacity=".4" r="5.88735"/><circle cx="415.059" cy="405.246" fill="#358efe" opacity=".4" r="5.88735"/><circle cx="429.778" cy="392.49" fill="#358efe" opacity=".4" r="5.88735"/><circle cx="431.739" cy="394.453" fill="#358efe" opacity=".4" r="5.88735"/><circle cx="432.719" cy="376.791" fill="#358efe" opacity=".4" r="5.88735"/><circle cx="405.247" cy="387.584" fill="#358efe" opacity=".4" r="5.88735"/><circle cx="416.04" cy="372.866" fill="#358efe" opacity=".4" r="5.88735"/><circle cx="423.891" cy="351.278" fill="#358efe" opacity=".4" r="5.88735"/><circle cx="422.907" cy="366.978" fill="#358efe" opacity=".4" r="5.88735"/><circle cx="487.669" cy="337.541" fill="#358efe" opacity=".4" r="5.88735"/><circle cx="438.606" cy="363.054" fill="#358efe" opacity=".4" r="5.88735"/><circle cx="431.739" cy="313.01" fill="#358efe" opacity=".4" r="5.88735"/><circle cx="365.997" cy="296.329" fill="#358efe" opacity=".4" r="5.88735"/><circle cx="207.04" cy="267.874" fill="#f1c40f" opacity=".5" r="5.88735"/><circle cx="101.067" cy="204.094" fill="#f1c40f" opacity=".5" r="5.88735"/><circle cx="219.794" cy="250.213" fill="#f1c40f" opacity=".5" r="5.88735"/><circle cx="227.645" cy="226.663" fill="#f1c40f" opacity=".5" r="5.88735"/><circle cx="233.532" cy="206.056" fill="#f1c40f" opacity=".5" r="5.88735"/><circle cx="111.864" cy="440.569" fill="#f1c40f" r="5.88735"/><circle cx="106.954" cy="448.42" fill="#f1c40f" r="5.88735"/><circle cx="104.012" cy="457.252" fill="#f1c40f" r="5.88735"/><circle cx="102.048" cy="465.1" fill="#f1c40f" r="5.88735"/><circle cx="102.048" cy="473.932" fill="#f1c40f" r="5.88735"/><circle cx="103.028" cy="482.763" fill="#f1c40f" r="5.88735"/><circle cx="104.993" cy="491.593" fill="#f1c40f" r="5.88735"/><circle cx="106.954" cy="500.424" fill="#f1c40f" r="5.88735"/><circle cx="111.864" cy="508.274" fill="#f1c40f" r="5.88735"/><circle cx="116.766" cy="516.124" fill="#f1c40f" r="5.88735"/><circle cx="123.633" cy="522.993" fill="#f1c40f" r="5.88735"/><circle cx="129.52" cy="527.899" fill="#f1c40f" r="5.88735"/><circle cx="138.352" cy="531.824" fill="#f1c40f" r="5.88735"/><circle cx="147.18" cy="534.767" fill="#f1c40f" r="5.88735"/><circle cx="156.993" cy="536.73" fill="#f1c40f" r="5.88735"/><circle cx="165.825" cy="536.73" fill="#f1c40f" r="5.88735"/><circle cx="173.676" cy="535.75" fill="#f1c40f" r="5.88735"/><circle cx="182.505" cy="534.767" fill="#f1c40f" r="5.88735"/><circle cx="190.356" cy="531.824" fill="#f1c40f" r="5.88735"/><circle cx="197.227" cy="527.899" fill="#f1c40f" r="5.88735"/><circle cx="203.118" cy="522.993" fill="#f1c40f" r="5.88735"/><circle cx="209.001" cy="517.106" fill="#f1c40f" r="5.88735"/><circle cx="213.907" cy="512.199" fill="#f1c40f" r="5.88735"/><circle cx="219.794" cy="506.312" fill="#f1c40f" r="5.88735"/><circle cx="222.739" cy="502.387" fill="#f1c40f" r="5.88735"/><circle cx="225.684" cy="495.518" fill="#f1c40f" r="5.88735"/><circle cx="227.645" cy="484.725" fill="#f1c40f" r="5.88735"/><circle cx="228.626" cy="473.932" fill="#f1c40f" r="5.88735"/><circle cx="226.661" cy="465.1" fill="#f1c40f" r="5.88735"/><circle cx="226.661" cy="456.269" fill="#f1c40f" r="5.88735"/><ellipse cx="222.739" cy="448.91" fill="#f1c40f" rx="5.88735" ry="5.39674"/><ellipse cx="220.778" cy="441.061" fill="#f1c40f" rx="5.88735" ry="5.39674"/><ellipse cx="214.887" cy="433.21" fill="#f1c40f" rx="5.88735" ry="5.39674"/><ellipse cx="208.024" cy="426.342" fill="#f1c40f" rx="5.88735" ry="5.39674"/><ellipse cx="202.13" cy="420.455" fill="#f1c40f" rx="5.88735" ry="5.39674"/><ellipse cx="194.286" cy="416.531" fill="#f1c40f" rx="5.88735" ry="5.39674"/><ellipse cx="185.45" cy="412.605" fill="#f1c40f" rx="5.88735" ry="5.39674"/><ellipse cx="173.676" cy="411.624" fill="#f1c40f" rx="5.88735" ry="5.39674"/><circle cx="164.354" cy="409.661" fill="#f1c40f" r="5.39674"/><circle cx="157.487" cy="411.624" fill="#f1c40f" r="5.39674"/><circle cx="149.635" cy="412.605" fill="#f1c40f" r="5.39674"/><circle cx="141.787" cy="414.568" fill="#f1c40f" r="5.39674"/><circle cx="135.897" cy="416.531" fill="#f1c40f" r="5.39674"/><circle cx="130.994" cy="422.418" fill="#f1c40f" r="5.39674"/><circle cx="125.112" cy="425.361" fill="#f1c40f" r="5.39674"/><circle cx="120.198" cy="429.286" fill="#f1c40f" r="5.39674"/><circle cx="116.276" cy="433.21" fill="#f1c40f" r="5.39674"/><circle cx="400.337" cy="466.082" fill="#ab49c9" r="5.88735"/><circle cx="403.286" cy="479.819" fill="#ab49c9" r="5.88735"/><circle cx="407.208" cy="495.518" fill="#ab49c9" r="5.88735"/><circle cx="415.059" cy="464.12" fill="#ab49c9" r="5.88735"/><circle cx="418.001" cy="477.856" fill="#ab49c9" r="5.88735"/><circle cx="421.926" cy="493.555" fill="#ab49c9" r="5.88735"/><circle cx="433.704" cy="480.8" fill="#ab49c9" r="5.88735"/><circle cx="436.649" cy="494.538" fill="#ab49c9" r="5.88735"/><circle cx="440.567" cy="510.237" fill="#ab49c9" r="5.88735"/><circle cx="424.868" cy="453.327" fill="#ab49c9" r="5.88735"/><circle cx="427.809" cy="467.063" fill="#ab49c9" r="5.88735"/><circle cx="431.739" cy="482.763" fill="#ab49c9" r="5.88735"/><circle cx="409.173" cy="443.514" fill="#ab49c9" r="5.88735"/><circle cx="412.114" cy="457.252" fill="#ab49c9" r="5.88735"/><circle cx="416.04" cy="472.95" fill="#ab49c9" r="5.88735"/><circle cx="452.344" cy="464.12" fill="#ab49c9" r="5.88735"/><circle cx="455.29" cy="477.856" fill="#ab49c9" r="5.88735"/><circle cx="459.212" cy="493.555" fill="#ab49c9" r="5.88735"/><circle cx="470.989" cy="480.8" fill="#ab49c9" r="5.88735"/><circle cx="473.93" cy="494.538" fill="#ab49c9" r="5.88735"/><circle cx="462.157" cy="453.327" fill="#ab49c9" r="5.88735"/><circle cx="465.102" cy="467.063" fill="#ab49c9" r="5.88735"/><circle cx="469.024" cy="482.763" fill="#ab49c9" r="5.88735"/><circle cx="449.399" cy="457.252" fill="#ab49c9" r="5.88735"/><circle cx="453.325" cy="472.95" fill="#ab49c9" r="5.88735"/><circle cx="432.719" cy="443.514" fill="#ab49c9" r="5.88735"/><circle cx="435.661" cy="457.252" fill="#ab49c9" r="5.88735"/><circle cx="439.59" cy="472.95" fill="#ab49c9" r="5.88735"/><circle cx="451.364" cy="460.195" fill="#ab49c9" r="5.88735"/><circle cx="319.88" cy="488.65" fill="#ab49c9" r="5.88735"/><circle cx="442.536" cy="432.72" fill="#ab49c9" r="5.88735"/><circle cx="445.473" cy="446.458" fill="#ab49c9" r="5.88735"/><circle cx="449.399" cy="462.158" fill="#ab49c9" r="5.88735"/><circle cx="429.778" cy="436.646" fill="#ab49c9" r="5.88735"/><circle cx="433.704" cy="452.344" fill="#ab49c9" r="5.88735"/><circle cx="448.419" cy="430.758" fill="#ab49c9" r="5.88735"/><circle cx="451.364" cy="444.495" fill="#ab49c9" r="5.88735"/><circle cx="564.204" cy="532.804" fill="#ab49c9" r="5.88735"/><circle cx="467.063" cy="447.438" fill="#ab49c9" r="5.88735"/><circle cx="470.008" cy="461.176" fill="#ab49c9" r="5.88735"/><circle cx="458.227" cy="419.964" fill="#ab49c9" r="5.88735"/><circle cx="461.176" cy="433.701" fill="#ab49c9" r="5.88735"/><circle cx="522.993" cy="436.646" fill="#ab49c9" r="5.88735"/><circle cx="445.473" cy="423.889" fill="#ab49c9" r="5.88735"/><circle cx="449.399" cy="439.59" fill="#ab49c9" r="5.88735"/><circle cx="471.965" cy="443.514" fill="#ab49c9" r="5.88735"/><circle cx="474.915" cy="457.252" fill="#ab49c9" r="5.88735"/><circle cx="478.84" cy="472.95" fill="#ab49c9" r="5.88735"/><circle cx="490.61" cy="460.195" fill="#ab49c9" r="5.88735"/><circle cx="493.555" cy="473.932" fill="#ab49c9" r="5.88735"/><circle cx="481.778" cy="432.72" fill="#ab49c9" r="5.88735"/><circle cx="484.723" cy="446.458" fill="#ab49c9" r="5.88735"/><circle cx="488.653" cy="462.158" fill="#ab49c9" r="5.88735"/><circle cx="469.024" cy="436.646" fill="#ab49c9" r="5.88735"/><circle cx="518.087" cy="475.895" fill="#ab49c9" r="5.88735"/><circle cx="489.63" cy="454.307" fill="#ab49c9" r="5.88735"/><circle cx="492.575" cy="468.045" fill="#ab49c9" r="5.88735"/><circle cx="496.501" cy="483.744" fill="#ab49c9" r="5.88735"/><circle cx="508.274" cy="470.987" fill="#ab49c9" r="5.88735"/><circle cx="511.219" cy="484.725" fill="#ab49c9" r="5.88735"/><circle cx="499.442" cy="443.514" fill="#ab49c9" r="5.88735"/><circle cx="502.387" cy="457.252" fill="#ab49c9" r="5.88735"/><circle cx="506.313" cy="472.95" fill="#ab49c9" r="5.88735"/><circle cx="486.688" cy="447.438" fill="#ab49c9" r="5.88735"/><circle cx="490.61" cy="463.137" fill="#ab49c9" r="5.88735"/><circle cx="472.954" cy="475.895" fill="#ab49c9" r="5.88735"/><circle cx="475.895" cy="489.632" fill="#ab49c9" r="5.88735"/><circle cx="479.817" cy="505.331" fill="#ab49c9" r="5.88735"/><circle cx="491.598" cy="492.576" fill="#ab49c9" r="5.88735"/><circle cx="494.536" cy="506.312" fill="#ab49c9" r="5.88735"/><circle cx="482.762" cy="465.1" fill="#ab49c9" r="5.88735"/><circle cx="592.657" cy="480.8" fill="#ab49c9" r="5.88735"/><circle cx="489.63" cy="494.538" fill="#ab49c9" r="5.88735"/><circle cx="470.008" cy="469.026" fill="#ab49c9" r="5.88735"/><circle cx="473.93" cy="484.725" fill="#ab49c9" r="5.88735"/><circle cx="459.212" cy="496.501" fill="#ab49c9" r="5.88735"/><circle cx="462.157" cy="510.237" fill="#ab49c9" r="5.88735"/><circle cx="466.079" cy="525.936" fill="#ab49c9" r="5.88735"/><circle cx="477.86" cy="513.181" fill="#ab49c9" r="5.88735"/><circle cx="480.801" cy="526.919" fill="#ab49c9" r="5.88735"/><circle cx="469.024" cy="485.706" fill="#ab49c9" r="5.88735"/><circle cx="471.965" cy="499.444" fill="#ab49c9" r="5.88735"/><circle cx="475.895" cy="515.144" fill="#ab49c9" r="5.88735"/><circle cx="456.27" cy="489.632" fill="#ab49c9" r="5.88735"/><circle cx="460.196" cy="505.331" fill="#ab49c9" r="5.88735"/><circle cx="425.852" cy="501.406" fill="#ab49c9" r="5.88735"/><circle cx="428.798" cy="515.144" fill="#ab49c9" r="5.88735"/><circle cx="432.719" cy="530.842" fill="#ab49c9" r="5.88735"/><circle cx="444.493" cy="518.087" fill="#ab49c9" r="5.88735"/><circle cx="447.442" cy="531.824" fill="#ab49c9" r="5.88735"/><circle cx="435.661" cy="490.613" fill="#ab49c9" r="5.88735"/><circle cx="438.606" cy="504.35" fill="#ab49c9" r="5.88735"/><circle cx="442.536" cy="520.049" fill="#ab49c9" r="5.88735"/><circle cx="422.907" cy="494.538" fill="#ab49c9" r="5.88735"/><circle cx="426.833" cy="510.237" fill="#ab49c9" r="5.88735"/><circle cx="448.419" cy="488.65" fill="#ab49c9" r="5.88735"/><circle cx="388.567" cy="525.936" fill="#ab49c9" r="5.88735"/><circle cx="455.29" cy="518.087" fill="#ab49c9" r="5.88735"/><circle cx="467.063" cy="505.331" fill="#ab49c9" r="5.88735"/><circle cx="470.008" cy="519.068" fill="#ab49c9" r="5.88735"/><circle cx="361.09" cy="483.744" fill="#ab49c9" r="5.88735"/><circle cx="461.176" cy="491.593" fill="#ab49c9" r="5.88735"/><circle cx="465.102" cy="507.294" fill="#ab49c9" r="5.88735"/><circle cx="483.747" cy="539.673" fill="#ab49c9" r="5.88735"/><circle cx="449.399" cy="497.481" fill="#ab49c9" r="5.88735"/><circle cx="407.208" cy="493.555" fill="#ab49c9" r="5.88735"/><circle cx="410.153" cy="507.294" fill="#ab49c9" r="5.88735"/><circle cx="414.075" cy="522.993" fill="#ab49c9" r="5.88735"/><circle cx="425.852" cy="510.237" fill="#ab49c9" r="5.88735"/><circle cx="428.798" cy="523.974" fill="#ab49c9" r="5.88735"/><circle cx="417.024" cy="482.763" fill="#ab49c9" r="5.88735"/><circle cx="419.965" cy="496.501" fill="#ab49c9" r="5.88735"/><circle cx="423.891" cy="512.199" fill="#ab49c9" r="5.88735"/><circle cx="404.262" cy="486.687" fill="#ab49c9" r="5.88735"/><circle cx="408.188" cy="502.387" fill="#ab49c9" r="5.88735"/><circle cx="399.356" cy="458.232" fill="#ab49c9" r="5.88735"/><circle cx="402.301" cy="471.969" fill="#ab49c9" r="5.88735"/><circle cx="406.231" cy="487.669" fill="#ab49c9" r="5.88735"/><circle cx="470.989" cy="558.318" fill="#ab49c9" r="5.88735"/><circle cx="420.946" cy="488.65" fill="#ab49c9" r="5.88735"/><circle cx="409.173" cy="447.438" fill="#ab49c9" r="5.88735"/><circle cx="412.114" cy="461.176" fill="#ab49c9" r="5.88735"/><circle cx="328.712" cy="542.618" fill="#ab49c9" r="5.88735"/><circle cx="396.415" cy="451.364" fill="#ab49c9" r="5.88735"/><circle cx="318.899" cy="441.551" fill="#ab49c9" r="5.88735"/><circle cx="621.114" cy="209.001" fill="#ab49c9" r="5.88735"/><circle cx="420.946" cy="435.664" fill="#ab49c9" r="5.88735"/><circle cx="423.891" cy="449.401" fill="#ab49c9" r="5.88735"/><circle cx="427.809" cy="465.1" fill="#ab49c9" r="5.88735"/><circle cx="439.59" cy="452.344" fill="#ab49c9" r="5.88735"/><circle cx="442.536" cy="466.082" fill="#ab49c9" r="5.88735"/><circle cx="430.755" cy="424.87" fill="#ab49c9" r="5.88735"/><circle cx="433.704" cy="438.608" fill="#ab49c9" r="5.88735"/><circle cx="370.903" cy="457.252" fill="#ab49c9" r="5.88735"/><circle cx="418.001" cy="428.796" fill="#ab49c9" r="5.88735"/><circle cx="421.926" cy="444.495" fill="#ab49c9" r="5.88735"/><circle cx="473.93" cy="431.739" fill="#ab49c9" r="5.88735"/><circle cx="517.106" cy="365.997" fill="#ab49c9" r="5.88735"/><circle cx="480.801" cy="461.176" fill="#ab49c9" r="5.88735"/><circle cx="492.575" cy="448.42" fill="#ab49c9" r="5.88735"/><circle cx="495.52" cy="462.158" fill="#ab49c9" r="5.88735"/><circle cx="483.747" cy="420.946" fill="#ab49c9" r="5.88735"/><circle cx="486.688" cy="434.683" fill="#ab49c9" r="5.88735"/><circle cx="490.61" cy="450.382" fill="#ab49c9" r="5.88735"/><circle cx="470.989" cy="424.87" fill="#ab49c9" r="5.88735"/><circle cx="547.524" cy="403.283" fill="#ab49c9" r="5.88735"/><circle cx="397.395" cy="440.569" fill="#ab49c9" r="5.88735"/><circle cx="392.493" cy="448.42" fill="#ab49c9" r="5.88735"/><circle cx="389.548" cy="457.252" fill="#ab49c9" r="5.88735"/><circle cx="387.587" cy="465.1" fill="#ab49c9" r="5.88735"/><circle cx="387.587" cy="473.932" fill="#ab49c9" r="5.88735"/><circle cx="388.567" cy="482.763" fill="#ab49c9" r="5.88735"/><circle cx="390.528" cy="491.593" fill="#ab49c9" r="5.88735"/><circle cx="392.493" cy="500.424" fill="#ab49c9" r="5.88735"/><circle cx="397.395" cy="508.274" fill="#ab49c9" r="5.88735"/><circle cx="402.301" cy="516.124" fill="#ab49c9" r="5.88735"/><circle cx="409.173" cy="522.993" fill="#ab49c9" r="5.88735"/><circle cx="415.059" cy="527.899" fill="#ab49c9" r="5.88735"/><circle cx="423.891" cy="531.824" fill="#ab49c9" r="5.88735"/><circle cx="432.719" cy="534.767" fill="#ab49c9" r="5.88735"/><circle cx="442.536" cy="536.73" fill="#ab49c9" r="5.88735"/><circle cx="451.364" cy="536.73" fill="#ab49c9" r="5.88735"/><circle cx="459.212" cy="535.75" fill="#ab49c9" r="5.88735"/><circle cx="468.044" cy="534.767" fill="#ab49c9" r="5.88735"/><circle cx="475.895" cy="531.824" fill="#ab49c9" r="5.88735"/><circle cx="482.762" cy="527.899" fill="#ab49c9" r="5.88735"/><circle cx="488.653" cy="522.993" fill="#ab49c9" r="5.88735"/><circle cx="494.536" cy="517.106" fill="#ab49c9" r="5.88735"/><circle cx="499.442" cy="512.199" fill="#ab49c9" r="5.88735"/><circle cx="505.333" cy="506.312" fill="#ab49c9" r="5.88735"/><circle cx="508.274" cy="502.387" fill="#ab49c9" r="5.88735"/><circle cx="511.219" cy="495.518" fill="#ab49c9" r="5.88735"/><circle cx="513.176" cy="484.725" fill="#ab49c9" r="5.88735"/><circle cx="514.165" cy="473.932" fill="#ab49c9" r="5.88735"/><circle cx="512.2" cy="465.1" fill="#ab49c9" r="5.88735"/><circle cx="512.2" cy="456.269" fill="#ab49c9" r="5.88735"/><ellipse cx="508.274" cy="448.91" fill="#ab49c9" rx="5.88735" ry="5.39674"/><ellipse cx="506.313" cy="441.061" fill="#ab49c9" rx="5.88735" ry="5.39674"/><ellipse cx="500.426" cy="433.21" fill="#ab49c9" rx="5.88735" ry="5.39674"/><ellipse cx="493.555" cy="426.342" fill="#ab49c9" rx="5.88735" ry="5.39674"/><ellipse cx="487.669" cy="420.455" fill="#ab49c9" rx="5.88735" ry="5.39674"/><ellipse cx="479.817" cy="416.531" fill="#ab49c9" rx="5.88735" ry="5.39674"/><ellipse cx="470.989" cy="412.605" fill="#ab49c9" rx="5.88735" ry="5.39674"/><ellipse cx="459.212" cy="411.624" fill="#ab49c9" rx="5.88735" ry="5.39674"/><circle cx="449.897" cy="409.661" fill="#ab49c9" r="5.39674"/><circle cx="443.022" cy="411.624" fill="#ab49c9" r="5.39674"/><circle cx="435.17" cy="412.605" fill="#ab49c9" r="5.39674"/><circle cx="427.319" cy="414.568" fill="#ab49c9" r="5.39674"/><circle cx="421.436" cy="416.531" fill="#ab49c9" r="5.39674"/><circle cx="416.533" cy="422.418" fill="#ab49c9" r="5.39674"/><circle cx="410.643" cy="425.361" fill="#ab49c9" r="5.39674"/><circle cx="405.74" cy="429.286" fill="#ab49c9" r="5.39674"/><circle cx="401.811" cy="433.21" fill="#ab49c9" r="5.39674"/><g fill="#3cba7a"><circle cx="256.098" cy="183.488" r="5.88735"/><circle cx="259.044" cy="197.226" r="5.88735"/><circle cx="262.965" cy="212.926" r="5.88735"/><circle cx="270.817" cy="181.526" r="5.88735"/><circle cx="273.758" cy="195.263" r="5.88735"/><circle cx="277.688" cy="210.964" r="5.88735"/><circle cx="289.462" cy="198.209" r="5.88735"/><circle cx="292.407" cy="211.945" r="5.88735"/><circle cx="296.329" cy="227.645" r="5.88735"/><circle cx="280.63" cy="170.733" r="5.88735"/><circle cx="283.575" cy="184.47" r="5.88735"/><circle cx="287.497" cy="200.171" r="5.88735"/><circle cx="264.926" cy="160.921" r="5.88735"/><circle cx="267.872" cy="174.658" r="5.88735"/><circle cx="271.801" cy="190.358" r="5.88735"/><circle cx="308.106" cy="181.526" r="5.88735"/><circle cx="311.051" cy="195.263" r="5.88735"/><circle cx="314.969" cy="210.964" r="5.88735"/><circle cx="326.751" cy="198.209" r="5.88735"/><circle cx="329.692" cy="211.945" r="5.88735"/><circle cx="317.915" cy="170.733" r="5.88735"/><circle cx="320.864" cy="184.47" r="5.88735"/><circle cx="324.786" cy="200.171" r="5.88735"/><circle cx="305.161" cy="174.658" r="5.88735"/><circle cx="309.083" cy="190.358" r="5.88735"/><circle cx="288.481" cy="160.921" r="5.88735"/><circle cx="291.423" cy="174.658" r="5.88735"/><circle cx="295.348" cy="190.358" r="5.88735"/><circle cx="307.126" cy="177.602" r="5.88735"/><circle cx="310.067" cy="191.339" r="5.88735"/><circle cx="298.294" cy="150.128" r="5.88735"/><circle cx="301.231" cy="163.865" r="5.88735"/><circle cx="201.149" cy="157.977" r="5.88735"/><circle cx="285.54" cy="154.052" r="5.88735"/><circle cx="289.462" cy="169.752" r="5.88735"/><circle cx="304.176" cy="148.165" r="5.88735"/><circle cx="307.126" cy="161.902" r="5.88735"/><circle cx="469.024" cy="209.001" r="5.88735"/><circle cx="322.821" cy="164.845" r="5.88735"/><circle cx="325.766" cy="178.583" r="5.88735"/><circle cx="313.989" cy="137.372" r="5.88735"/><circle cx="316.934" cy="151.109" r="5.88735"/><circle cx="428.798" cy="165.828" r="5.88735"/><circle cx="535.747" cy="69.6676" r="5.88735"/><circle cx="301.231" cy="141.297" r="5.88735"/><circle cx="336.559" cy="131.484" r="5.88735"/><circle cx="327.727" cy="160.921" r="5.88735"/><circle cx="330.673" cy="174.658" r="5.88735"/><circle cx="334.598" cy="190.358" r="5.88735"/><circle cx="346.372" cy="177.602" r="5.88735"/><circle cx="349.317" cy="191.339" r="5.88735"/><circle cx="337.544" cy="150.128" r="5.88735"/><circle cx="340.485" cy="163.865" r="5.88735"/><circle cx="344.411" cy="179.565" r="5.88735"/><circle cx="331.653" cy="90.2731" r="5.88735"/><circle cx="328.712" cy="169.752" r="5.88735"/><circle cx="345.387" cy="171.714" r="5.88735"/><circle cx="348.337" cy="185.451" r="5.88735"/><circle cx="352.262" cy="201.151" r="5.88735"/><circle cx="364.032" cy="188.395" r="5.88735"/><circle cx="366.977" cy="202.131" r="5.88735"/><circle cx="355.2" cy="160.921" r="5.88735"/><circle cx="358.145" cy="174.658" r="5.88735"/><circle cx="362.075" cy="190.358" r="5.88735"/><circle cx="342.446" cy="164.845" r="5.88735"/><circle cx="346.372" cy="180.546" r="5.88735"/><circle cx="328.712" cy="193.301" r="5.88735"/><circle cx="331.653" cy="207.039" r="5.88735"/><circle cx="335.579" cy="222.737" r="5.88735"/><circle cx="347.356" cy="209.982" r="5.88735"/><circle cx="350.294" cy="223.719" r="5.88735"/><circle cx="338.524" cy="182.508" r="5.88735"/><circle cx="384.641" cy="229.606" r="5.88735"/><circle cx="345.387" cy="211.945" r="5.88735"/><circle cx="325.766" cy="186.433" r="5.88735"/><circle cx="329.692" cy="202.131" r="5.88735"/><circle cx="314.969" cy="213.907" r="5.88735"/><circle cx="317.915" cy="227.645" r="5.88735"/><circle cx="321.84" cy="243.342" r="5.88735"/><circle cx="333.618" cy="230.588" r="5.88735"/><circle cx="336.559" cy="244.325" r="5.88735"/><circle cx="324.786" cy="203.114" r="5.88735"/><circle cx="327.727" cy="216.851" r="5.88735"/><circle cx="331.653" cy="232.55" r="5.88735"/><circle cx="312.028" cy="207.039" r="5.88735"/><circle cx="315.958" cy="222.737" r="5.88735"/><circle cx="281.61" cy="218.814" r="5.88735"/><circle cx="284.555" cy="232.55" r="5.88735"/><circle cx="288.481" cy="248.251" r="5.88735"/><circle cx="300.255" cy="235.495" r="5.88735"/><circle cx="303.2" cy="249.231" r="5.88735"/><circle cx="291.423" cy="208.019" r="5.88735"/><circle cx="294.368" cy="221.756" r="5.88735"/><circle cx="298.294" cy="237.457" r="5.88735"/><circle cx="278.665" cy="211.945" r="5.88735"/><circle cx="282.594" cy="227.645" r="5.88735"/><circle cx="304.176" cy="206.056" r="5.88735"/><circle cx="307.126" cy="219.795" r="5.88735"/><circle cx="311.051" cy="235.495" r="5.88735"/><circle cx="322.821" cy="222.737" r="5.88735"/><circle cx="325.766" cy="236.474" r="5.88735"/><circle cx="313.989" cy="195.263" r="5.88735"/><circle cx="316.934" cy="209.001" r="5.88735"/><circle cx="320.864" cy="224.7" r="5.88735"/><circle cx="301.231" cy="199.188" r="5.88735"/><circle cx="305.161" cy="214.888" r="5.88735"/><circle cx="262.965" cy="210.964" r="5.88735"/><circle cx="265.915" cy="224.7" r="5.88735"/><circle cx="269.84" cy="240.4" r="5.88735"/><circle cx="281.61" cy="227.645" r="5.88735"/><circle cx="284.555" cy="241.382" r="5.88735"/><circle cx="272.778" cy="200.171" r="5.88735"/><circle cx="275.723" cy="213.907" r="5.88735"/><circle cx="279.653" cy="229.606" r="5.88735"/><circle cx="260.02" cy="204.094" r="5.88735"/><circle cx="263.95" cy="219.795" r="5.88735"/><circle cx="255.118" cy="175.64" r="5.88735"/><circle cx="204.094" cy="189.377" r="5.88735"/><circle cx="261.989" cy="205.077" r="5.88735"/><circle cx="273.758" cy="192.32" r="5.88735"/><circle cx="276.704" cy="206.056" r="5.88735"/><circle cx="241.383" cy="105.973" r="5.88735"/><circle cx="267.872" cy="178.583" r="5.88735"/><circle cx="271.801" cy="194.283" r="5.88735"/><circle cx="252.176" cy="168.77" r="5.88735"/><circle cx="219.794" cy="166.808" r="5.88735"/><circle cx="276.704" cy="153.072" r="5.88735"/><circle cx="279.653" cy="166.808" r="5.88735"/><circle cx="283.575" cy="182.508" r="5.88735"/><circle cx="295.348" cy="169.752" r="5.88735"/><circle cx="222.739" cy="146.202" r="5.88735"/><circle cx="286.516" cy="142.277" r="5.88735"/><circle cx="289.462" cy="156.014" r="5.88735"/><circle cx="262.965" cy="140.315" r="5.88735"/><circle cx="273.758" cy="146.202" r="5.88735"/><circle cx="283.575" cy="101.065" r="5.88735"/><circle cx="329.692" cy="149.146" r="5.88735"/><circle cx="332.633" cy="162.882" r="5.88735"/><circle cx="336.559" cy="178.583" r="5.88735"/><circle cx="348.337" cy="165.828" r="5.88735"/><circle cx="351.282" cy="179.565" r="5.88735"/><circle cx="339.505" cy="138.352" r="5.88735"/><circle cx="342.446" cy="152.09" r="5.88735"/><circle cx="346.372" cy="167.791" r="5.88735"/><circle cx="326.751" cy="142.277" r="5.88735"/><circle cx="340.485" cy="122.654" r="5.88735"/><circle cx="469.024" cy="88.3102" r="5.88735"/><circle cx="253.157" cy="157.977" r="5.88735"/><circle cx="248.251" cy="165.828" r="5.88735"/><circle cx="245.305" cy="174.658" r="5.88735"/><circle cx="243.344" cy="182.508" r="5.88735"/><circle cx="243.344" cy="191.339" r="5.88735"/><circle cx="244.329" cy="200.171" r="5.88735"/><circle cx="246.286" cy="209.001" r="5.88735"/><circle cx="248.251" cy="217.832" r="5.88735"/><circle cx="253.157" cy="225.682" r="5.88735"/><circle cx="258.063" cy="233.532" r="5.88735"/><circle cx="264.926" cy="240.4" r="5.88735"/><circle cx="270.817" cy="245.305" r="5.88735"/><circle cx="279.653" cy="249.231" r="5.88735"/><circle cx="288.481" cy="252.174" r="5.88735"/><circle cx="298.294" cy="254.137" r="5.88735"/><circle cx="307.126" cy="254.137" r="5.88735"/><circle cx="314.969" cy="253.156" r="5.88735"/><circle cx="323.809" cy="252.174" r="5.88735"/><circle cx="331.653" cy="249.231" r="5.88735"/><circle cx="338.524" cy="245.305" r="5.88735"/><circle cx="344.411" cy="240.4" r="5.88735"/><circle cx="350.294" cy="234.513" r="5.88735"/><circle cx="355.2" cy="229.606" r="5.88735"/><circle cx="361.09" cy="223.719" r="5.88735"/><circle cx="364.032" cy="219.795" r="5.88735"/><circle cx="366.977" cy="212.926" r="5.88735"/><circle cx="368.938" cy="202.131" r="5.88735"/><circle cx="369.923" cy="191.339" r="5.88735"/><circle cx="367.962" cy="182.508" r="5.88735"/><circle cx="396.415" cy="141.297" r="5.88735"/><ellipse cx="364.032" cy="166.318" rx="5.88735" ry="5.39674"/><ellipse cx="362.075" cy="158.468" rx="5.88735" ry="5.39674"/><ellipse cx="356.184" cy="150.618" rx="5.88735" ry="5.39674"/><ellipse cx="349.317" cy="143.749" rx="5.88735" ry="5.39674"/><ellipse cx="343.43" cy="137.862" rx="5.88735" ry="5.39674"/><ellipse cx="335.579" cy="133.938" rx="5.88735" ry="5.39674"/><ellipse cx="326.751" cy="130.012" rx="5.88735" ry="5.39674"/><ellipse cx="314.969" cy="129.032" rx="5.88735" ry="5.39674"/><circle cx="305.655" cy="127.069" r="5.39674"/><circle cx="298.783" cy="129.032" r="5.39674"/><circle cx="290.932" cy="130.012" r="5.39674"/><circle cx="283.084" cy="131.975" r="5.39674"/><circle cx="277.198" cy="133.938" r="5.39674"/><circle cx="272.287" cy="139.824" r="5.39674"/><circle cx="266.405" cy="142.769" r="5.39674"/><circle cx="261.498" cy="146.694" r="5.39674"/><circle cx="257.573" cy="150.618" r="5.39674"/></g></svg>