<svg width="146" height="36" fill="none" xmlns="http://www.w3.org/2000/svg"><path d="M52.307 28.16h2.46c.452 0 .706-.282.82-.562l1.385-3.032h8.454l1.385 3.032c.198.393.396.561.82.561h2.46c.424 0 .65-.365.48-.73L61.864 8.926c-.084-.168-.198-.309-.48-.309H61.1c-.255 0-.396.14-.48.309l-8.794 18.503c-.17.365.057.73.48.73zm6.05-6.71l2.771-6.176h.085l2.827 6.176h-5.683zm19.88 6.176c0 .28.225.533.536.533h10.349a.535.535 0 0 0 .537-.533v-2.302a.535.535 0 0 0-.538-.533h-7.21V9.043a.554.554 0 0 0-.537-.534h-2.6a.535.535 0 0 0-.538.534v18.583zm18.038 0c0 .28.254.533.537.533h2.63a.554.554 0 0 0 .537-.533V9.043a.554.554 0 0 0-.538-.534h-2.63a.554.554 0 0 0-.536.534v18.583zm11.527-9.264c0 5.615 4.552 10.078 10.207 10.078 2.516 0 4.948-.87 6.871-2.723.197-.197.254-.561.028-.758l-1.753-1.796a.524.524 0 0 0-.707 0c-1.187.954-2.629 1.6-4.326 1.6-3.619 0-6.333-2.976-6.333-6.485 0-3.537 2.686-6.54 6.305-6.54 1.583 0 3.167.617 4.354 1.656.226.224.509.224.707 0l1.725-1.769a.52.52 0 0 0-.029-.786c-1.922-1.712-3.986-2.61-6.842-2.61-5.655 0-10.207 4.519-10.207 10.133zm24.876 9.264c0 .28.227.533.538.533h11.507a.535.535 0 0 0 .537-.533v-2.302a.535.535 0 0 0-.537-.533h-8.369v-4.913h6.984a.535.535 0 0 0 .537-.533v-2.33a.555.555 0 0 0-.537-.534h-6.984v-4.603h8.369a.535.535 0 0 0 .537-.534V9.043a.535.535 0 0 0-.537-.534h-11.507a.536.536 0 0 0-.538.534v18.583z" fill="#fff"/><g clip-path="url(#clip0)"><rect opacity=".45" width="10.639" height="34.995" rx="5.319" transform="matrix(-.891 -.45399 -.454 .891 25.367 4.83)" fill="#F1C40F"/><rect opacity=".45" x="11.121" y="4.83" width="10.639" height="34.995" rx="5.319" transform="rotate(-27 11.121 4.83)" fill="#358EFE"/><ellipse cx="18.238" cy="7.145" rx="5.339" ry="5.339" fill="#3CBA7A"/><ellipse cx="29.316" cy="28.824" rx="5.339" ry="5.339" fill="#AB49C9"/><ellipse cx="7.156" cy="28.824" rx="5.339" ry="5.339" fill="#F1C40F"/></g><defs><clipPath id="clip0"><path fill="#fff" d="M0 0H36.482V36H0z"/></clipPath></defs></svg>