<svg width="130" height="32" fill="none" xmlns="http://www.w3.org/2000/svg"><path d="M46.497 25.03h2.187c.402 0 .628-.249.729-.498l1.23-2.695h7.515l1.232 2.695c.176.349.352.499.729.499h2.186c.377 0 .578-.325.428-.65L54.992 7.935c-.076-.15-.176-.274-.427-.274h-.252c-.226 0-.352.125-.427.274L46.07 24.382c-.15.324.05.649.427.649zm5.378-5.963l2.463-5.49h.076l2.513 5.49h-5.052zm17.67 5.49c0 .25.201.474.478.474h9.198a.475.475 0 0 0 .478-.474V22.51a.475.475 0 0 0-.478-.475h-6.408V8.038a.493.493 0 0 0-.478-.474h-2.312a.475.475 0 0 0-.478.474v16.519zm16.035 0c0 .25.226.474.477.474h2.337a.493.493 0 0 0 .478-.474V8.038a.493.493 0 0 0-.478-.474h-2.337a.493.493 0 0 0-.477.474v16.519zm10.246-8.235c0 4.99 4.047 8.958 9.073 8.958 2.237 0 4.398-.773 6.107-2.42.176-.175.226-.5.025-.674l-1.558-1.597a.465.465 0 0 0-.628 0c-1.056.849-2.337 1.422-3.845 1.422-3.217 0-5.63-2.645-5.63-5.764 0-3.144 2.388-5.813 5.604-5.813 1.408 0 2.815.549 3.871 1.472.201.2.452.2.628 0l1.533-1.572c.201-.2.201-.5-.025-.699-1.709-1.522-3.544-2.32-6.082-2.32-5.026 0-9.073 4.017-9.073 9.007zm22.113 8.235c0 .25.201.474.477.474h10.229a.475.475 0 0 0 .477-.474V22.51a.475.475 0 0 0-.477-.475h-7.439V17.67h6.207c.252 0 .478-.2.478-.474v-2.072a.492.492 0 0 0-.478-.474h-6.207v-4.092h7.439a.475.475 0 0 0 .477-.474V8.038a.475.475 0 0 0-.477-.474h-10.229a.475.475 0 0 0-.477.474v16.519z" fill="#5D6C7C"/><g clip-path="url(#clip0)"><rect opacity=".45" width="9.457" height="31.107" rx="4.728" transform="matrix(-.891 -.45399 -.454 .891 22.547 4.293)" fill="#F1C40F"/><rect opacity=".45" x="9.887" y="4.293" width="9.457" height="31.107" rx="4.728" transform="rotate(-27 9.887 4.293)" fill="#358EFE"/><ellipse cx="16.211" cy="6.352" rx="4.746" ry="4.746" fill="#3CBA7A"/><ellipse cx="26.059" cy="25.621" rx="4.746" ry="4.746" fill="#AB49C9"/><ellipse cx="6.359" cy="25.621" rx="4.746" ry="4.746" fill="#F1C40F"/></g><defs><clipPath id="clip0"><path fill="#fff" d="M0 0H32.428V32H0z"/></clipPath></defs></svg>