<svg fill="none" height="327" viewBox="0 0 333 327" width="333" xmlns="http://www.w3.org/2000/svg"><g fill="#f1c40f"><circle cx="103.313" cy="243.406" r="3.75434"/><circle cx="105.192" cy="252.165" r="3.75434"/><circle cx="107.696" cy="262.177" r="3.75434"/><circle cx="112.7" cy="242.155" r="3.75434"/><circle cx="114.579" cy="250.914" r="3.75434"/><circle cx="117.079" cy="260.927" r="3.75434"/><circle cx="124.59" cy="252.791" r="3.75434"/><circle cx="126.465" cy="261.552" r="3.75434"/><circle cx="128.969" cy="271.563" r="3.75434"/><circle cx="118.961" cy="235.272" r="3.75434"/><circle cx="120.836" cy="244.033" r="3.75434"/><circle cx="123.336" cy="254.043" r="3.75434"/><circle cx="108.946" cy="229.015" r="3.75434"/><circle cx="110.825" cy="237.774" r="3.75434"/><circle cx="113.325" cy="247.786" r="3.75434"/><circle cx="136.477" cy="242.155" r="3.75434"/><circle cx="138.356" cy="250.914" r="3.75434"/><circle cx="140.856" cy="260.927" r="3.75434"/><circle cx="148.368" cy="252.791" r="3.75434"/><circle cx="150.243" cy="261.552" r="3.75434"/><circle cx="142.735" cy="235.272" r="3.75434"/><circle cx="144.614" cy="244.033" r="3.75434"/><circle cx="147.114" cy="254.043" r="3.75434"/><circle cx="134.602" cy="237.774" r="3.75434"/><circle cx="137.102" cy="247.786" r="3.75434"/><circle cx="123.965" cy="229.015" r="3.75434"/><circle cx="125.84" cy="237.774" r="3.75434"/><circle cx="128.34" cy="247.786" r="3.75434"/><circle cx="135.852" cy="239.651" r="3.75434"/><circle cx="137.727" cy="248.413" r="3.75434"/><circle cx="130.223" cy="222.131" r="3.75434"/><circle cx="132.098" cy="230.892" r="3.75434"/><circle cx="134.602" cy="240.904" r="3.75434"/><circle cx="122.086" cy="224.634" r="3.75434"/><circle cx="124.59" cy="234.647" r="3.75434"/><circle cx="133.977" cy="220.879" r="3.75434"/><circle cx="135.852" cy="229.64" r="3.75434"/><circle cx="138.356" cy="239.651" r="3.75434"/><circle cx="145.864" cy="231.517" r="3.75434"/><circle cx="147.739" cy="240.278" r="3.75434"/><circle cx="140.231" cy="213.998" r="3.75434"/><circle cx="142.11" cy="222.757" r="3.75434"/><circle cx="144.614" cy="232.769" r="3.75434"/><circle cx="132.098" cy="216.5" r="3.75434"/><circle cx="134.602" cy="226.512" r="3.75434"/><circle cx="148.993" cy="229.015" r="3.75434"/><circle cx="150.872" cy="237.774" r="3.75434"/><circle cx="153.375" cy="247.786" r="3.75434"/><circle cx="160.879" cy="239.651" r="3.75434"/><circle cx="162.754" cy="248.413" r="3.75434"/><circle cx="155.25" cy="222.131" r="3.75434"/><circle cx="157.125" cy="230.892" r="3.75434"/><circle cx="159.629" cy="240.904" r="3.75434"/><circle cx="147.114" cy="224.634" r="3.75434"/><circle cx="149.618" cy="234.647" r="3.75434"/><circle cx="160.258" cy="235.898" r="3.75434"/><circle cx="162.133" cy="244.658" r="3.75434"/><circle cx="164.637" cy="254.668" r="3.75434"/><circle cx="172.141" cy="246.535" r="3.75434"/><circle cx="174.02" cy="255.295" r="3.75434"/><circle cx="166.512" cy="229.015" r="3.75434"/><circle cx="168.391" cy="237.774" r="3.75434"/><circle cx="170.891" cy="247.786" r="3.75434"/><circle cx="158.379" cy="231.517" r="3.75434"/><circle cx="160.879" cy="241.529" r="3.75434"/><circle cx="149.618" cy="249.664" r="3.75434"/><circle cx="151.493" cy="258.423" r="3.75434"/><circle cx="154" cy="268.436" r="3.75434"/><circle cx="161.504" cy="260.301" r="3.75434"/><circle cx="163.383" cy="269.061" r="3.75434"/><circle cx="155.875" cy="242.78" r="3.75434"/><circle cx="192.164" cy="243.406" r="3.75434"/><circle cx="184.036" cy="270.313" r="3.75434"/><circle cx="148.993" cy="322.247" r="3.75434"/><circle cx="150.243" cy="255.295" r="3.75434"/><circle cx="140.856" cy="262.804" r="3.75434"/><circle cx="142.735" cy="271.563" r="3.75434"/><circle cx="145.239" cy="281.575" r="3.75434"/><circle cx="152.747" cy="273.44" r="3.75434"/><circle cx="154.622" cy="282.2" r="3.75434"/><circle cx="190.914" cy="266.558" r="3.75434"/><circle cx="175.274" cy="289.084" r="3.75434"/><circle cx="151.493" cy="274.692" r="3.75434"/><circle cx="138.981" cy="258.423" r="3.75434"/><circle cx="141.485" cy="268.436" r="3.75434"/><circle cx="119.582" cy="265.932" r="3.75434"/><circle cx="121.457" cy="274.692" r="3.75434"/><circle cx="123.965" cy="284.703" r="3.75434"/><circle cx="131.473" cy="276.57" r="3.75434"/><circle cx="133.348" cy="285.33" r="3.75434"/><circle cx="50.7543" cy="286.581" r="3.75434"/><circle cx="3.75434" cy="299.754" r="3.75434"/><circle cx="127.715" cy="267.809" r="3.75434"/><circle cx="130.223" cy="277.822" r="3.75434"/><circle cx="117.704" cy="261.552" r="3.75434"/><circle cx="120.207" cy="271.563" r="3.75434"/><circle cx="133.977" cy="257.798" r="3.75434"/><circle cx="135.852" cy="266.558" r="3.75434"/><circle cx="138.356" cy="276.57" r="3.75434"/><circle cx="145.864" cy="268.436" r="3.75434"/><circle cx="147.739" cy="277.195" r="3.75434"/><circle cx="140.231" cy="250.914" r="3.75434"/><circle cx="142.11" cy="259.674" r="3.75434"/><circle cx="144.614" cy="269.686" r="3.75434"/><circle cx="171.52" cy="303.475" r="3.75434"/><circle cx="134.602" cy="263.429" r="3.75434"/><circle cx="107.696" cy="260.927" r="3.75434"/><circle cx="109.571" cy="269.686" r="3.75434"/><circle cx="112.075" cy="279.699" r="3.75434"/><circle cx="119.582" cy="271.563" r="3.75434"/><circle cx="121.457" cy="280.325" r="3.75434"/><circle cx="113.954" cy="254.043" r="3.75434"/><circle cx="115.829" cy="262.804" r="3.75434"/><circle cx="118.332" cy="272.816" r="3.75434"/><circle cx="105.817" cy="256.546" r="3.75434"/><circle cx="108.321" cy="266.558" r="3.75434"/><circle cx="102.688" cy="238.402" r="3.75434"/><circle cx="104.567" cy="247.161" r="3.75434"/><circle cx="107.067" cy="257.172" r="3.75434"/><circle cx="114.579" cy="249.037" r="3.75434"/><circle cx="108.946" cy="231.517" r="3.75434"/><circle cx="83.9145" cy="236.524" r="3.75434"/><circle cx="113.325" cy="250.289" r="3.75434"/><circle cx="100.813" cy="234.02" r="3.75434"/><circle cx="103.313" cy="244.033" r="3.75434"/><circle cx="116.454" cy="224.009" r="3.75434"/><circle cx="118.332" cy="232.769" r="3.75434"/><circle cx="120.836" cy="242.78" r="3.75434"/><circle cx="128.34" cy="234.647" r="3.75434"/><circle cx="122.711" cy="285.33" r="3.75434"/><circle cx="122.711" cy="217.125" r="3.75434"/><circle cx="124.59" cy="225.887" r="3.75434"/><circle cx="93.9262" cy="295.341" r="3.75434"/><circle cx="73.7543" cy="321.754" r="3.75434"/><circle cx="114.579" cy="219.629" r="3.75434"/><circle cx="110.825" cy="252.165" r="3.75434"/><circle cx="150.243" cy="221.506" r="3.75434"/><circle cx="152.122" cy="230.265" r="3.75434"/><circle cx="158.379" cy="265.307" r="3.75434"/><circle cx="162.133" cy="232.143" r="3.75434"/><circle cx="187.161" cy="236.524" r="3.75434"/><circle cx="156.5" cy="214.622" r="3.75434"/><circle cx="158.379" cy="223.384" r="3.75434"/><circle cx="160.879" cy="233.395" r="3.75434"/><circle cx="148.368" cy="217.125" r="3.75434"/><circle cx="150.872" cy="227.137" r="3.75434"/><circle cx="117.704" cy="201.483" r="3.75434"/><circle cx="122.086" cy="190.845" opacity=".5" r="3.75434"/><circle cx="139.606" cy="188.967" opacity=".5" r="3.75434"/><circle cx="140.856" cy="177.08" opacity=".5" r="3.75434"/><circle cx="150.243" cy="168.945" opacity=".5" r="3.75434"/><circle cx="156.5" cy="155.179" opacity=".5" r="3.75434"/><circle cx="165.887" cy="139.536" opacity=".5" r="3.75434"/><circle cx="177.778" cy="138.911" opacity=".5" r="3.75434"/><circle cx="166.512" cy="128.273" opacity=".5" r="3.75434"/><circle cx="179.653" cy="119.513" opacity=".5" r="3.75434"/><circle cx="182.153" cy="108.876" opacity=".5" r="3.75434"/><circle cx="192.164" cy="125.144" opacity=".5" r="3.75434"/><circle cx="186.536" cy="147.671" opacity=".5" r="3.75434"/><circle cx="180.278" cy="130.777" opacity=".5" r="3.75434"/><circle cx="201.555" cy="145.793" opacity=".5" r="3.75434"/><circle cx="180.278" cy="171.448" opacity=".5" r="3.75434"/><circle cx="165.262" cy="177.706" opacity=".5" r="3.75434"/><circle cx="177.149" cy="177.08" opacity=".5" r="3.75434"/><circle cx="165.887" cy="166.442" opacity=".5" r="3.75434"/><circle cx="219.071" cy="203.986" opacity=".5" r="3.75434"/><circle cx="185.911" cy="185.839" opacity=".5" r="3.75434"/><circle cx="179.653" cy="168.945" opacity=".5" r="3.75434"/><circle cx="179.653" cy="209.617" opacity=".5" r="3.75434"/><circle cx="186.536" cy="167.694" opacity=".5" r="3.75434"/><circle cx="198.426" cy="167.069" opacity=".5" r="3.75434"/><circle cx="187.161" cy="156.43" opacity=".5" r="3.75434"/><circle cx="200.301" cy="147.671" opacity=".5" r="3.75434"/><circle cx="207.184" cy="175.828" opacity=".5" r="3.75434"/><circle cx="200.926" cy="158.934" opacity=".5" r="3.75434"/><circle cx="156.5" cy="163.314" opacity=".5" r="3.75434"/><circle cx="180.278" cy="150.799" opacity=".5" r="3.75434"/><circle cx="192.164" cy="150.174" opacity=".5" r="3.75434"/><circle cx="180.903" cy="139.536" opacity=".5" r="3.75434"/><circle cx="194.043" cy="130.777" opacity=".5" r="3.75434"/><circle cx="200.926" cy="158.934" opacity=".5" r="3.75434"/><circle cx="194.672" cy="142.039" opacity=".5" r="3.75434"/><circle cx="194.672" cy="182.71" opacity=".5" r="3.75434"/><circle cx="151.493" cy="170.197" opacity=".5" r="3.75434"/><circle cx="163.383" cy="169.572" opacity=".5" r="3.75434"/><circle cx="152.122" cy="158.934" opacity=".5" r="3.75434"/><circle cx="53.8793" cy="145.793" opacity=".5" r="3.75434"/><circle cx="165.262" cy="150.174" opacity=".5" r="3.75434"/><circle cx="172.141" cy="178.331" opacity=".5" r="3.75434"/><circle cx="165.887" cy="161.436" opacity=".5" r="3.75434"/><circle cx="165.887" cy="202.109" opacity=".5" r="3.75434"/><circle cx="128.34" cy="181.459" opacity=".5" r="3.75434"/><circle cx="134.602" cy="165.817" opacity=".5" r="3.75434"/><circle cx="141.485" cy="156.43" opacity=".5" r="3.75434"/><circle cx="88.9223" cy="178.956" opacity=".5" r="3.75434"/><circle cx="146.489" cy="142.665" opacity=".5" r="3.75434"/><circle cx="150.872" cy="202.734" r="3.75434"/><circle cx="160.258" cy="194.599" r="3.75434"/><circle cx="166.512" cy="180.833" opacity=".5" r="3.75434"/><circle cx="166.512" cy="188.967" opacity=".5" r="3.75434"/><circle cx="161.504" cy="195.851" opacity=".5" r="3.75434"/><circle cx="162.133" cy="184.588" opacity=".5" r="3.75434"/><circle cx="144.614" cy="191.47" opacity=".5" r="3.75434"/><circle cx="151.493" cy="182.085" opacity=".5" r="3.75434"/><circle cx="156.5" cy="168.32" opacity=".5" r="3.75434"/><circle cx="176.524" cy="217.751" r="3.75434"/><circle cx="185.911" cy="209.617" opacity=".5" r="3.75434"/><circle cx="192.164" cy="195.851" opacity=".5" r="3.75434"/><circle cx="192.164" cy="203.986" opacity=".5" r="3.75434"/><circle cx="187.161" cy="210.869" opacity=".5" r="3.75434"/><circle cx="187.789" cy="199.606" opacity=".5" r="3.75434"/><circle cx="170.266" cy="206.489" opacity=".5" r="3.75434"/><circle cx="177.149" cy="197.103" opacity=".5" r="3.75434"/><circle cx="182.153" cy="183.336" opacity=".5" r="3.75434"/><circle cx="174.02" cy="238.402" r="3.75434"/><circle cx="183.407" cy="230.265" r="3.75434"/><circle cx="189.664" cy="216.5" opacity=".5" r="3.75434"/><circle cx="189.664" cy="224.634" opacity=".5" r="3.75434"/><circle cx="184.657" cy="231.517" opacity=".5" r="3.75434"/><circle cx="185.282" cy="220.254" opacity=".5" r="3.75434"/><circle cx="167.766" cy="227.137" r="3.75434"/><circle cx="174.649" cy="217.751" opacity=".5" r="3.75434"/><circle cx="179.653" cy="203.986" opacity=".5" r="3.75434"/><circle cx="193.418" cy="194.599" opacity=".5" r="3.75434"/><circle cx="202.805" cy="186.465" opacity=".5" r="3.75434"/><circle cx="209.063" cy="172.7" opacity=".5" r="3.75434"/><circle cx="209.063" cy="180.833" opacity=".5" r="3.75434"/><circle cx="204.055" cy="187.717" opacity=".5" r="3.75434"/><circle cx="204.68" cy="176.454" opacity=".5" r="3.75434"/><circle cx="187.161" cy="183.336" opacity=".5" r="3.75434"/><circle cx="194.043" cy="173.951" opacity=".5" r="3.75434"/><circle cx="199.051" cy="160.185" opacity=".5" r="3.75434"/><circle cx="198.426" cy="170.197" opacity=".5" r="3.75434"/><circle cx="207.809" cy="162.062" opacity=".5" r="3.75434"/><circle cx="214.067" cy="148.296" opacity=".5" r="3.75434"/><circle cx="214.067" cy="156.43" opacity=".5" r="3.75434"/><circle cx="209.063" cy="163.314" opacity=".5" r="3.75434"/><circle cx="209.688" cy="152.05" opacity=".5" r="3.75434"/><circle cx="192.164" cy="158.934" opacity=".5" r="3.75434"/><circle cx="199.051" cy="149.547" opacity=".5" r="3.75434"/><circle cx="204.055" cy="135.782" opacity=".5" r="3.75434"/><circle cx="128.969" cy="124.518" opacity=".5" r="3.75434"/><circle cx="222.204" cy="167.069" opacity=".5" r="3.75434"/></g><circle cx="239.723" cy="165.191" fill="#358efe" opacity=".4" r="3.75434"/><circle cx="240.973" cy="153.302" fill="#358efe" opacity=".4" r="3.75434"/><circle cx="250.36" cy="145.168" fill="#358efe" opacity=".4" r="3.75434"/><circle cx="256.618" cy="131.402" fill="#358efe" opacity=".4" r="3.75434"/><circle cx="266.004" cy="115.759" fill="#358efe" opacity=".4" r="3.75434"/><circle cx="277.891" cy="115.132" fill="#358efe" opacity=".4" r="3.75434"/><circle cx="266.629" cy="104.496" fill="#358efe" opacity=".4" r="3.75434"/><circle cx="279.766" cy="95.7358" fill="#358efe" opacity=".4" r="3.75434"/><circle cx="292.282" cy="101.368" fill="#358efe" opacity=".4" r="3.75434"/><circle cx="286.653" cy="123.893" fill="#358efe" opacity=".4" r="3.75434"/><circle cx="280.395" cy="106.998" fill="#358efe" opacity=".4" r="3.75434"/><circle cx="301.668" cy="122.016" fill="#358efe" opacity=".4" r="3.75434"/><circle cx="280.395" cy="147.671" fill="#358efe" opacity=".4" r="3.75434"/><circle cx="265.375" cy="153.928" fill="#358efe" opacity=".4" r="3.75434"/><circle cx="277.266" cy="153.302" fill="#358efe" opacity=".4" r="3.75434"/><circle cx="266.004" cy="142.665" fill="#358efe" opacity=".4" r="3.75434"/><circle cx="279.141" cy="133.905" fill="#358efe" opacity=".4" r="3.75434"/><circle cx="286.028" cy="162.062" fill="#358efe" opacity=".4" r="3.75434"/><circle cx="279.766" cy="145.168" fill="#358efe" opacity=".4" r="3.75434"/><circle cx="325.446" cy="155.805" fill="#358efe" opacity=".4" r="3.75434"/><circle cx="298.539" cy="143.29" fill="#358efe" opacity=".4" r="3.75434"/><circle cx="287.278" cy="132.654" fill="#358efe" opacity=".4" r="3.75434"/><circle cx="300.418" cy="123.893" fill="#358efe" opacity=".4" r="3.75434"/><circle cx="301.043" cy="135.157" fill="#358efe" opacity=".4" r="3.75434"/><circle cx="237.219" cy="133.28" fill="#358efe" opacity=".4" r="3.75434"/><circle cx="280.395" cy="127.022" fill="#358efe" opacity=".4" r="3.75434"/><circle cx="292.282" cy="126.396" fill="#358efe" opacity=".4" r="3.75434"/><circle cx="281.02" cy="115.759" fill="#358efe" opacity=".4" r="3.75434"/><circle cx="294.161" cy="106.998" fill="#358efe" opacity=".4" r="3.75434"/><circle cx="301.043" cy="135.157" fill="#358efe" opacity=".4" r="3.75434"/><circle cx="294.786" cy="118.262" fill="#358efe" opacity=".4" r="3.75434"/><circle cx="294.786" cy="158.934" fill="#358efe" opacity=".4" r="3.75434"/><circle cx="251.614" cy="146.418" fill="#358efe" opacity=".4" r="3.75434"/><circle cx="263.5" cy="145.793" fill="#358efe" opacity=".4" r="3.75434"/><circle cx="245.977" cy="132.654" fill="#358efe" opacity=".4" r="3.75434"/><circle cx="265.375" cy="126.396" fill="#358efe" opacity=".4" r="3.75434"/><circle cx="272.887" cy="141.414" fill="#358efe" opacity=".4" r="3.75434"/><circle cx="275.387" cy="108.25" fill="#358efe" opacity=".4" r="3.75434"/><circle cx="225.954" cy="142.665" fill="#358efe" opacity=".4" r="3.75434"/><circle cx="234.715" cy="142.039" fill="#358efe" opacity=".4" r="3.75434"/><circle cx="219.696" cy="125.77" fill="#358efe" opacity=".4" r="3.75434"/><circle cx="214.692" cy="120.139" fill="#358efe" opacity=".4" r="3.75434"/><circle cx="229.711" cy="118.262" fill="#358efe" opacity=".4" r="3.75434"/><circle cx="246.606" cy="118.887" fill="#358efe" opacity=".4" r="3.75434"/><circle cx="254.739" cy="122.016" fill="#358efe" opacity=".4" r="3.75434"/><circle cx="277.266" cy="83.2202" fill="#358efe" opacity=".4" r="3.75434"/><circle cx="260.368" cy="170.822" fill="#358efe" opacity=".4" r="3.75434"/><circle cx="266.629" cy="157.056" fill="#358efe" opacity=".4" r="3.75434"/><circle cx="266.629" cy="165.191" fill="#358efe" opacity=".4" r="3.75434"/><circle cx="261.625" cy="172.074" fill="#358efe" opacity=".4" r="3.75434"/><circle cx="262.25" cy="160.811" fill="#358efe" opacity=".4" r="3.75434"/><circle cx="244.727" cy="167.694" fill="#358efe" opacity=".4" r="3.75434"/><circle cx="251.614" cy="158.307" fill="#358efe" opacity=".4" r="3.75434"/><circle cx="256.618" cy="144.541" fill="#358efe" opacity=".4" r="3.75434"/><circle cx="292.282" cy="172.074" fill="#358efe" opacity=".4" r="3.75434"/><circle cx="277.266" cy="173.325" fill="#358efe" opacity=".4" r="3.75434"/><circle cx="282.27" cy="159.559" fill="#358efe" opacity=".4" r="3.75434"/><circle cx="293.532" cy="170.822" fill="#358efe" opacity=".4" r="3.75434"/><circle cx="302.918" cy="162.688" fill="#358efe" opacity=".4" r="3.75434"/><circle cx="304.172" cy="163.939" fill="#358efe" opacity=".4" r="3.75434"/><circle cx="304.797" cy="152.676" fill="#358efe" opacity=".4" r="3.75434"/><circle cx="287.278" cy="159.559" fill="#358efe" opacity=".4" r="3.75434"/><circle cx="294.161" cy="150.174" fill="#358efe" opacity=".4" r="3.75434"/><circle cx="299.164" cy="136.408" fill="#358efe" opacity=".4" r="3.75434"/><circle cx="298.539" cy="146.418" fill="#358efe" opacity=".4" r="3.75434"/><circle cx="292.282" cy="135.157" fill="#358efe" opacity=".4" r="3.75434"/><circle cx="299.164" cy="125.77" fill="#358efe" opacity=".4" r="3.75434"/><circle cx="304.172" cy="112.004" fill="#358efe" opacity=".4" r="3.75434"/><circle cx="252.864" cy="108.25" fill="#358efe" opacity=".4" r="3.75434"/><circle cx="245.977" cy="215.873" fill="#358efe" opacity=".4" r="3.75434"/><circle cx="240.973" cy="198.981" fill="#358efe" opacity=".4" r="3.75434"/><circle cx="242.227" cy="187.091" fill="#358efe" opacity=".4" r="3.75434"/><circle cx="251.614" cy="178.956" fill="#358efe" opacity=".4" r="3.75434"/><circle cx="257.868" cy="165.191" fill="#358efe" opacity=".4" r="3.75434"/><circle cx="271.008" cy="134.53" fill="#358efe" opacity=".4" r="3.75434"/><circle cx="240.348" cy="126.396" fill="#358efe" opacity=".4" r="3.75434"/><circle cx="275.387" cy="124.518" fill="#358efe" opacity=".4" r="3.75434"/><circle cx="329.2" cy="106.998" fill="#358efe" opacity=".4" r="3.75434"/><circle cx="309.176" cy="189.595" fill="#358efe" opacity=".4" r="3.75434"/><circle cx="281.645" cy="140.788" fill="#358efe" opacity=".4" r="3.75434"/><circle cx="302.918" cy="155.805" fill="#358efe" opacity=".4" r="3.75434"/><circle cx="281.645" cy="181.459" fill="#358efe" opacity=".4" r="3.75434"/><circle cx="266.629" cy="187.717" fill="#358efe" opacity=".4" r="3.75434"/><circle cx="278.516" cy="187.091" fill="#358efe" opacity=".4" r="3.75434"/><circle cx="267.254" cy="176.454" fill="#358efe" opacity=".4" r="3.75434"/><circle cx="280.395" cy="167.694" fill="#358efe" opacity=".4" r="3.75434"/><circle cx="287.278" cy="195.851" fill="#358efe" opacity=".4" r="3.75434"/><circle cx="314.184" cy="189.595" fill="#358efe" opacity=".4" r="3.75434"/><circle cx="265.375" cy="217.751" fill="#358efe" opacity=".4" r="3.75434"/><circle cx="299.789" cy="177.08" fill="#358efe" opacity=".4" r="3.75434"/><circle cx="331.079" cy="187.717" fill="#358efe" opacity=".4" r="3.75434"/><circle cx="301.668" cy="157.683" fill="#358efe" opacity=".4" r="3.75434"/><circle cx="302.293" cy="168.945" fill="#358efe" opacity=".4" r="3.75434"/><circle cx="230.332" cy="200.857" fill="#358efe" opacity=".4" r="3.75434"/><circle cx="334.832" cy="198.981" fill="#358efe" opacity=".4" r="3.75434"/><circle cx="317.309" cy="168.32" fill="#358efe" opacity=".4" r="3.75434"/><circle cx="319.188" cy="185.213" fill="#358efe" opacity=".4" r="3.75434"/><circle cx="312.93" cy="152.676" fill="#358efe" opacity=".4" r="3.75434"/><circle cx="302.293" cy="168.945" fill="#358efe" opacity=".4" r="3.75434"/><circle cx="315.434" cy="160.185" fill="#358efe" opacity=".4" r="3.75434"/><circle cx="296.039" cy="192.722" fill="#358efe" opacity=".4" r="3.75434"/><circle cx="252.864" cy="180.208" fill="#358efe" opacity=".4" r="3.75434"/><circle cx="271.633" cy="225.887" fill="#358efe" opacity=".4" r="3.75434"/><circle cx="221.575" cy="135.157" fill="#358efe" opacity=".4" r="3.75434"/><circle cx="272.887" cy="207.74" fill="#358efe" opacity=".4" r="3.75434"/><circle cx="273.512" cy="188.342" fill="#358efe" opacity=".4" r="3.75434"/><circle cx="267.254" cy="171.448" fill="#358efe" opacity=".4" r="3.75434"/><circle cx="263.5" cy="223.384" fill="#358efe" opacity=".4" r="3.75434"/><circle cx="235.969" cy="175.828" fill="#358efe" opacity=".4" r="3.75434"/><circle cx="242.852" cy="166.442" fill="#358efe" opacity=".4" r="3.75434"/><circle cx="247.856" cy="152.676" fill="#358efe" opacity=".4" r="3.75434"/><circle cx="261.625" cy="204.612" fill="#358efe" opacity=".4" r="3.75434"/><circle cx="267.879" cy="190.845" fill="#358efe" opacity=".4" r="3.75434"/><circle cx="267.879" cy="198.981" fill="#358efe" opacity=".4" r="3.75434"/><circle cx="262.875" cy="205.862" fill="#358efe" opacity=".4" r="3.75434"/><circle cx="263.5" cy="194.599" fill="#358efe" opacity=".4" r="3.75434"/><circle cx="257.243" cy="202.109" fill="#358efe" opacity=".4" r="3.75434"/><circle cx="252.864" cy="192.097" fill="#358efe" opacity=".4" r="3.75434"/><circle cx="257.868" cy="178.331" fill="#358efe" opacity=".4" r="3.75434"/><circle cx="293.532" cy="205.862" fill="#358efe" opacity=".4" r="3.75434"/><circle cx="278.516" cy="207.114" fill="#358efe" opacity=".4" r="3.75434"/><circle cx="283.524" cy="193.348" fill="#358efe" opacity=".4" r="3.75434"/><circle cx="294.786" cy="204.612" fill="#358efe" opacity=".4" r="3.75434"/><circle cx="304.172" cy="196.477" fill="#358efe" opacity=".4" r="3.75434"/><circle cx="305.422" cy="197.728" fill="#358efe" opacity=".4" r="3.75434"/><circle cx="306.047" cy="186.465" fill="#358efe" opacity=".4" r="3.75434"/><circle cx="288.528" cy="193.348" fill="#358efe" opacity=".4" r="3.75434"/><circle cx="295.411" cy="183.962" fill="#358efe" opacity=".4" r="3.75434"/><circle cx="300.418" cy="170.197" fill="#358efe" opacity=".4" r="3.75434"/><circle cx="299.789" cy="180.208" fill="#358efe" opacity=".4" r="3.75434"/><circle cx="309.801" cy="177.706" fill="#358efe" opacity=".4" r="3.75434"/><circle cx="305.422" cy="145.793" fill="#358efe" opacity=".4" r="3.75434"/><circle cx="263.5" cy="135.157" fill="#358efe" opacity=".4" r="3.75434"/><circle cx="162.133" cy="117.01" fill="#f1c40f" opacity=".5" r="3.75434"/><circle cx="170.266" cy="105.747" fill="#f1c40f" opacity=".5" r="3.75434"/><circle cx="175.274" cy="90.7289" fill="#f1c40f" opacity=".5" r="3.75434"/><circle cx="179.028" cy="77.5893" fill="#f1c40f" opacity=".5" r="3.75434"/><circle cx="101.438" cy="227.137" fill="#f1c40f" r="3.75434"/><circle cx="98.309" cy="232.143" fill="#f1c40f" r="3.75434"/><circle cx="96.4301" cy="237.774" fill="#f1c40f" r="3.75434"/><circle cx="95.1801" cy="242.78" fill="#f1c40f" r="3.75434"/><circle cx="95.1801" cy="248.413" fill="#f1c40f" r="3.75434"/><circle cx="95.8051" cy="254.043" fill="#f1c40f" r="3.75434"/><circle cx="97.059" cy="259.674" fill="#f1c40f" r="3.75434"/><circle cx="98.309" cy="265.307" fill="#f1c40f" r="3.75434"/><circle cx="101.438" cy="270.313" fill="#f1c40f" r="3.75434"/><circle cx="104.567" cy="275.318" fill="#f1c40f" r="3.75434"/><circle cx="108.946" cy="279.699" fill="#f1c40f" r="3.75434"/><circle cx="112.7" cy="282.827" fill="#f1c40f" r="3.75434"/><circle cx="118.332" cy="285.33" fill="#f1c40f" r="3.75434"/><circle cx="123.965" cy="287.207" fill="#f1c40f" r="3.75434"/><circle cx="130.223" cy="288.457" fill="#f1c40f" r="3.75434"/><circle cx="135.852" cy="288.457" fill="#f1c40f" r="3.75434"/><circle cx="140.856" cy="287.832" fill="#f1c40f" r="3.75434"/><circle cx="146.489" cy="287.207" fill="#f1c40f" r="3.75434"/><circle cx="151.493" cy="285.33" fill="#f1c40f" r="3.75434"/><circle cx="155.875" cy="282.827" fill="#f1c40f" r="3.75434"/><circle cx="159.629" cy="279.699" fill="#f1c40f" r="3.75434"/><circle cx="163.383" cy="275.944" fill="#f1c40f" r="3.75434"/><circle cx="166.512" cy="272.816" fill="#f1c40f" r="3.75434"/><circle cx="170.266" cy="269.061" fill="#f1c40f" r="3.75434"/><circle cx="172.141" cy="266.558" fill="#f1c40f" r="3.75434"/><circle cx="174.02" cy="262.177" fill="#f1c40f" r="3.75434"/><circle cx="175.274" cy="255.295" fill="#f1c40f" r="3.75434"/><circle cx="175.899" cy="248.413" fill="#f1c40f" r="3.75434"/><circle cx="174.649" cy="242.78" fill="#f1c40f" r="3.75434"/><circle cx="174.649" cy="237.149" fill="#f1c40f" r="3.75434"/><ellipse cx="172.141" cy="232.456" fill="#f1c40f" rx="3.75434" ry="3.44148"/><ellipse cx="170.891" cy="227.449" fill="#f1c40f" rx="3.75434" ry="3.44148"/><ellipse cx="167.137" cy="222.444" fill="#f1c40f" rx="3.75434" ry="3.44148"/><ellipse cx="162.754" cy="218.064" fill="#f1c40f" rx="3.75434" ry="3.44148"/><ellipse cx="159.004" cy="214.31" fill="#f1c40f" rx="3.75434" ry="3.44148"/><ellipse cx="154" cy="211.808" fill="#f1c40f" rx="3.75434" ry="3.44148"/><ellipse cx="148.368" cy="209.304" fill="#f1c40f" rx="3.75434" ry="3.44148"/><ellipse cx="140.856" cy="208.679" fill="#f1c40f" rx="3.75434" ry="3.44148"/><circle cx="134.914" cy="207.427" fill="#f1c40f" r="3.44148"/><circle cx="130.531" cy="208.679" fill="#f1c40f" r="3.44148"/><circle cx="125.527" cy="209.304" fill="#f1c40f" r="3.44148"/><circle cx="120.524" cy="210.556" fill="#f1c40f" r="3.44148"/><circle cx="116.766" cy="211.808" fill="#f1c40f" r="3.44148"/><circle cx="113.641" cy="215.561" fill="#f1c40f" r="3.44148"/><circle cx="109.883" cy="217.439" fill="#f1c40f" r="3.44148"/><circle cx="106.754" cy="219.941" fill="#f1c40f" r="3.44148"/><circle cx="104.254" cy="222.444" fill="#f1c40f" r="3.44148"/><circle cx="285.399" cy="243.406" fill="#ab49c9" r="3.75434"/><circle cx="287.278" cy="252.165" fill="#ab49c9" r="3.75434"/><circle cx="289.778" cy="262.177" fill="#ab49c9" r="3.75434"/><circle cx="294.786" cy="242.155" fill="#ab49c9" r="3.75434"/><circle cx="296.664" cy="250.914" fill="#ab49c9" r="3.75434"/><circle cx="299.164" cy="260.927" fill="#ab49c9" r="3.75434"/><circle cx="306.676" cy="252.791" fill="#ab49c9" r="3.75434"/><circle cx="308.551" cy="261.552" fill="#ab49c9" r="3.75434"/><circle cx="311.055" cy="271.563" fill="#ab49c9" r="3.75434"/><circle cx="301.043" cy="235.272" fill="#ab49c9" r="3.75434"/><circle cx="302.918" cy="244.033" fill="#ab49c9" r="3.75434"/><circle cx="305.422" cy="254.043" fill="#ab49c9" r="3.75434"/><circle cx="291.032" cy="229.015" fill="#ab49c9" r="3.75434"/><circle cx="292.911" cy="237.774" fill="#ab49c9" r="3.75434"/><circle cx="295.411" cy="247.786" fill="#ab49c9" r="3.75434"/><circle cx="318.563" cy="242.155" fill="#ab49c9" r="3.75434"/><circle cx="320.442" cy="250.914" fill="#ab49c9" r="3.75434"/><circle cx="322.942" cy="260.927" fill="#ab49c9" r="3.75434"/><circle cx="330.454" cy="252.791" fill="#ab49c9" r="3.75434"/><circle cx="332.329" cy="261.552" fill="#ab49c9" r="3.75434"/><circle cx="324.821" cy="235.272" fill="#ab49c9" r="3.75434"/><circle cx="326.696" cy="244.033" fill="#ab49c9" r="3.75434"/><circle cx="329.2" cy="254.043" fill="#ab49c9" r="3.75434"/><circle cx="316.688" cy="237.774" fill="#ab49c9" r="3.75434"/><circle cx="319.188" cy="247.786" fill="#ab49c9" r="3.75434"/><circle cx="306.047" cy="229.015" fill="#ab49c9" r="3.75434"/><circle cx="307.926" cy="237.774" fill="#ab49c9" r="3.75434"/><circle cx="310.43" cy="247.786" fill="#ab49c9" r="3.75434"/><circle cx="317.938" cy="239.651" fill="#ab49c9" r="3.75434"/><circle cx="234.09" cy="257.798" fill="#ab49c9" r="3.75434"/><circle cx="312.305" cy="222.131" fill="#ab49c9" r="3.75434"/><circle cx="314.184" cy="230.892" fill="#ab49c9" r="3.75434"/><circle cx="316.688" cy="240.904" fill="#ab49c9" r="3.75434"/><circle cx="304.172" cy="224.634" fill="#ab49c9" r="3.75434"/><circle cx="306.676" cy="234.647" fill="#ab49c9" r="3.75434"/><circle cx="316.059" cy="220.879" fill="#ab49c9" r="3.75434"/><circle cx="317.938" cy="229.64" fill="#ab49c9" r="3.75434"/><circle cx="327.95" cy="231.517" fill="#ab49c9" r="3.75434"/><circle cx="329.829" cy="240.278" fill="#ab49c9" r="3.75434"/><circle cx="322.317" cy="213.998" fill="#ab49c9" r="3.75434"/><circle cx="324.192" cy="222.757" fill="#ab49c9" r="3.75434"/><circle cx="314.184" cy="216.5" fill="#ab49c9" r="3.75434"/><circle cx="316.688" cy="226.512" fill="#ab49c9" r="3.75434"/><circle cx="331.079" cy="229.015" fill="#ab49c9" r="3.75434"/><circle cx="332.954" cy="237.774" fill="#ab49c9" r="3.75434"/><circle cx="335.457" cy="247.786" fill="#ab49c9" r="3.75434"/><circle cx="329.2" cy="224.634" fill="#ab49c9" r="3.75434"/><circle cx="331.704" cy="249.664" fill="#ab49c9" r="3.75434"/><circle cx="333.579" cy="258.423" fill="#ab49c9" r="3.75434"/><circle cx="336.082" cy="268.436" fill="#ab49c9" r="3.75434"/><circle cx="329.829" cy="245.283" fill="#ab49c9" r="3.75434"/><circle cx="332.329" cy="255.295" fill="#ab49c9" r="3.75434"/><circle cx="322.942" cy="262.804" fill="#ab49c9" r="3.75434"/><circle cx="324.821" cy="271.563" fill="#ab49c9" r="3.75434"/><circle cx="327.325" cy="281.575" fill="#ab49c9" r="3.75434"/><circle cx="334.832" cy="273.44" fill="#ab49c9" r="3.75434"/><circle cx="336.711" cy="282.2" fill="#ab49c9" r="3.75434"/><circle cx="329.2" cy="255.921" fill="#ab49c9" r="3.75434"/><circle cx="331.079" cy="264.681" fill="#ab49c9" r="3.75434"/><circle cx="333.579" cy="274.692" fill="#ab49c9" r="3.75434"/><circle cx="321.067" cy="258.423" fill="#ab49c9" r="3.75434"/><circle cx="323.567" cy="268.436" fill="#ab49c9" r="3.75434"/><circle cx="301.668" cy="265.932" fill="#ab49c9" r="3.75434"/><circle cx="303.547" cy="274.692" fill="#ab49c9" r="3.75434"/><circle cx="306.047" cy="284.703" fill="#ab49c9" r="3.75434"/><circle cx="313.555" cy="276.57" fill="#ab49c9" r="3.75434"/><circle cx="315.434" cy="285.33" fill="#ab49c9" r="3.75434"/><circle cx="307.926" cy="259.05" fill="#ab49c9" r="3.75434"/><circle cx="309.801" cy="267.809" fill="#ab49c9" r="3.75434"/><circle cx="312.305" cy="277.822" fill="#ab49c9" r="3.75434"/><circle cx="299.789" cy="261.552" fill="#ab49c9" r="3.75434"/><circle cx="302.293" cy="271.563" fill="#ab49c9" r="3.75434"/><circle cx="316.059" cy="257.798" fill="#ab49c9" r="3.75434"/><circle cx="277.891" cy="281.575" fill="#ab49c9" r="3.75434"/><circle cx="320.442" cy="276.57" fill="#ab49c9" r="3.75434"/><circle cx="327.95" cy="268.436" fill="#ab49c9" r="3.75434"/><circle cx="329.829" cy="277.195" fill="#ab49c9" r="3.75434"/><circle cx="260.368" cy="254.668" fill="#ab49c9" r="3.75434"/><circle cx="324.192" cy="259.674" fill="#ab49c9" r="3.75434"/><circle cx="326.696" cy="269.686" fill="#ab49c9" r="3.75434"/><circle cx="316.688" cy="263.429" fill="#ab49c9" r="3.75434"/><circle cx="289.778" cy="260.927" fill="#ab49c9" r="3.75434"/><circle cx="291.657" cy="269.686" fill="#ab49c9" r="3.75434"/><circle cx="294.161" cy="279.699" fill="#ab49c9" r="3.75434"/><circle cx="301.668" cy="271.563" fill="#ab49c9" r="3.75434"/><circle cx="303.547" cy="280.325" fill="#ab49c9" r="3.75434"/><circle cx="296.039" cy="254.043" fill="#ab49c9" r="3.75434"/><circle cx="297.914" cy="262.804" fill="#ab49c9" r="3.75434"/><circle cx="300.418" cy="272.816" fill="#ab49c9" r="3.75434"/><circle cx="287.903" cy="256.546" fill="#ab49c9" r="3.75434"/><circle cx="290.403" cy="266.558" fill="#ab49c9" r="3.75434"/><circle cx="284.774" cy="238.402" fill="#ab49c9" r="3.75434"/><circle cx="286.653" cy="247.161" fill="#ab49c9" r="3.75434"/><circle cx="289.153" cy="257.172" fill="#ab49c9" r="3.75434"/><circle cx="330.454" cy="302.225" fill="#ab49c9" r="3.75434"/><circle cx="298.539" cy="257.798" fill="#ab49c9" r="3.75434"/><circle cx="291.032" cy="231.517" fill="#ab49c9" r="3.75434"/><circle cx="292.911" cy="240.278" fill="#ab49c9" r="3.75434"/><circle cx="239.723" cy="292.213" fill="#ab49c9" r="3.75434"/><circle cx="282.895" cy="234.02" fill="#ab49c9" r="3.75434"/><circle cx="233.465" cy="227.762" fill="#ab49c9" r="3.75434"/><circle cx="298.539" cy="224.009" fill="#ab49c9" r="3.75434"/><circle cx="300.418" cy="232.769" fill="#ab49c9" r="3.75434"/><circle cx="302.918" cy="242.78" fill="#ab49c9" r="3.75434"/><circle cx="310.43" cy="234.647" fill="#ab49c9" r="3.75434"/><circle cx="312.305" cy="243.406" fill="#ab49c9" r="3.75434"/><circle cx="304.797" cy="217.125" fill="#ab49c9" r="3.75434"/><circle cx="306.676" cy="225.887" fill="#ab49c9" r="3.75434"/><circle cx="266.629" cy="237.774" fill="#ab49c9" r="3.75434"/><circle cx="296.664" cy="219.629" fill="#ab49c9" r="3.75434"/><circle cx="299.164" cy="229.64" fill="#ab49c9" r="3.75434"/><circle cx="332.329" cy="221.506" fill="#ab49c9" r="3.75434"/><circle cx="336.711" cy="240.278" fill="#ab49c9" r="3.75434"/><circle cx="330.454" cy="217.125" fill="#ab49c9" r="3.75434"/><circle cx="283.524" cy="227.137" fill="#ab49c9" r="3.75434"/><circle cx="280.395" cy="232.143" fill="#ab49c9" r="3.75434"/><circle cx="278.516" cy="237.774" fill="#ab49c9" r="3.75434"/><circle cx="277.266" cy="242.78" fill="#ab49c9" r="3.75434"/><circle cx="277.266" cy="248.413" fill="#ab49c9" r="3.75434"/><circle cx="277.891" cy="254.043" fill="#ab49c9" r="3.75434"/><circle cx="279.141" cy="259.674" fill="#ab49c9" r="3.75434"/><circle cx="280.395" cy="265.307" fill="#ab49c9" r="3.75434"/><circle cx="283.524" cy="270.313" fill="#ab49c9" r="3.75434"/><circle cx="286.653" cy="275.318" fill="#ab49c9" r="3.75434"/><circle cx="291.032" cy="279.699" fill="#ab49c9" r="3.75434"/><circle cx="294.786" cy="282.827" fill="#ab49c9" r="3.75434"/><circle cx="300.418" cy="285.33" fill="#ab49c9" r="3.75434"/><circle cx="306.047" cy="287.207" fill="#ab49c9" r="3.75434"/><circle cx="312.305" cy="288.457" fill="#ab49c9" r="3.75434"/><circle cx="317.938" cy="288.457" fill="#ab49c9" r="3.75434"/><circle cx="322.942" cy="287.832" fill="#ab49c9" r="3.75434"/><circle cx="328.575" cy="287.207" fill="#ab49c9" r="3.75434"/><circle cx="333.579" cy="285.33" fill="#ab49c9" r="3.75434"/><ellipse cx="336.082" cy="211.808" fill="#ab49c9" rx="3.75434" ry="3.44148"/><ellipse cx="330.454" cy="209.304" fill="#ab49c9" rx="3.75434" ry="3.44148"/><ellipse cx="322.942" cy="208.679" fill="#ab49c9" rx="3.75434" ry="3.44148"/><circle cx="316.996" cy="207.427" fill="#ab49c9" r="3.44148"/><circle cx="312.617" cy="208.679" fill="#ab49c9" r="3.44148"/><circle cx="307.613" cy="209.304" fill="#ab49c9" r="3.44148"/><circle cx="302.606" cy="210.556" fill="#ab49c9" r="3.44148"/><circle cx="298.852" cy="211.808" fill="#ab49c9" r="3.44148"/><circle cx="295.727" cy="215.561" fill="#ab49c9" r="3.44148"/><circle cx="291.969" cy="217.439" fill="#ab49c9" r="3.44148"/><circle cx="288.84" cy="219.941" fill="#ab49c9" r="3.44148"/><circle cx="286.34" cy="222.444" fill="#ab49c9" r="3.44148"/><g fill="#3cba7a"><circle cx="193.418" cy="63.1987" r="3.75434"/><circle cx="195.297" cy="71.9584" r="3.75434"/><circle cx="197.801" cy="81.9702" r="3.75434"/><circle cx="202.805" cy="61.9467" r="3.75434"/><circle cx="204.68" cy="70.7065" r="3.75434"/><circle cx="207.184" cy="80.7182" r="3.75434"/><circle cx="214.692" cy="72.5844" r="3.75434"/><circle cx="216.571" cy="81.3442" r="3.75434"/><circle cx="219.071" cy="91.3559" r="3.75434"/><circle cx="209.063" cy="55.0639" r="3.75434"/><circle cx="210.938" cy="63.8237" r="3.75434"/><circle cx="213.442" cy="73.8354" r="3.75434"/><circle cx="199.051" cy="48.8061" r="3.75434"/><circle cx="200.926" cy="57.5668" r="3.75434"/><circle cx="203.43" cy="67.5776" r="3.75434"/><circle cx="226.582" cy="61.9467" r="3.75434"/><circle cx="228.461" cy="70.7065" r="3.75434"/><circle cx="230.961" cy="80.7182" r="3.75434"/><circle cx="238.469" cy="72.5844" r="3.75434"/><circle cx="240.348" cy="81.3442" r="3.75434"/><circle cx="232.84" cy="55.0639" r="3.75434"/><circle cx="234.715" cy="63.8237" r="3.75434"/><circle cx="237.219" cy="73.8354" r="3.75434"/><circle cx="224.704" cy="57.5668" r="3.75434"/><circle cx="227.207" cy="67.5776" r="3.75434"/><circle cx="214.067" cy="48.8061" r="3.75434"/><circle cx="215.942" cy="57.5668" r="3.75434"/><circle cx="218.45" cy="67.5776" r="3.75434"/><circle cx="225.954" cy="59.4438" r="3.75434"/><circle cx="227.836" cy="68.2026" r="3.75434"/><circle cx="220.325" cy="41.9243" r="3.75434"/><circle cx="222.204" cy="50.684" r="3.75434"/><circle cx="158.379" cy="46.9291" r="3.75434"/><circle cx="212.192" cy="44.4272" r="3.75434"/><circle cx="214.692" cy="54.4389" r="3.75434"/><circle cx="224.079" cy="40.6723" r="3.75434"/><circle cx="225.954" cy="49.4321" r="3.75434"/><circle cx="329.2" cy="79.4662" r="3.75434"/><circle cx="235.969" cy="51.309" r="3.75434"/><circle cx="237.844" cy="60.0698" r="3.75434"/><circle cx="230.332" cy="33.7885" r="3.75434"/><circle cx="232.215" cy="42.5502" r="3.75434"/><circle cx="303.547" cy="51.936" r="3.75434"/><circle cx="222.204" cy="36.2914" r="3.75434"/><circle cx="244.727" cy="30.0356" r="3.75434"/><circle cx="239.098" cy="48.8061" r="3.75434"/><circle cx="240.973" cy="57.5668" r="3.75434"/><circle cx="243.477" cy="67.5776" r="3.75434"/><circle cx="250.985" cy="59.4438" r="3.75434"/><circle cx="252.864" cy="68.2026" r="3.75434"/><circle cx="245.352" cy="41.9243" r="3.75434"/><circle cx="247.231" cy="50.684" r="3.75434"/><circle cx="249.731" cy="60.6948" r="3.75434"/><circle cx="241.598" cy="3.75434" r="3.75434"/><circle cx="239.723" cy="54.4389" r="3.75434"/><circle cx="250.36" cy="55.6889" r="3.75434"/><circle cx="252.235" cy="64.4496" r="3.75434"/><circle cx="254.739" cy="74.4614" r="3.75434"/><circle cx="262.25" cy="66.3256" r="3.75434"/><circle cx="264.125" cy="75.0873" r="3.75434"/><circle cx="256.618" cy="48.8061" r="3.75434"/><circle cx="258.493" cy="57.5668" r="3.75434"/><circle cx="260.997" cy="67.5776" r="3.75434"/><circle cx="248.481" cy="51.309" r="3.75434"/><circle cx="250.985" cy="61.3207" r="3.75434"/><circle cx="239.723" cy="69.4555" r="3.75434"/><circle cx="241.598" cy="78.2153" r="3.75434"/><circle cx="244.102" cy="88.226" r="3.75434"/><circle cx="251.614" cy="80.0922" r="3.75434"/><circle cx="253.489" cy="88.853" r="3.75434"/><circle cx="245.977" cy="62.5717" r="3.75434"/><circle cx="275.387" cy="92.6069" r="3.75434"/><circle cx="250.36" cy="81.3442" r="3.75434"/><circle cx="237.844" cy="65.0756" r="3.75434"/><circle cx="240.348" cy="75.0873" r="3.75434"/><circle cx="230.961" cy="82.5952" r="3.75434"/><circle cx="232.84" cy="91.3559" r="3.75434"/><circle cx="235.34" cy="101.368" r="3.75434"/><circle cx="242.852" cy="93.2328" r="3.75434"/><circle cx="244.727" cy="101.993" r="3.75434"/><circle cx="237.219" cy="75.7123" r="3.75434"/><circle cx="239.098" cy="84.4731" r="3.75434"/><circle cx="241.598" cy="94.4838" r="3.75434"/><circle cx="229.086" cy="78.2153" r="3.75434"/><circle cx="231.59" cy="88.226" r="3.75434"/><circle cx="209.688" cy="85.7241" r="3.75434"/><circle cx="211.563" cy="94.4838" r="3.75434"/><circle cx="214.067" cy="104.496" r="3.75434"/><circle cx="221.575" cy="96.3618" r="3.75434"/><circle cx="223.454" cy="105.122" r="3.75434"/><circle cx="215.942" cy="78.8422" r="3.75434"/><circle cx="217.821" cy="87.602" r="3.75434"/><circle cx="220.325" cy="97.6127" r="3.75434"/><circle cx="207.809" cy="81.3442" r="3.75434"/><circle cx="210.313" cy="91.3559" r="3.75434"/><circle cx="224.079" cy="77.5893" r="3.75434"/><circle cx="225.954" cy="86.35" r="3.75434"/><circle cx="228.461" cy="96.3618" r="3.75434"/><circle cx="235.969" cy="88.226" r="3.75434"/><circle cx="237.844" cy="96.9877" r="3.75434"/><circle cx="230.332" cy="70.7065" r="3.75434"/><circle cx="232.215" cy="79.4662" r="3.75434"/><circle cx="234.715" cy="89.478" r="3.75434"/><circle cx="222.204" cy="73.2094" r="3.75434"/><circle cx="224.704" cy="83.2202" r="3.75434"/><circle cx="197.801" cy="80.7182" r="3.75434"/><circle cx="199.676" cy="89.478" r="3.75434"/><circle cx="202.18" cy="99.4907" r="3.75434"/><circle cx="209.688" cy="91.3559" r="3.75434"/><circle cx="211.563" cy="100.115" r="3.75434"/><circle cx="204.055" cy="73.8354" r="3.75434"/><circle cx="205.934" cy="82.5952" r="3.75434"/><circle cx="208.434" cy="92.6069" r="3.75434"/><circle cx="195.918" cy="76.3393" r="3.75434"/><circle cx="198.426" cy="86.35" r="3.75434"/><circle cx="192.793" cy="58.1918" r="3.75434"/><circle cx="160.258" cy="66.9536" r="3.75434"/><circle cx="197.172" cy="76.9643" r="3.75434"/><circle cx="204.68" cy="68.8305" r="3.75434"/><circle cx="206.559" cy="77.5893" r="3.75434"/><circle cx="184.036" cy="13.7651" r="3.75434"/><circle cx="200.926" cy="60.0698" r="3.75434"/><circle cx="203.43" cy="70.0805" r="3.75434"/><circle cx="190.914" cy="53.812" r="3.75434"/><circle cx="170.266" cy="52.561" r="3.75434"/><circle cx="206.559" cy="43.7993" r="3.75434"/><circle cx="208.434" cy="52.561" r="3.75434"/><circle cx="210.938" cy="62.5717" r="3.75434"/><circle cx="218.45" cy="54.4389" r="3.75434"/><circle cx="172.141" cy="39.4213" r="3.75434"/><circle cx="212.817" cy="36.9184" r="3.75434"/><circle cx="214.692" cy="45.6772" r="3.75434"/><circle cx="197.801" cy="35.6664" r="3.75434"/><circle cx="204.68" cy="39.4213" r="3.75434"/><circle cx="210.938" cy="10.6371" r="3.75434"/><circle cx="240.348" cy="41.2973" r="3.75434"/><circle cx="242.227" cy="50.058" r="3.75434"/><circle cx="244.727" cy="60.0698" r="3.75434"/><circle cx="252.235" cy="51.936" r="3.75434"/><circle cx="254.114" cy="60.6948" r="3.75434"/><circle cx="246.606" cy="34.4135" r="3.75434"/><circle cx="248.481" cy="43.1752" r="3.75434"/><circle cx="250.985" cy="53.186" r="3.75434"/><circle cx="238.469" cy="36.9184" r="3.75434"/><circle cx="247.231" cy="24.4028" r="3.75434"/><circle cx="191.539" cy="46.9291" r="3.75434"/><circle cx="188.414" cy="51.936" r="3.75434"/><circle cx="186.536" cy="57.5668" r="3.75434"/><circle cx="185.282" cy="62.5717" r="3.75434"/><circle cx="185.282" cy="68.2026" r="3.75434"/><circle cx="185.911" cy="73.8354" r="3.75434"/><circle cx="187.161" cy="79.4662" r="3.75434"/><circle cx="188.414" cy="85.0981" r="3.75434"/><circle cx="191.539" cy="90.1039" r="3.75434"/><circle cx="194.672" cy="95.1098" r="3.75434"/><circle cx="199.051" cy="99.4907" r="3.75434"/><circle cx="202.805" cy="102.619" r="3.75434"/><circle cx="208.434" cy="105.122" r="3.75434"/><circle cx="214.067" cy="106.998" r="3.75434"/><circle cx="220.325" cy="108.25" r="3.75434"/><circle cx="225.954" cy="108.25" r="3.75434"/><circle cx="230.961" cy="107.623" r="3.75434"/><circle cx="236.594" cy="106.998" r="3.75434"/><circle cx="241.598" cy="105.122" r="3.75434"/><circle cx="245.977" cy="102.619" r="3.75434"/><circle cx="249.731" cy="99.4907" r="3.75434"/><circle cx="253.489" cy="95.7358" r="3.75434"/><circle cx="256.618" cy="92.6069" r="3.75434"/><circle cx="260.368" cy="88.853" r="3.75434"/><circle cx="262.25" cy="86.35" r="3.75434"/><circle cx="264.125" cy="81.9702" r="3.75434"/><circle cx="265.375" cy="75.0873" r="3.75434"/><circle cx="266.004" cy="68.2026" r="3.75434"/><circle cx="264.75" cy="62.5717" r="3.75434"/><circle cx="282.895" cy="36.2914" r="3.75434"/><ellipse cx="262.25" cy="52.2481" rx="3.75434" ry="3.44148"/><ellipse cx="260.997" cy="47.2423" rx="3.75434" ry="3.44148"/><ellipse cx="257.243" cy="42.2374" rx="3.75434" ry="3.44148"/><ellipse cx="252.864" cy="37.8555" rx="3.75434" ry="3.44148"/><ellipse cx="249.106" cy="34.1007" rx="3.75434" ry="3.44148"/><ellipse cx="244.102" cy="31.5987" rx="3.75434" ry="3.44148"/><ellipse cx="238.469" cy="29.0967" rx="3.75434" ry="3.44148"/><ellipse cx="230.961" cy="28.4698" rx="3.75434" ry="3.44148"/><circle cx="225.02" cy="27.2198" r="3.44148"/><circle cx="220.637" cy="28.4698" r="3.44148"/><circle cx="215.629" cy="29.0967" r="3.44148"/><circle cx="210.625" cy="30.3477" r="3.44148"/><circle cx="206.871" cy="31.5987" r="3.44148"/><circle cx="203.742" cy="35.3536" r="3.44148"/><circle cx="199.988" cy="37.2305" r="3.44148"/><circle cx="196.859" cy="39.7335" r="3.44148"/><circle cx="194.359" cy="42.2374" r="3.44148"/></g></svg>