<svg width="105" height="25" fill="none" xmlns="http://www.w3.org/2000/svg"><path d="M37.435 19.555h1.76a.609.609 0 0 0 .587-.39l.992-2.106h6.05l.991 2.106c.142.273.283.39.587.39h1.76c.304 0 .465-.254.344-.507l-6.232-12.85c-.06-.117-.141-.214-.344-.214h-.202a.364.364 0 0 0-.344.214l-6.293 12.85c-.121.253.04.507.344.507zm4.33-4.66l1.983-4.288h.06l2.024 4.289h-4.067zm14.226 4.29c0 .194.162.37.385.37h7.405a.377.377 0 0 0 .384-.37v-1.6a.377.377 0 0 0-.384-.37h-5.16V6.28c0-.195-.182-.37-.384-.37h-1.861a.377.377 0 0 0-.385.37v12.905zm12.909 0c0 .194.182.37.384.37h1.882c.203 0 .385-.176.385-.37V6.278c0-.195-.183-.37-.385-.37h-1.882c-.202 0-.384.175-.384.37v12.905zm8.25-6.434c0 3.899 3.257 6.999 7.304 6.999 1.8 0 3.54-.605 4.917-1.891.141-.137.182-.39.02-.527l-1.255-1.247a.383.383 0 0 0-.505 0c-.85.662-1.882 1.11-3.096 1.11a4.494 4.494 0 0 1-4.533-4.502c0-2.457 1.923-4.542 4.513-4.542 1.133 0 2.266.428 3.115 1.15.162.156.365.156.506 0l1.235-1.228c.161-.156.161-.39-.02-.546-1.377-1.19-2.854-1.813-4.897-1.813-4.047 0-7.304 3.138-7.304 7.037zm17.802 6.433c0 .195.162.37.384.37h8.235a.377.377 0 0 0 .385-.37v-1.598a.377.377 0 0 0-.385-.37h-5.989v-3.412h4.998a.377.377 0 0 0 .384-.37v-1.618c0-.195-.182-.37-.384-.37h-4.998V8.247h5.989a.377.377 0 0 0 .385-.37V6.279a.377.377 0 0 0-.385-.37h-8.235a.377.377 0 0 0-.384.37v12.905z" fill="#fff"/><g clip-path="url(#clip0)"><rect opacity=".45" width="7.567" height="24.457" rx="3.784" transform="matrix(-.89641 -.44322 -.46488 .88537 18.152 3.354)" fill="#F1C40F"/><rect opacity=".45" width="7.567" height="24.457" rx="3.784" transform="matrix(.89641 -.44322 .46488 .88537 7.957 3.354)" fill="#358EFE"/><ellipse cx="13.052" cy="4.962" rx="3.821" ry="3.708" fill="#3CBA7A"/><ellipse cx="20.981" cy="20.017" rx="3.821" ry="3.708" fill="#AB49C9"/><ellipse cx="5.122" cy="20.017" rx="3.821" ry="3.708" fill="#F1C40F"/></g><defs><clipPath id="clip0"><path fill="#fff" d="M0 0H26.107V25H0z"/></clipPath></defs></svg>