<svg id="Layer_1" data-name="Layer 1" xmlns="http://www.w3.org/2000/svg" xmlns:xlink="http://www.w3.org/1999/xlink" viewBox="0 0 518.47 113.5"><defs><style>.cls-1{fill:none;}.cls-2{fill:#282828;}.cls-3{clip-path:url(#clip-path);}.cls-4{opacity:0.45;isolation:isolate;}.cls-5{clip-path:url(#clip-path-2);}.cls-6{clip-path:url(#clip-path-3);}.cls-7{fill:#f1c40f;}.cls-8{clip-path:url(#clip-path-5);}.cls-9{clip-path:url(#clip-path-6);}.cls-10{fill:#358efe;}.cls-11{fill:#3cba7a;}.cls-12{fill:#ab49c9;}</style><clipPath id="clip-path" transform="translate(-6.57 -6.33)"><rect class="cls-1" width="131.86" height="126.26"/></clipPath><clipPath id="clip-path-2" transform="translate(-6.57 -6.33)"><rect class="cls-1" x="6" y="6.26" width="79" height="114"/></clipPath><clipPath id="clip-path-3" transform="translate(-6.57 -6.33)"><rect class="cls-1" x="6.71" y="6.46" width="78.25" height="113.37"/></clipPath><clipPath id="clip-path-5" transform="translate(-6.57 -6.33)"><rect class="cls-1" x="46" y="6.26" width="80" height="114"/></clipPath><clipPath id="clip-path-6" transform="translate(-6.57 -6.33)"><rect class="cls-1" x="46.9" y="6.46" width="78.25" height="113.37"/></clipPath></defs><title>alice-logo</title><path class="cls-2" d="M189.07,98.76H198a3.08,3.08,0,0,0,3-2l5-10.63h30.56l5,10.63a2.94,2.94,0,0,0,3,2h8.89a1.74,1.74,0,0,0,1.73-2.56L223.61,31.3a1.73,1.73,0,0,0-1.74-1.08h-1a1.86,1.86,0,0,0-1.74,1.08L187.33,96.2a1.75,1.75,0,0,0,1.74,2.56m21.87-23.53,10-21.66h.3l10.23,21.66Zm71.85,21.66a1.9,1.9,0,0,0,1.94,1.87h37.4a1.9,1.9,0,0,0,1.94-1.86h0V88.81A1.9,1.9,0,0,0,322.13,87H296.07V31.72a2,2,0,0,0-1.94-1.87h-9.4a1.9,1.9,0,0,0-1.94,1.86h0Zm65.19,0a2,2,0,0,0,1.94,1.87h9.51a2,2,0,0,0,1.94-1.87V31.71a2,2,0,0,0-1.94-1.87h-9.51A2,2,0,0,0,348,31.71V96.88ZM389.65,64.4c0,19.69,16.45,35.35,36.89,35.35a35.88,35.88,0,0,0,24.84-9.55,1.84,1.84,0,0,0,.1-2.66l-6.34-6.3a1.93,1.93,0,0,0-2.55,0A25.14,25.14,0,0,1,427,86.84a22.69,22.69,0,0,1-22.89-22.49v-.24a22.71,22.71,0,0,1,22.79-22.94A24.65,24.65,0,0,1,442.58,47a1.69,1.69,0,0,0,2.56,0l6.24-6.21a1.78,1.78,0,0,0-.11-2.75c-6.95-6-14.41-9.16-24.73-9.16-20.44,0-36.89,15.85-36.89,35.54m89.91,32.49a1.91,1.91,0,0,0,1.94,1.87h41.59A1.91,1.91,0,0,0,525,96.9h0V88.82A1.91,1.91,0,0,0,523.1,87H492.85V69.72h25.24A1.91,1.91,0,0,0,520,67.85V59.68a2,2,0,0,0-1.94-1.87H492.85V41.65h30.24A1.91,1.91,0,0,0,525,39.79h0V31.71a1.91,1.91,0,0,0-1.94-1.87H481.5a1.91,1.91,0,0,0-1.94,1.87Z" transform="translate(-6.57 -6.33)"/><g class="cls-3"><g class="cls-4"><g class="cls-5"><g class="cls-6"><path class="cls-7" d="M74.55,8.47h0a19.69,19.69,0,0,0-26,8.45L8.88,92.44a18.55,18.55,0,0,0,8.25,25.39,19.67,19.67,0,0,0,26-8.45L82.79,33.86A18.55,18.55,0,0,0,74.55,8.47" transform="translate(-6.57 -6.33)"/></g></g></g></g><g class="cls-3"><g class="cls-4"><g class="cls-8"><g class="cls-9"><path class="cls-10" d="M57.32,8.47h0a19.68,19.68,0,0,1,26,8.45L123,92.44a18.56,18.56,0,0,1-8.25,25.39,19.67,19.67,0,0,1-26-8.45L49.07,33.86A18.56,18.56,0,0,1,57.32,8.47" transform="translate(-6.57 -6.33)"/></g></g></g><path class="cls-11" d="M65.92,6.33c10.66,0,19.3,8.39,19.3,18.73s-8.64,18.73-19.3,18.73-19.3-8.39-19.3-18.73S55.26,6.33,65.92,6.33" transform="translate(-6.57 -6.33)"/><path class="cls-12" d="M106,82.37c10.65,0,19.3,8.38,19.3,18.73s-8.65,18.72-19.3,18.72-19.3-8.38-19.3-18.72S95.31,82.37,106,82.37" transform="translate(-6.57 -6.33)"/><path class="cls-7" d="M25.87,82.37c10.66,0,19.3,8.38,19.3,18.73s-8.64,18.72-19.3,18.72-19.3-8.38-19.3-18.72,8.64-18.73,19.3-18.73" transform="translate(-6.57 -6.33)"/></g></svg>