<svg width="103" height="215" fill="none" xmlns="http://www.w3.org/2000/svg"><g opacity=".2" fill="#57586E"><ellipse cx="90.194" cy="16.067" rx="1.459" ry="1.461"/><ellipse cx="90.194" cy="30.088" rx="1.459" ry="1.461"/><ellipse cx="97.202" cy="23.078" rx="1.459" ry="1.461"/><ellipse cx="83.19" cy="23.078" rx="1.459" ry="1.461"/><ellipse cx="104.206" cy="1.461" rx="1.459" ry="1.461"/><ellipse cx="104.206" cy="15.482" rx="1.459" ry="1.461"/><ellipse cx="97.202" cy="8.471" rx="1.459" ry="1.461"/><ellipse cx="98.366" cy="36.515" rx="1.459" ry="1.461"/><ellipse cx="63.338" cy="45.863" rx="1.459" ry="1.461"/><ellipse cx="63.338" cy="59.884" rx="1.459" ry="1.461"/><ellipse cx="70.346" cy="52.874" rx="1.459" ry="1.461"/><ellipse cx="56.334" cy="52.874" rx="1.459" ry="1.461"/><ellipse cx="77.35" cy="31.256" rx="1.459" ry="1.461"/><ellipse cx="77.35" cy="45.278" rx="1.459" ry="1.461"/><ellipse cx="84.358" cy="38.267" rx="1.459" ry="1.461"/><ellipse cx="70.346" cy="38.267" rx="1.459" ry="1.461"/><ellipse cx="78.518" cy="59.3" rx="1.459" ry="1.461"/><ellipse cx="78.518" cy="73.322" rx="1.459" ry="1.461"/><ellipse cx="85.526" cy="66.311" rx="1.459" ry="1.461"/><ellipse cx="71.514" cy="66.311" rx="1.459" ry="1.461"/><ellipse cx="93.112" cy="72.154" rx="1.459" ry="1.461"/><ellipse cx="93.112" cy="86.175" rx="1.459" ry="1.461"/><ellipse cx="100.12" cy="79.165" rx="1.459" ry="1.461"/><ellipse cx="86.108" cy="79.165" rx="1.459" ry="1.461"/><ellipse cx="100.12" cy="64.558" rx="1.459" ry="1.461"/><ellipse cx="91.362" cy="44.11" rx="1.459" ry="1.461"/><ellipse cx="91.362" cy="58.132" rx="1.459" ry="1.461"/><ellipse cx="98.37" cy="51.121" rx="1.459" ry="1.461"/><ellipse cx="84.358" cy="51.121" rx="1.459" ry="1.461"/><ellipse cx="100.702" cy="93.186" rx="1.459" ry="1.461"/><ellipse cx="35.319" cy="75.075" rx="1.459" ry="1.461"/><ellipse cx="35.319" cy="89.096" rx="1.459" ry="1.461"/><ellipse cx="42.327" cy="82.086" rx="1.459" ry="1.461"/><ellipse cx="28.315" cy="82.086" rx="1.459" ry="1.461"/><ellipse cx="49.327" cy="60.468" rx="1.459" ry="1.461"/><ellipse cx="49.327" cy="74.49" rx="1.459" ry="1.461"/><ellipse cx="56.334" cy="67.479" rx="1.459" ry="1.461"/><ellipse cx="42.323" cy="67.479" rx="1.459" ry="1.461"/><ellipse cx="50.495" cy="88.512" rx="1.459" ry="1.461"/><ellipse cx="50.495" cy="102.534" rx="1.459" ry="1.461"/><ellipse cx="57.502" cy="95.523" rx="1.459" ry="1.461"/><ellipse cx="43.491" cy="95.523" rx="1.459" ry="1.461"/><ellipse cx="65.092" cy="101.366" rx="1.459" ry="1.461"/><ellipse cx="65.092" cy="115.387" rx="1.459" ry="1.461"/><ellipse cx="72.1" cy="108.377" rx="1.459" ry="1.461"/><ellipse cx="58.088" cy="108.377" rx="1.459" ry="1.461"/><ellipse cx="79.1" cy="86.759" rx="1.459" ry="1.461"/><ellipse cx="79.1" cy="100.781" rx="1.459" ry="1.461"/><ellipse cx="86.108" cy="93.77" rx="1.459" ry="1.461"/><ellipse cx="72.096" cy="93.77" rx="1.459" ry="1.461"/><ellipse cx="63.338" cy="73.322" rx="1.459" ry="1.461"/><ellipse cx="63.338" cy="87.343" rx="1.459" ry="1.461"/><ellipse cx="70.346" cy="80.333" rx="1.459" ry="1.461"/><ellipse cx="56.334" cy="80.333" rx="1.459" ry="1.461"/><ellipse cx="8.463" cy="104.871" rx="1.459" ry="1.461"/><ellipse cx="8.463" cy="118.892" rx="1.459" ry="1.461"/><ellipse cx="15.471" cy="111.882" rx="1.459" ry="1.461"/><ellipse cx="1.459" cy="111.882" rx="1.459" ry="1.461"/><ellipse cx="22.475" cy="90.265" rx="1.459" ry="1.461"/><ellipse cx="22.475" cy="104.287" rx="1.459" ry="1.461"/><ellipse cx="29.483" cy="97.276" rx="1.459" ry="1.461"/><ellipse cx="15.471" cy="97.276" rx="1.459" ry="1.461"/><ellipse cx="23.643" cy="118.308" rx="1.459" ry="1.461"/><ellipse cx="23.643" cy="132.33" rx="1.459" ry="1.461"/><ellipse cx="30.651" cy="125.319" rx="1.459" ry="1.461"/><ellipse cx="16.639" cy="125.319" rx="1.459" ry="1.461"/><ellipse cx="38.237" cy="131.162" rx="1.459" ry="1.461"/><ellipse cx="38.237" cy="145.183" rx="1.459" ry="1.461"/><ellipse cx="45.245" cy="138.173" rx="1.459" ry="1.461"/><ellipse cx="31.233" cy="138.173" rx="1.459" ry="1.461"/><ellipse cx="52.248" cy="116.555" rx="1.459" ry="1.461"/><ellipse cx="52.248" cy="130.577" rx="1.459" ry="1.461"/><ellipse cx="59.256" cy="123.566" rx="1.459" ry="1.461"/><ellipse cx="45.245" cy="123.566" rx="1.459" ry="1.461"/><ellipse cx="36.487" cy="103.118" rx="1.459" ry="1.461"/><ellipse cx="36.487" cy="117.139" rx="1.459" ry="1.461"/><ellipse cx="43.495" cy="110.129" rx="1.459" ry="1.461"/><ellipse cx="29.483" cy="110.129" rx="1.459" ry="1.461"/><ellipse cx="79.686" cy="115.387" rx="1.459" ry="1.461"/><ellipse cx="79.686" cy="129.409" rx="1.459" ry="1.461"/><ellipse cx="86.694" cy="122.398" rx="1.459" ry="1.461"/><ellipse cx="72.682" cy="122.398" rx="1.459" ry="1.461"/><ellipse cx="93.698" cy="100.781" rx="1.459" ry="1.461"/><ellipse cx="93.698" cy="114.802" rx="1.459" ry="1.461"/><ellipse cx="100.706" cy="107.792" rx="1.459" ry="1.461"/><ellipse cx="86.694" cy="107.792" rx="1.459" ry="1.461"/><ellipse cx="94.862" cy="128.825" rx="1.459" ry="1.461"/><ellipse cx="94.862" cy="142.846" rx="1.459" ry="1.461"/><ellipse cx="101.87" cy="135.836" rx="1.459" ry="1.461"/><ellipse cx="87.858" cy="135.836" rx="1.459" ry="1.461"/><ellipse cx="102.456" cy="148.689" rx="1.459" ry="1.461"/><ellipse cx="100.702" cy="120.645" rx="1.459" ry="1.461"/><ellipse cx="52.831" cy="145.183" rx="1.459" ry="1.461"/><ellipse cx="52.831" cy="159.205" rx="1.459" ry="1.461"/><ellipse cx="59.838" cy="152.194" rx="1.459" ry="1.461"/><ellipse cx="45.827" cy="152.194" rx="1.459" ry="1.461"/><ellipse cx="66.842" cy="130.578" rx="1.459" ry="1.461"/><ellipse cx="66.842" cy="144.599" rx="1.459" ry="1.461"/><ellipse cx="73.85" cy="137.589" rx="1.459" ry="1.461"/><ellipse cx="59.838" cy="137.589" rx="1.459" ry="1.461"/><ellipse cx="68.01" cy="158.621" rx="1.459" ry="1.461"/><ellipse cx="68.01" cy="172.642" rx="1.459" ry="1.461"/><ellipse cx="75.018" cy="165.632" rx="1.459" ry="1.461"/><ellipse cx="61.006" cy="165.632" rx="1.459" ry="1.461"/><ellipse cx="82.604" cy="171.474" rx="1.459" ry="1.461"/><ellipse cx="82.604" cy="185.496" rx="1.459" ry="1.461"/><ellipse cx="89.612" cy="178.485" rx="1.459" ry="1.461"/><ellipse cx="75.6" cy="178.485" rx="1.459" ry="1.461"/><ellipse cx="96.616" cy="156.868" rx="1.459" ry="1.461"/><ellipse cx="96.616" cy="170.889" rx="1.459" ry="1.461"/><ellipse cx="103.624" cy="163.879" rx="1.459" ry="1.461"/><ellipse cx="89.612" cy="163.879" rx="1.459" ry="1.461"/><ellipse cx="97.198" cy="185.496" rx="1.459" ry="1.461"/><ellipse cx="97.198" cy="199.517" rx="1.459" ry="1.461"/><ellipse cx="104.206" cy="192.507" rx="1.459" ry="1.461"/><ellipse cx="90.194" cy="192.507" rx="1.459" ry="1.461"/><ellipse cx="104.206" cy="177.901" rx="1.459" ry="1.461"/><ellipse cx="80.854" cy="143.43" rx="1.459" ry="1.461"/><ellipse cx="80.854" cy="157.452" rx="1.459" ry="1.461"/><ellipse cx="87.862" cy="150.441" rx="1.459" ry="1.461"/><ellipse cx="73.85" cy="150.441" rx="1.459" ry="1.461"/></g></svg>