<svg width="40" height="40" fill="none" xmlns="http://www.w3.org/2000/svg"><path d="M28.347 28.931c-.697-.473-1.558-.71-2.39-.94-.182-.05-.363-.1-.54-.152-1.019-.3-1.672-.89-1.747-1.58-.061-.56.275-1.098.899-1.442.132-.072.278-.126.436-.165v1.24a.833.833 0 0 0 1.666 0v-1.179c.487.12.96.313 1.349.548a.833.833 0 1 0 .863-1.426 6.675 6.675 0 0 0-2.212-.827v-.6a.833.833 0 0 0-1.666 0v.55c-.438.06-.858.189-1.24.4-1.216.67-1.887 1.85-1.752 3.081.151 1.383 1.248 2.503 2.934 2.999l.058.016v3.924c-.69-.115-1.26-.407-1.444-.759a.833.833 0 0 0-1.479.768c.507.977 1.683 1.527 2.922 1.667v.87a.833.833 0 1 0 1.667 0v-.93c.173-.033.342-.075.503-.126a3.608 3.608 0 0 0 2.477-2.897c.18-1.228-.308-2.364-1.304-3.04zm-.345 2.799a1.931 1.931 0 0 1-1.33 1.55v-3.33c.28.104.534.22.74.36.655.444.63 1.14.59 1.419z" fill="#fff"/><path d="M25.836 18.333c-.28 0-.558.011-.833.032V3.958c0-.87-.61-2.097-3.514-3.005C19.522.34 16.922 0 14.17 0S8.817.339 6.85.953c-2.903.908-3.513 2.135-3.513 3.005v25.209c0 .87.61 2.097 3.514 3.005 1.967.615 4.566.953 7.32.953.524 0 1.049-.013 1.567-.038C17.311 37.128 21.244 40 25.837 40c5.973 0 10.833-4.86 10.833-10.833 0-5.974-4.86-10.834-10.834-10.834zM7.346 2.544c1.811-.566 4.234-.877 6.823-.877 2.59 0 5.012.311 6.823.877 1.913.598 2.344 1.237 2.344 1.414 0 .177-.43.817-2.344 1.415-1.81.566-4.233.877-6.823.877-2.589 0-5.012-.311-6.822-.877-1.914-.598-2.344-1.238-2.344-1.415 0-.176.43-.816 2.344-1.414zM5.004 6.192c.477.271 1.082.532 1.847.772 1.967.614 4.566.953 7.32.953 2.752 0 5.352-.339 7.32-.953.764-.24 1.369-.5 1.846-.772V8.16c0 .177-.43.816-2.344 1.414-1.81.566-4.233.878-6.823.878-1.201 0-2.374-.068-3.486-.201a.833.833 0 1 0-.199 1.655c1.178.14 2.418.212 3.685.212 2.754 0 5.353-.338 7.32-.953.765-.239 1.37-.5 1.847-.771v6.169c0 .177-.43.816-2.344 1.414-1.81.566-4.233.877-6.823.877-2.589 0-5.012-.311-6.822-.877-1.914-.598-2.345-1.237-2.345-1.414v-1.968c.478.271 1.082.532 1.848.772 1.967.614 4.566.953 7.32.953 1.64 0 3.21-.118 4.668-.35a.833.833 0 1 0-.262-1.646 28.607 28.607 0 0 1-4.407.329c-2.589 0-5.012-.312-6.822-.877-1.914-.598-2.345-1.238-2.345-1.415v-6.17zm9.166 25.267c-2.589 0-5.012-.312-6.822-.878-1.914-.598-2.345-1.237-2.345-1.414v-1.968c.478.271 1.082.532 1.848.771 1.967.615 4.566.954 7.32.954.278 0 .557-.004.836-.011a10.751 10.751 0 0 0 0 .537l.004.089.007.194.007.106c.004.058.007.117.012.174l.01.118.015.161.014.127.018.15.02.138a11.003 11.003 0 0 0 .045.286l.02.12.031.164.02.101.013.062c-.356.012-.714.018-1.073.018zm1.793-6.748l-.001.002a5.85 5.85 0 0 0-.086.197l-.024.055-.038.093a10.736 10.736 0 0 0-.639 2.182c-.333.011-.67.017-1.005.017-2.589 0-5.012-.311-6.822-.877-1.914-.598-2.345-1.238-2.345-1.415v-6.169c.478.271 1.082.533 1.848.772 1.967.614 4.566.953 7.32.953 2.193 0 4.288-.216 6.045-.614a10.874 10.874 0 0 0-3.235 3.02c-.906.085-1.852.129-2.81.129-1.202 0-2.375-.068-3.488-.201a.833.833 0 1 0-.198 1.654c1.178.142 2.418.213 3.685.213.611 0 1.216-.019 1.811-.052l-.018.041zm9.874 13.622c-4.105 0-7.589-2.712-8.752-6.44a9.293 9.293 0 0 1-.145-.522l-.032-.128a9.714 9.714 0 0 1-.057-.263l-.021-.109a9.492 9.492 0 0 1-.04-.23l-.013-.072a8.86 8.86 0 0 1-.1-1.085 9.057 9.057 0 0 1 .002-.696l.002-.062c.006-.114.014-.227.023-.34l.01-.105a9.699 9.699 0 0 1 .055-.458l.023-.146c.02-.118.04-.236.064-.353l.002-.004a9.199 9.199 0 0 1 6.452-6.965l.04-.012a9.811 9.811 0 0 1 .59-.145A9.188 9.188 0 0 1 25.836 20c5.054 0 9.166 4.112 9.166 9.167 0 5.054-4.112 9.166-9.167 9.166z" fill="#fff"/><path d="M7.531 11.36c.13.033.262.066.396.098a.832.832 0 0 0 1.004-.618.833.833 0 0 0-.618-1.003c-.121-.03-.24-.059-.357-.09a.833.833 0 1 0-.425 1.612zm13.537 4.097a.835.835 0 0 0 .238-.035c.164-.05.329-.102.49-.157a.833.833 0 1 0-.534-1.578 13.51 13.51 0 0 1-.432.137.833.833 0 0 0 .238 1.633zM8.312 22.44a15.38 15.38 0 0 1-.357-.09.834.834 0 0 0-.423 1.613c.13.034.261.066.396.098a.834.834 0 0 0 .385-1.622z" fill="#fff"/></svg>