<svg width="193" height="126" fill="none" xmlns="http://www.w3.org/2000/svg"><path opacity=".1" fill="#3F4051" d="M35.401 72.79l1.29-2.159 35.978 21.495-1.29 2.158z"/><path opacity=".1" fill="#3F4051" d="M88.137 40.489l2.513.085-1.519 44.843-2.512-.085z"/><path opacity=".1" fill="#3F4051" d="M156.211 35.022l1.82 1.735-54.212 56.852-1.82-1.735z"/><path opacity=".1" fill="#3F4051" d="M150.25 99.746l.25 2.502-42.006 4.195-.25-2.502z"/><path opacity=".1" fill="#3F4051" d="M172.184 71.526l-2.514-.036.41-28.512 2.513.036z"/><path opacity=".1" fill="#3F4051" d="M37.203 47.828l-1.096-2.263 35.47-17.18 1.096 2.263z"/><path opacity=".1" fill="#3F4051" d="M109.992 21.625l.047-2.514 42.498.798-.047 2.513z"/><circle cx="172" cy="23" r="20" stroke="#ECECEE" stroke-width="2"/><path d="M183.305 27.309c-.302-.303-.714-.55-1.126-.715v-1.428c0-2.306-.741-4.449-2.005-6.179a11.052 11.052 0 0 0-4.998-3.707l.055-.77v-.082c0-.384-.165-.714-.412-.989a1.492 1.492 0 0 0-.934-.439h-4.531a1.562 1.562 0 0 0-.961.44 1.41 1.41 0 0 0-.412.988v.082l.055.77c-2.005.741-3.736 2.032-4.971 3.735a10.448 10.448 0 0 0-2.005 6.179v1.428a3.724 3.724 0 0 0-1.126.714 3.175 3.175 0 0 0-.934 2.252c0 .22.192.412.439.412H183.8a.434.434 0 0 0 .439-.44c0-.878-.357-1.675-.934-2.251zm-14.446-12.88c0-.138.055-.248.138-.358a.722.722 0 0 1 .412-.192h4.366a.48.48 0 0 1 .385.192c.11.11.165.22.165.357v.028l-.055 1.07-.467 7.306c0 .165-.082.302-.165.412 0 0 0 .027-.027.027a.56.56 0 0 1-.412.165h-3.214a.556.556 0 0 1-.411-.165.853.853 0 0 1-.138-.192c0-.027 0-.055-.027-.082-.028-.055-.028-.11-.055-.165l-.467-7.305-.028-1.071v-.028zm-6.948 11.973v-1.208c0-2.115.687-4.065 1.84-5.685a9.813 9.813 0 0 1 4.312-3.35l.439 6.728c0 .137.055.247.083.357.027.055.027.137.055.192.082.165.192.33.302.467.274.275.604.412 1.016.412h3.268c.412 0 .742-.165 1.016-.412l.028-.027c.082-.083.11-.165.165-.275.027-.055.082-.11.109-.165a.846.846 0 0 0 .083-.357c0-.055.027-.11.055-.165l.412-6.728a9.811 9.811 0 0 1 4.311 3.35 9.69 9.69 0 0 1 1.841 5.685v1.209h-19.335v-.028zm-2.005 2.72a2.27 2.27 0 0 1 .632-1.182 2.307 2.307 0 0 1 1.62-.686h18.895a2.2 2.2 0 0 1 1.621.686c.329.33.549.742.631 1.181h-23.399z" fill="#AB49C9"/><circle cx="21" cy="59" r="20" stroke="#ECECEE" stroke-width="2"/><path fill-rule="evenodd" clip-rule="evenodd" d="M32.054 55.036v6.381a2.248 2.248 0 0 1 1.79 2.098c0 1.18-.985 2.141-2.193 2.141-1.207 0-2.192-.961-2.192-2.141 0-.262.18-.437.448-.437s.447.175.447.437c0 .7.582 1.267 1.297 1.267.716 0 1.298-.568 1.298-1.267 0-.7-.582-1.267-1.298-1.267-.268 0-.447-.175-.447-.438v-6.337H18.321v9.878l.089.025c.085.023.145.04.179.106l2.103 2.185a.394.394 0 0 1 .134.306v2.535c0 .262-.18.437-.448.437H11.61c-.268 0-.447-.175-.447-.437v-2.535c0-.088.045-.219.09-.306l2.102-2.185c.09-.088.179-.131.268-.131v-9.878h-3.176c-.268 0-.447-.174-.447-.437v-3.758c0-.262.179-.437.447-.437h3.177a.221.221 0 0 0 .044-.088.218.218 0 0 1 .045-.087l1.879-2.491A.41.41 0 0 1 15.95 48a.41.41 0 0 1 .358.175l1.878 2.491c.045.044.09.131.09.175h3.892c.052 0 .09.015.12.027.022.009.04.017.059.017l9.483 3.758h.045l.09.087c.044 0 .044.044.044.044 0 .022.011.033.023.044.01.01.022.022.022.044v.174zm-14.852-4.151l-1.252-1.661-1.253 1.66h2.505zm2.684 19.186v-1.923l-1.879-1.923h-4.116l-1.833 1.923v1.923h7.828zm-2.505-12.543v-1.661l-.013.007v-.445h-2.876v9.885h.461l2.428.037v-1.574l-.013.007V62.78l.013-.007v-1.66l-.013.006v-.961l.013-.007V58.49l-.013.007v-.961l.013-.007zm-6.486-5.813v2.884H29.37l-7.247-2.884H10.895z" fill="#FF4A3D"/><circle cx="90" cy="21" r="20" stroke="#ECECEE" stroke-width="2"/><path d="M96.757 22.163v-.11h3.015c.67 0 1.228-.553 1.228-1.216V17.69c0-.663-.558-1.215-1.228-1.215h-3.015v-3.259c0-.663-.558-1.215-1.228-1.215h-7.48c-.28 0-.503.055-.67.22-.224-.11-.447-.22-.67-.22h-7.48c-.67 0-1.229.552-1.229 1.215v3.148c0 .663.558 1.215 1.228 1.215h3.015v3.369h-3.015c-.67 0-1.228.553-1.228 1.216v3.148c0 .663.558 1.215 1.228 1.215h3.015v3.259c0 .663.558 1.215 1.228 1.215h7.48c.28 0 .503-.055.67-.22.224.11.447.22.67.22h7.48c.671 0 1.229-.552 1.229-1.215v-3.148c0-.663-.558-1.215-1.228-1.215h-3.015v-3.26zm-8.709-9.114h7.481c.056 0 .112.056.112.11v3.15c0 .054-.056.11-.112.11h-7.425c-.055 0-.111-.056-.111-.11v-3.15c-.056-.054 0-.11.056-.11zm0 4.585h2.848c.055 0 .111.055.111.11v3.148c0 .056-.056.11-.111.11H83.47c-.056 0-.112-.054-.112-.11v-3.148c0-.055.056-.11.112-.11h4.578zm-8.82-1.16c-.056 0-.111-.055-.111-.11v-3.149c0-.055.055-.11.111-.11h7.48c.057 0 .112.055.112.11v3.148c0 .056-.055.11-.111.11h-7.481zm0 9.058c-.056 0-.111-.055-.111-.11v-3.149c0-.055.055-.11.111-.11h7.481c.056 0 .111.055.111.11v3.149c0 .055-.055.11-.111.11h-7.481zm11.724 4.529H83.47c-.056 0-.112-.055-.112-.11v-3.149c0-.055.056-.11.112-.11h7.426c.055 0 .111.055.111.11v3.149c.056.055 0 .11-.056.11zm0-4.584h-2.848c-.055 0-.111-.055-.111-.11v-3.149c0-.055.056-.11.111-.11h7.426c.056 0 .112.055.112.11v3.148c0 .056-.056.11-.112.11h-4.578zm8.82 1.16c.056 0 .111.055.111.11v3.148c0 .056-.055.11-.111.11h-7.48c-.057 0-.112-.054-.112-.11v-3.148c0-.055.055-.11.111-.11h7.481zm-4.243-5.634h-3.238c-.056 0-.111-.055-.111-.11v-3.149c0-.055.055-.11.111-.11h7.481c.056 0 .111.055.111.11v3.148c0 .056-.055.11-.111.11h-4.243z" fill="#F1C40F"/><circle cx="88" cy="105" r="20" stroke="#ECECEE" stroke-width="2"/><path d="M88.231 92.46c-7.053 0-12.77 5.717-12.77 12.77S81.178 118 88.23 118 101 112.283 101 105.23c-.009-7.049-5.721-12.761-12.77-12.77zm.548 24.417v-2.246a.548.548 0 1 0-1.096 0v2.246a11.669 11.669 0 0 1-11.099-11.099h2.246a.548.548 0 1 0 0-1.096h-2.246a11.669 11.669 0 0 1 11.1-11.099v2.246a.548.548 0 1 0 1.095 0v-2.246a11.669 11.669 0 0 1 11.099 11.099h-2.246a.548.548 0 1 0 0 1.096h2.251a11.669 11.669 0 0 1-11.104 11.099z" fill="#358EFE"/><path d="M94.011 110.325l-5.232-5.32v-5.527a.548.548 0 0 0-1.095 0v5.752a.54.54 0 0 0 .159.383l5.385 5.479a.548.548 0 0 0 .783-.767z" fill="#358EFE"/><circle cx="168" cy="91" r="20" stroke="#ECECEE" stroke-width="2"/><path d="M178.287 84.085a2.378 2.378 0 0 0-1.67-.707h-14.069a2.803 2.803 0 0 0-.764-1.557 2.805 2.805 0 0 0-3.963 0 2.753 2.753 0 0 0-.821 1.981v15.201c0 .651.255 1.246.708 1.67a2.375 2.375 0 0 0 1.67.708h17.239c.651 0 1.245-.255 1.67-.708a2.378 2.378 0 0 0 .707-1.67V85.755a2.27 2.27 0 0 0-.707-1.67zm-20.381-.283c0-.51.226-.99.566-1.33a1.91 1.91 0 0 1 1.33-.566c.51 0 .991.226 1.331.566.339.34.566.793.566 1.33v12.739a2.832 2.832 0 0 0-1.897-.737c-.198 0-.368.029-.537.057a.399.399 0 0 0-.17.057 1.58 1.58 0 0 0-.34.113c-.057.028-.113.056-.198.085-.085.056-.198.085-.283.141-.057.029-.113.085-.17.142-.057.056-.142.085-.198.141V83.802zm20.182 15.201c0 .396-.169.764-.424 1.047a1.525 1.525 0 0 1-1.047.425h-17.211c-.396 0-.764-.17-1.047-.425a1.523 1.523 0 0 1-.425-1.047v-.396c0-.51.198-.991.566-1.33a1.91 1.91 0 0 1 1.331-.567c.509 0 .99.198 1.33.566.34.34.566.821.566 1.33h.906V84.285h14.04c.368 0 .736.17.991.424.255.255.424.651.424 1.047v13.248z" fill="#3CBA7A"/><path d="M174.326 87.652a.459.459 0 0 0-.424-.311h-7.247a.495.495 0 0 0-.424.283l-1.444 3.34a.531.531 0 0 0-.057.198c0 .255.199.453.453.453h.793v4.5c0 .34.141.652.34.878l.028.029c.226.226.538.368.906.368h6.057c.34 0 .651-.142.906-.368.227-.227.368-.538.368-.906v-4.5h.793c.056 0 .113 0 .17-.03a.436.436 0 0 0 .226-.594l-1.444-3.34zm-2.972 8.86h-2.151v-2.66c0-.142.057-.284.141-.369a.539.539 0 0 1 .368-.141h1.133c.141 0 .283.056.368.141a.537.537 0 0 1 .141.368v2.661zm2.321-.368c0 .113-.028.198-.113.255a.42.42 0 0 1-.255.113h-1.047v-2.66c0-.397-.17-.737-.425-.991a1.439 1.439 0 0 0-.99-.425h-1.133c-.396 0-.736.17-.99.425a1.325 1.325 0 0 0-.425.962v2.66h-1.047c-.113 0-.198-.027-.255-.112l-.028-.029c-.057-.056-.085-.141-.085-.254v-4.473h6.793v4.53zm.453-5.435h-8.265l1.075-2.462h6.681l1.075 2.462h-.566z" fill="#3CBA7A"/></svg>