<svg width="16" height="17" fill="none" xmlns="http://www.w3.org/2000/svg"><g clip-path="url(#clip0)"><path d="M15.205.5H.695C.299.5 0 .8 0 1.2v14.7c0 .3.298.6.696.6h14.608c.398 0 .696-.3.696-.7V1.2c-.1-.4-.398-.7-.795-.7zM4.671 14.1H2.385V6.5H4.77v7.6h-.1zM3.578 5.5c-.795 0-1.392-.7-1.392-1.4 0-.8.597-1.4 1.392-1.4.795 0 1.39.6 1.39 1.4-.098.7-.695 1.4-1.39 1.4zm9.938 8.6H11.13v-3.7c0-.9 0-2-1.192-2-1.193 0-1.391 1-1.391 2v3.8H6.16V6.5h2.286v1c.298-.6 1.093-1.2 2.187-1.2 2.385 0 2.782 1.6 2.782 3.6v4.2h.1z" fill="#57586E"/></g><defs><clipPath id="clip0"><path fill="#fff" transform="translate(0 .5)" d="M0 0H16V16H0z"/></clipPath></defs></svg>