<svg width="21" height="20" fill="none" xmlns="http://www.w3.org/2000/svg"><g clip-path="url(#clip0)"><path d="M19.595 0H.896C.384 0 0 .375 0 .875V19.25c0 .375.384.75.896.75h18.827c.512 0 .896-.375.896-.875V.875C20.491.375 20.107 0 19.595 0zM6.019 17H3.074V7.5h3.073V17H6.02zM4.61 6.25c-1.024 0-1.792-.875-1.792-1.75 0-1 .768-1.75 1.792-1.75 1.025 0 1.793.75 1.793 1.75-.128.875-.896 1.75-1.792 1.75zM17.419 17h-3.074v-4.625c0-1.125 0-2.5-1.537-2.5s-1.793 1.25-1.793 2.5v4.75H7.94V7.5h2.946v1.25c.384-.75 1.409-1.5 2.817-1.5 3.074 0 3.586 2 3.586 4.5V17h.128z" fill="#358EFE"/></g><defs><clipPath id="clip0"><path fill="#fff" d="M0 0H20.619V20H0z"/></clipPath></defs></svg>