<svg fill="none" height="974" width="171" xmlns="http://www.w3.org/2000/svg" xmlns:xlink="http://www.w3.org/1999/xlink"><linearGradient id="a" gradientUnits="userSpaceOnUse" x1="25" x2="25" y1="695" y2="1058"><stop offset=".592" stop-color="#55a0fe"/><stop offset=".782" stop-color="#55a0fe" stop-opacity="0"/></linearGradient><g stroke-dasharray="4 4" stroke-width="2"><path d="m25 8.997h-7c-8.284 0-15 6.716-15 15v334" stroke="#3cba7a"/><path d="m25 354.997h-6c-8.284 0-15 6.715-15 15v325" stroke="#f1c40f"/><path d="m25.002 694.996h-6.502c-8.284 0-15 6.715-15 15v186.5c0 8.284 6.716 15 15 15l135.5.001c8.284 0 15 6.716 15 15v46.503" stroke="url(#a)"/></g><circle cx="25" cy="8" fill="#3cba7a" r="8"/><circle cx="25" cy="355" fill="#f1c40f" r="8"/><circle cx="25" cy="695" fill="#358efe" r="8"/></svg>