<svg fill="none" height="451" width="527" xmlns="http://www.w3.org/2000/svg"><clipPath id="a"><path d="M0 0h65.96v65.202H0z" transform="matrix(1 0 0 -1 205.527 410.842)"/></clipPath><clipPath id="b"><path d="M0 0h65.96v65.202H0z" transform="matrix(1 0 0 -1 211.863 327.411)"/></clipPath><clipPath id="c"><path d="M0 0h65.96v65.202H0z" transform="matrix(1 0 0 -1 230.875 367.543)"/></clipPath><clipPath id="d"><path d="M0 0h65.96v65.202H0z" transform="matrix(1 0 0 -1 273.117 367.543)"/></clipPath><clipPath id="e"><path d="M0 0h65.96v65.202H0z" transform="matrix(1 0 0 -1 293.184 407.673)"/></clipPath><clipPath id="f"><path d="M0 0h65.96v65.202H0z" transform="matrix(1 0 0 -1 335.426 407.673)"/></clipPath><clipPath id="g"><path d="M0 0h65.96v65.202H0z" transform="matrix(1 0 0 -1 207.02 410.869)"/></clipPath><clipPath id="h"><path d="M0 0h65.96v65.202H0z" transform="matrix(1 0 0 -1 227.086 451)"/></clipPath><clipPath id="i"><path d="M0 0h65.96v65.202H0z" transform="matrix(1 0 0 -1 269.328 451)"/></clipPath><clipPath id="j"><path d="M0 0h65.96v65.202H0z" transform="matrix(1 0 0 -1 226.067 180.315)"/></clipPath><clipPath id="k"><path d="M0 0h65.96v65.202H0z" transform="matrix(1 0 0 -1 247.188 219.39)"/></clipPath><clipPath id="l"><path d="M0 0h65.96v65.202H0z" transform="matrix(1 0 0 -1 264.086 180.315)"/></clipPath><clipPath id="m"><path d="M0 0h65.96v65.202H0z" transform="matrix(1 0 0 -1 283.094 220.445)"/></clipPath><clipPath id="n"><path d="M0 0h65.96v65.202H0z" transform="matrix(1 0 0 -1 366.527 144.408)"/></clipPath><clipPath id="o"><path d="M0 0h65.96v65.202H0z" transform="matrix(1 0 0 -1 387.648 183.483)"/></clipPath><clipPath id="p"><path d="M0 0h65.96v65.202H0z" transform="matrix(1 0 0 -1 404.543 144.408)"/></clipPath><clipPath id="q"><path d="M0 0h65.96v65.202H0z" transform="matrix(1 0 0 -1 423.555 184.539)"/></clipPath><clipPath id="r"><path d="M0 0h65.96v65.202H0z" transform="matrix(1 0 0 -1 403.488 65.202)"/></clipPath><clipPath id="s"><path d="M0 0h65.96v65.202H0z" transform="matrix(1 0 0 -1 424.609 104.277)"/></clipPath><clipPath id="t"><path d="M0 0h65.96v65.202H0z" transform="matrix(1 0 0 -1 441.508 65.202)"/></clipPath><clipPath id="u"><path d="M0 0h65.96v65.202H0z" transform="matrix(1 0 0 -1 460.516 105.333)"/></clipPath><clipPath id="v"><path d="M0 0h65.96v65.202H0z" transform="matrix(1 0 0 -1 325.336 220.445)"/></clipPath><clipPath id="w"><path d="M0 0h65.96v65.202H0z" transform="matrix(1 0 0 -1 387.648 260.576)"/></clipPath><clipPath id="x"><path d="M0 0h65.96v65.202H0z" transform="matrix(1 0 0 -1 407.712 299.652)"/></clipPath><clipPath id="y"><path d="M0 0h65.96v65.202H0z" transform="matrix(1 0 0 -1 313.246 368.599)"/></clipPath><clipPath id="z"><path d="M0 0h65.96v65.202H0z" transform="matrix(1 0 0 -1 307.387 101.109)"/></clipPath><clipPath id="A"><path d="M0 0h65.96v65.202H0z" transform="matrix(1 0 0 -1 328.507 140.184)"/></clipPath><clipPath id="B"><path d="M0 0h65.96v65.202H0z" transform="matrix(1 0 0 -1 346.461 180.315)"/></clipPath><clipPath id="C"><path d="M0 0h65.96v65.202H0z" transform="matrix(1 0 0 -1 367.582 220.446)"/></clipPath><clipPath id="D"><path d="M0 0h65.96v65.202H0z" transform="matrix(1 0 0 -1 446.789 299.651)"/></clipPath><clipPath id="E"><path d="M0 0h65.96v65.202H0z" transform="matrix(1 0 0 -1 0 331.636)"/></clipPath><clipPath id="F"><path d="M0 0h65.96v65.202H0z" transform="matrix(1 0 0 -1 193.376 289.494)"/></clipPath><clipPath id="G"><path d="M0 0h65.96v65.202H0z" transform="matrix(1 0 0 -1 42.242 331.636)"/></clipPath><clipPath id="H"><path d="M0 0h65.96v65.202H0z" transform="matrix(1 0 0 -1 104.555 371.767)"/></clipPath><clipPath id="I"><path d="M0 0h65.96v65.202H0z" transform="matrix(1 0 0 -1 124.617 410.842)"/></clipPath><clipPath id="J"><path d="M0 0h65.96v65.202H0z" transform="matrix(1 0 0 -1 84.488 331.636)"/></clipPath><clipPath id="K"><path d="M0 0h65.96v65.202H0z" transform="matrix(1 0 0 -1 163.695 410.842)"/></clipPath><g fill="#f2f2f2" opacity=".3"><g clip-path="url(#a)" opacity=".2"><rect height="63.359" opacity=".45" rx="9.621" transform="rotate(152.96 77.354 231.27) skewX(-.08)" width="19.242"/><rect height="63.359" opacity=".45" rx="9.621" transform="matrix(.89069 .45461 .45337 -.89132 225.637 402.094)" width="19.242"/><ellipse rx="9.654" ry="9.671" transform="matrix(1 0 0 -1 238.502 397.901)"/><ellipse rx="9.654" ry="9.671" transform="matrix(1 0 0 -1 258.533 358.636)"/><ellipse rx="9.654" ry="9.671" transform="matrix(1 0 0 -1 218.47 358.636)"/></g><g clip-path="url(#b)" opacity=".2"><rect height="63.359" opacity=".45" rx="9.621" transform="rotate(152.96 90.552 190.317) skewX(-.08)" width="19.242"/><rect height="63.359" opacity=".45" rx="9.621" transform="matrix(.89069 .45461 .45337 -.89132 231.973 318.663)" width="19.242"/><ellipse rx="9.654" ry="9.671" transform="matrix(1 0 0 -1 244.838 314.47)"/><ellipse rx="9.654" ry="9.671" transform="matrix(1 0 0 -1 264.869 275.205)"/><ellipse rx="9.654" ry="9.671" transform="matrix(1 0 0 -1 224.806 275.205)"/></g><g clip-path="url(#c)" opacity=".2"><rect height="63.359" opacity=".45" rx="9.621" transform="rotate(152.96 95.234 212.668) skewX(-.08)" width="19.242"/><rect height="63.359" opacity=".45" rx="9.621" transform="matrix(.89069 .45461 .45337 -.89132 250.984 358.795)" width="19.242"/><ellipse rx="9.654" ry="9.671" transform="matrix(1 0 0 -1 263.849 354.602)"/><ellipse rx="9.654" ry="9.671" transform="matrix(1 0 0 -1 283.881 315.337)"/><ellipse rx="9.654" ry="9.671" transform="matrix(1 0 0 -1 243.818 315.337)"/></g><g clip-path="url(#d)" opacity=".2"><rect height="63.359" opacity=".45" rx="9.621" transform="rotate(152.96 116.355 217.747) skewX(-.08)" width="19.242"/><rect height="63.359" opacity=".45" rx="9.621" transform="matrix(.89069 .45461 .45337 -.89132 293.227 358.795)" width="19.242"/><ellipse rx="9.654" ry="9.671" transform="matrix(1 0 0 -1 306.091 354.602)"/><ellipse rx="9.654" ry="9.671" transform="matrix(1 0 0 -1 326.123 315.337)"/><ellipse rx="9.654" ry="9.671" transform="matrix(1 0 0 -1 286.06 315.337)"/></g><g clip-path="url(#e)" opacity=".2"><rect height="63.359" opacity=".45" rx="9.621" transform="rotate(152.96 121.563 240.224) skewX(-.08)" width="19.242"/><rect height="63.359" opacity=".45" rx="9.621" transform="matrix(.89069 .45461 .45337 -.89132 313.293 398.925)" width="19.242"/><ellipse rx="9.654" ry="9.671" transform="matrix(1 0 0 -1 326.158 394.732)"/><ellipse rx="9.654" ry="9.671" transform="matrix(1 0 0 -1 346.189 355.467)"/><ellipse rx="9.654" ry="9.671" transform="matrix(1 0 0 -1 306.127 355.467)"/></g><g clip-path="url(#f)" opacity=".2"><rect height="63.359" opacity=".45" rx="9.621" transform="rotate(152.96 142.684 245.303) skewX(-.08)" width="19.242"/><rect height="63.359" opacity=".45" rx="9.621" transform="matrix(.89069 .45461 .45337 -.89132 355.535 398.925)" width="19.242"/><ellipse rx="9.654" ry="9.671" transform="matrix(1 0 0 -1 368.4 394.732)"/><ellipse rx="9.654" ry="9.671" transform="matrix(1 0 0 -1 388.431 355.468)"/><ellipse rx="9.654" ry="9.671" transform="matrix(1 0 0 -1 348.369 355.468)"/></g><g clip-path="url(#g)" opacity=".2"><rect height="63.359" opacity=".45" rx="9.621" transform="rotate(152.96 78.097 231.464) skewX(-.08)" width="19.242"/><rect height="63.359" opacity=".45" rx="9.621" transform="matrix(.89069 .45461 .45337 -.89132 227.129 402.121)" width="19.242"/><ellipse rx="9.654" ry="9.671" transform="matrix(1 0 0 -1 239.994 397.928)"/><ellipse rx="9.654" ry="9.671" transform="matrix(1 0 0 -1 260.025 358.663)"/><ellipse rx="9.654" ry="9.671" transform="matrix(1 0 0 -1 219.963 358.663)"/></g><g clip-path="url(#h)" opacity=".2"><rect height="63.359" opacity=".45" rx="9.621" transform="rotate(152.96 83.305 253.941) skewX(-.08)" width="19.242"/><rect height="63.359" opacity=".45" rx="9.621" transform="matrix(.89069 .45461 .45337 -.89132 247.195 442.252)" width="19.242"/><ellipse rx="9.654" ry="9.671" transform="matrix(1 0 0 -1 260.06 438.059)"/><ellipse rx="9.654" ry="9.671" transform="matrix(1 0 0 -1 280.092 398.794)"/><ellipse rx="9.654" ry="9.671" transform="matrix(1 0 0 -1 240.029 398.794)"/></g><g clip-path="url(#i)" opacity=".2"><rect height="63.359" opacity=".45" rx="9.621" transform="rotate(152.96 104.426 259.02) skewX(-.08)" width="19.242"/><rect height="63.359" opacity=".45" rx="9.621" transform="matrix(.89069 .45461 .45337 -.89132 289.438 442.252)" width="19.242"/><ellipse rx="9.654" ry="9.671" transform="matrix(1 0 0 -1 302.302 438.059)"/><ellipse rx="9.654" ry="9.671" transform="matrix(1 0 0 -1 322.334 398.794)"/><ellipse rx="9.654" ry="9.671" transform="matrix(1 0 0 -1 282.271 398.794)"/></g><g clip-path="url(#j)" opacity=".2"><rect height="63.359" opacity=".45" rx="9.621" transform="rotate(152.96 115.339 118.476) skewX(-.08)" width="19.242"/><rect height="63.359" opacity=".45" rx="9.621" transform="matrix(.89069 .45461 .45337 -.89132 246.177 171.567)" width="19.242"/><ellipse rx="9.654" ry="9.671" transform="matrix(1 0 0 -1 259.041 167.374)"/><ellipse rx="9.654" ry="9.671" transform="matrix(1 0 0 -1 279.073 128.109)"/><ellipse rx="9.654" ry="9.671" transform="matrix(1 0 0 -1 239.01 128.109)"/></g><g clip-path="url(#k)" opacity=".2"><rect height="63.359" opacity=".45" rx="9.621" transform="rotate(152.96 121.201 140.553) skewX(-.08)" width="19.242"/><rect height="63.359" opacity=".45" rx="9.621" transform="matrix(.89069 .45461 .45337 -.89132 267.297 210.642)" width="19.242"/><ellipse rx="9.654" ry="9.671" transform="matrix(1 0 0 -1 280.162 206.448)"/><ellipse rx="9.654" ry="9.671" transform="matrix(1 0 0 -1 300.193 167.184)"/><ellipse rx="9.654" ry="9.671" transform="matrix(1 0 0 -1 260.131 167.184)"/></g><g clip-path="url(#l)" opacity=".2"><rect height="63.359" opacity=".45" rx="9.621" transform="rotate(152.96 134.348 123.047) skewX(-.08)" width="19.242"/><rect height="63.359" opacity=".45" rx="9.621" transform="matrix(.89069 .45461 .45337 -.89132 284.195 171.567)" width="19.242"/><ellipse rx="9.654" ry="9.671" transform="matrix(1 0 0 -1 297.06 167.374)"/><ellipse rx="9.654" ry="9.671" transform="matrix(1 0 0 -1 317.091 128.109)"/><ellipse rx="9.654" ry="9.671" transform="matrix(1 0 0 -1 277.029 128.109)"/></g><g clip-path="url(#m)" opacity=".2"><rect height="63.359" opacity=".45" rx="9.621" transform="rotate(152.96 139.028 145.398) skewX(-.08)" width="19.242"/><rect height="63.359" opacity=".45" rx="9.621" transform="matrix(.89069 .45461 .45337 -.89132 303.203 211.697)" width="19.242"/><ellipse rx="9.654" ry="9.671" transform="matrix(1 0 0 -1 316.068 207.504)"/><ellipse rx="9.654" ry="9.671" transform="matrix(1 0 0 -1 336.099 168.239)"/><ellipse rx="9.654" ry="9.671" transform="matrix(1 0 0 -1 296.037 168.24)"/></g><g clip-path="url(#n)" opacity=".2"><rect height="63.359" opacity=".45" rx="9.621" transform="rotate(152.96 189.886 117.41) skewX(-.08)" width="19.242"/><rect height="63.359" opacity=".45" rx="9.621" transform="matrix(.89069 .45461 .45337 -.89132 386.637 135.66)" width="19.242"/><ellipse rx="9.654" ry="9.671" transform="matrix(1 0 0 -1 399.502 131.467)"/><ellipse rx="9.654" ry="9.671" transform="matrix(1 0 0 -1 419.533 92.202)"/><ellipse rx="9.654" ry="9.671" transform="matrix(1 0 0 -1 379.47 92.202)"/></g><g clip-path="url(#o)" opacity=".2"><rect height="63.359" opacity=".45" rx="9.621" transform="rotate(152.96 195.748 139.487) skewX(-.08)" width="19.242"/><rect height="63.359" opacity=".45" rx="9.621" transform="matrix(.89069 .45461 .45337 -.89132 407.758 174.735)" width="19.242"/><ellipse rx="9.654" ry="9.671" transform="matrix(1 0 0 -1 420.623 170.542)"/><ellipse rx="9.654" ry="9.671" transform="matrix(1 0 0 -1 440.654 131.277)"/><ellipse rx="9.654" ry="9.671" transform="matrix(1 0 0 -1 400.591 131.278)"/></g><g clip-path="url(#p)" opacity=".2"><rect height="63.359" opacity=".45" rx="9.621" transform="rotate(152.96 208.894 121.98) skewX(-.08)" width="19.242"/><rect height="63.359" opacity=".45" rx="9.621" transform="matrix(.89069 .45461 .45337 -.89132 424.652 135.66)" width="19.242"/><ellipse rx="9.654" ry="9.671" transform="matrix(1 0 0 -1 437.517 131.467)"/><ellipse rx="9.654" ry="9.671" transform="matrix(1 0 0 -1 457.549 92.202)"/><ellipse rx="9.654" ry="9.671" transform="matrix(1 0 0 -1 417.486 92.202)"/></g><g clip-path="url(#q)" opacity=".2"><rect height="63.359" opacity=".45" rx="9.621" transform="rotate(152.96 213.575 144.331) skewX(-.08)" width="19.242"/><rect height="63.359" opacity=".45" rx="9.621" transform="matrix(.89069 .45461 .45337 -.89132 443.664 175.791)" width="19.242"/><ellipse rx="9.654" ry="9.671" transform="matrix(1 0 0 -1 456.529 171.598)"/><ellipse rx="9.654" ry="9.671" transform="matrix(1 0 0 -1 476.56 132.333)"/><ellipse rx="9.654" ry="9.671" transform="matrix(1 0 0 -1 436.498 132.333)"/></g><g clip-path="url(#r)" opacity=".2"><rect height="63.359" opacity=".45" rx="9.621" transform="rotate(152.96 217.889 82.25) skewX(-.08)" width="19.242"/><rect height="63.359" opacity=".45" rx="9.621" transform="matrix(.89069 .45461 .45337 -.89132 423.597 56.454)" width="19.242"/><ellipse rx="9.654" ry="9.671" transform="matrix(1 0 0 -1 436.462 52.261)"/><ellipse rx="9.654" ry="9.671" transform="matrix(1 0 0 -1 456.493 12.996)"/><ellipse rx="9.654" ry="9.671" transform="matrix(1 0 0 -1 416.431 12.997)"/></g><g clip-path="url(#s)" opacity=".2"><rect height="63.359" opacity=".45" rx="9.621" transform="rotate(152.96 223.751 104.327) skewX(-.08)" width="19.242"/><rect height="63.359" opacity=".45" rx="9.621" transform="matrix(.89069 .45461 .45337 -.89132 444.719 95.53)" width="19.242"/><ellipse rx="9.654" ry="9.671" transform="matrix(1 0 0 -1 457.584 91.336)"/><ellipse rx="9.654" ry="9.671" transform="matrix(1 0 0 -1 477.615 52.071)"/><ellipse rx="9.654" ry="9.671" transform="matrix(1 0 0 -1 437.553 52.071)"/></g><g clip-path="url(#t)" opacity=".2"><rect height="63.359" opacity=".45" rx="9.621" transform="rotate(152.96 236.899 86.821) skewX(-.08)" width="19.242"/><rect height="63.359" opacity=".45" rx="9.621" transform="matrix(.89069 .45461 .45337 -.89132 461.617 56.454)" width="19.242"/><ellipse rx="9.654" ry="9.671" transform="matrix(1 0 0 -1 474.482 52.261)"/><ellipse rx="9.654" ry="9.671" transform="matrix(1 0 0 -1 494.513 12.996)"/><ellipse rx="9.654" ry="9.671" transform="matrix(1 0 0 -1 454.451 12.996)"/></g><g clip-path="url(#u)" opacity=".2"><rect height="63.359" opacity=".45" rx="9.621" transform="rotate(152.96 241.578 109.172) skewX(-.08)" width="19.242"/><rect height="63.359" opacity=".45" rx="9.621" transform="matrix(.89069 .45461 .45337 -.89132 480.625 96.585)" width="19.242"/><ellipse rx="9.654" ry="9.671" transform="matrix(1 0 0 -1 493.49 92.392)"/><ellipse rx="9.654" ry="9.671" transform="matrix(1 0 0 -1 513.522 53.127)"/><ellipse rx="9.654" ry="9.671" transform="matrix(1 0 0 -1 473.459 53.127)"/></g><g clip-path="url(#v)" opacity=".2"><rect height="63.359" opacity=".45" rx="9.621" transform="rotate(152.96 160.149 150.476) skewX(-.08)" width="19.242"/><rect height="63.359" opacity=".45" rx="9.621" transform="matrix(.89069 .45461 .45337 -.89132 345.445 211.697)" width="19.242"/><ellipse rx="9.654" ry="9.671" transform="matrix(1 0 0 -1 358.31 207.504)"/><ellipse rx="9.654" ry="9.671" transform="matrix(1 0 0 -1 378.342 168.239)"/><ellipse rx="9.654" ry="9.671" transform="matrix(1 0 0 -1 338.279 168.24)"/></g><g clip-path="url(#w)" opacity=".2"><rect height="63.359" opacity=".45" rx="9.621" transform="rotate(152.96 186.48 178.033) skewX(-.08)" width="19.242"/><rect height="63.359" opacity=".45" rx="9.621" transform="matrix(.89069 .45461 .45337 -.89132 407.758 251.828)" width="19.242"/><ellipse rx="9.654" ry="9.671" transform="matrix(1 0 0 -1 420.623 247.635)"/><ellipse rx="9.654" ry="9.671" transform="matrix(1 0 0 -1 440.654 208.37)"/><ellipse rx="9.654" ry="9.671" transform="matrix(1 0 0 -1 400.591 208.37)"/></g><g clip-path="url(#x)" opacity=".2"><rect height="63.359" opacity=".45" rx="9.621" transform="rotate(152.96 191.814 199.983) skewX(-.08)" width="19.242"/><rect height="63.359" opacity=".45" rx="9.621" transform="matrix(.89069 .45461 .45337 -.89132 427.821 290.904)" width="19.242"/><ellipse rx="9.654" ry="9.671" transform="matrix(1 0 0 -1 440.686 286.71)"/><ellipse rx="9.654" ry="9.671" transform="matrix(1 0 0 -1 460.717 247.446)"/><ellipse rx="9.654" ry="9.671" transform="matrix(1 0 0 -1 420.655 247.446)"/></g><g clip-path="url(#y)" opacity=".2"><rect height="63.359" opacity=".45" rx="9.621" transform="rotate(152.96 136.292 223.1) skewX(-.08)" width="19.242"/><rect height="63.359" opacity=".45" rx="9.621" transform="matrix(.89069 .45461 .45337 -.89132 333.355 359.851)" width="19.242"/><ellipse rx="9.654" ry="9.671" transform="matrix(1 0 0 -1 346.22 355.657)"/><ellipse rx="9.654" ry="9.671" transform="matrix(1 0 0 -1 366.252 316.393)"/><ellipse rx="9.654" ry="9.671" transform="matrix(1 0 0 -1 326.189 316.393)"/></g><g clip-path="url(#z)" opacity=".2"><rect height="63.359" opacity=".45" rx="9.621" transform="rotate(152.96 165.521 88.65) skewX(-.08)" width="19.242"/><rect height="63.359" opacity=".45" rx="9.621" transform="matrix(.89069 .45461 .45337 -.89132 327.496 92.361)" width="19.242"/><ellipse rx="9.654" ry="9.671" transform="matrix(1 0 0 -1 340.361 88.168)"/><ellipse rx="9.654" ry="9.671" transform="matrix(1 0 0 -1 360.392 48.903)"/><ellipse rx="9.654" ry="9.671" transform="matrix(1 0 0 -1 320.33 48.904)"/></g><g clip-path="url(#A)" opacity=".2"><rect height="63.359" opacity=".45" rx="9.621" transform="rotate(152.96 171.384 110.727) skewX(-.08)" width="19.242"/><rect height="63.359" opacity=".45" rx="9.621" transform="matrix(.89069 .45461 .45337 -.89132 348.617 131.436)" width="19.242"/><ellipse rx="9.654" ry="9.671" transform="matrix(1 0 0 -1 361.481 127.243)"/><ellipse rx="9.654" ry="9.671" transform="matrix(1 0 0 -1 381.513 87.978)"/><ellipse rx="9.654" ry="9.671" transform="matrix(1 0 0 -1 341.45 87.978)"/></g><g clip-path="url(#B)" opacity=".2"><rect height="63.359" opacity=".45" rx="9.621" transform="rotate(152.96 175.536 132.951) skewX(-.08)" width="19.242"/><rect height="63.359" opacity=".45" rx="9.621" transform="matrix(.89069 .45461 .45337 -.89132 366.57 171.567)" width="19.242"/><ellipse rx="9.654" ry="9.671" transform="matrix(1 0 0 -1 379.435 167.374)"/><ellipse rx="9.654" ry="9.671" transform="matrix(1 0 0 -1 399.467 128.109)"/><ellipse rx="9.654" ry="9.671" transform="matrix(1 0 0 -1 359.404 128.11)"/></g><g clip-path="url(#C)" opacity=".2"><rect height="63.359" opacity=".45" rx="9.621" transform="rotate(152.96 181.272 155.555) skewX(-.08)" width="19.242"/><rect height="63.359" opacity=".45" rx="9.621" transform="matrix(.89069 .45461 .45337 -.89132 387.692 211.698)" width="19.242"/><ellipse rx="9.654" ry="9.671" transform="matrix(1 0 0 -1 400.556 207.505)"/><ellipse rx="9.654" ry="9.671" transform="matrix(1 0 0 -1 420.588 168.24)"/><ellipse rx="9.654" ry="9.671" transform="matrix(1 0 0 -1 380.525 168.24)"/></g><g clip-path="url(#D)" opacity=".2"><rect height="63.359" opacity=".45" rx="9.621" transform="rotate(152.96 211.353 204.68) skewX(-.08)" width="19.242"/><rect height="63.359" opacity=".45" rx="9.621" transform="matrix(.89069 .45461 .45337 -.89132 466.898 290.903)" width="19.242"/><ellipse rx="9.654" ry="9.671" transform="matrix(1 0 0 -1 479.763 286.71)"/><ellipse rx="9.654" ry="9.671" transform="matrix(1 0 0 -1 499.795 247.445)"/><ellipse rx="9.654" ry="9.671" transform="matrix(1 0 0 -1 459.732 247.446)"/></g><g clip-path="url(#E)" opacity=".2"><rect height="63.359" opacity=".45" rx="9.621" transform="rotate(152.96 -15.887 166.958) skewX(-.08)" width="19.242"/><rect height="63.359" opacity=".45" rx="9.621" transform="matrix(.89069 .45461 .45337 -.89132 20.11 322.888)" width="19.242"/><ellipse rx="9.654" ry="9.671" transform="matrix(1 0 0 -1 32.974 318.695)"/><ellipse rx="9.654" ry="9.671" transform="matrix(1 0 0 -1 53.006 279.43)"/><ellipse rx="9.654" ry="9.671" transform="matrix(1 0 0 -1 12.943 279.43)"/></g><g clip-path="url(#F)" opacity=".2"><rect height="63.359" opacity=".45" rx="9.621" transform="rotate(152.96 85.867 169.135) skewX(-.08)" width="19.242"/><rect height="63.359" opacity=".45" rx="9.621" transform="matrix(.89069 .45461 .45337 -.89132 213.485 280.746)" width="19.242"/><ellipse rx="9.654" ry="9.671" transform="matrix(1 0 0 -1 226.35 276.552)"/><ellipse rx="9.654" ry="9.671" transform="matrix(1 0 0 -1 246.381 237.288)"/><ellipse rx="9.654" ry="9.671" transform="matrix(1 0 0 -1 206.319 237.288)"/></g><g clip-path="url(#G)" opacity=".2"><rect height="63.359" opacity=".45" rx="9.621" transform="rotate(152.96 5.223 172.034) skewX(-.08)" width="19.242"/><rect height="63.359" opacity=".45" rx="9.621" transform="matrix(.89069 .45461 .45337 -.89132 62.352 322.888)" width="19.242"/><ellipse rx="9.654" ry="9.671" transform="matrix(1 0 0 -1 75.216 318.695)"/><ellipse rx="9.654" ry="9.671" transform="matrix(1 0 0 -1 95.226 279.429)"/><ellipse rx="9.654" ry="9.671" transform="matrix(1 0 0 -1 55.185 279.43)"/></g><g clip-path="url(#H)" opacity=".2"><rect height="63.359" opacity=".45" rx="9.621" transform="rotate(152.96 31.565 199.593) skewX(-.08)" width="19.242"/><rect height="63.359" opacity=".45" rx="9.621" transform="matrix(.89069 .45461 .45337 -.89132 124.664 363.019)" width="19.242"/><ellipse rx="9.654" ry="9.671" transform="matrix(1 0 0 -1 137.529 358.825)"/><ellipse rx="9.654" ry="9.671" transform="matrix(1 0 0 -1 157.56 319.561)"/><ellipse rx="9.654" ry="9.671" transform="matrix(1 0 0 -1 117.498 319.561)"/></g><g clip-path="url(#I)" opacity=".2"><rect height="63.359" opacity=".45" rx="9.621" transform="rotate(152.96 36.899 221.543) skewX(-.08)" width="19.242"/><rect height="63.359" opacity=".45" rx="9.621" transform="matrix(.89069 .45461 .45337 -.89132 144.727 402.094)" width="19.242"/><ellipse rx="9.654" ry="9.671" transform="matrix(1 0 0 -1 157.591 397.901)"/><ellipse rx="9.654" ry="9.671" transform="matrix(1 0 0 -1 177.623 358.636)"/><ellipse rx="9.654" ry="9.671" transform="matrix(1 0 0 -1 137.56 358.636)"/></g><g clip-path="url(#J)" opacity=".2"><rect height="63.359" opacity=".45" rx="9.621" transform="rotate(152.96 26.346 177.113) skewX(-.08)" width="19.242"/><rect height="63.359" opacity=".45" rx="9.621" transform="matrix(.89069 .45461 .45337 -.89132 104.597 322.888)" width="19.242"/><ellipse rx="9.654" ry="9.671" transform="matrix(1 0 0 -1 117.462 318.695)"/><ellipse rx="9.654" ry="9.671" transform="matrix(1 0 0 -1 137.472 279.429)"/><ellipse rx="9.654" ry="9.671" transform="matrix(1 0 0 -1 97.431 279.43)"/></g><g clip-path="url(#K)" opacity=".2"><rect height="63.359" opacity=".45" rx="9.621" transform="rotate(152.96 56.438 226.241) skewX(-.08)" width="19.242"/><rect height="63.359" opacity=".45" rx="9.621" transform="matrix(.89069 .45461 .45337 -.89132 183.805 402.094)" width="19.242"/><ellipse rx="9.654" ry="9.671" transform="matrix(1 0 0 -1 196.666 397.901)"/><ellipse rx="9.654" ry="9.671" transform="matrix(1 0 0 -1 216.701 358.636)"/><ellipse rx="9.654" ry="9.671" transform="matrix(1 0 0 -1 176.638 358.636)"/></g></g></svg>