<svg fill="none" height="451" width="527" xmlns="http://www.w3.org/2000/svg"><clipPath id="a"><path d="M0 0h65.96v65.202H0z" transform="matrix(-1 0 0 1 320.949 40.158)"/></clipPath><clipPath id="b"><path d="M0 0h65.96v65.202H0z" transform="matrix(-1 0 0 1 314.613 123.589)"/></clipPath><clipPath id="c"><path d="M0 0h65.96v65.202H0z" transform="matrix(-1 0 0 1 295.602 83.457)"/></clipPath><clipPath id="d"><path d="M0 0h65.96v65.202H0z" transform="matrix(-1 0 0 1 253.359 83.457)"/></clipPath><clipPath id="e"><path d="M0 0h65.96v65.202H0z" transform="matrix(-1 0 0 1 233.293 43.327)"/></clipPath><clipPath id="f"><path d="M0 0h65.96v65.202H0z" transform="matrix(-1 0 0 1 191.051 43.327)"/></clipPath><clipPath id="g"><path d="M0 0h65.96v65.202H0z" transform="matrix(-1 0 0 1 319.457 40.13)"/></clipPath><clipPath id="h"><path d="M0 0h65.96v65.202H0z" transform="matrix(-1 0 0 1 299.391 0)"/></clipPath><clipPath id="i"><path d="M0 0h65.96v65.202H0z" transform="matrix(-1 0 0 1 257.148 0)"/></clipPath><clipPath id="j"><path d="M0 0h65.96v65.202H0z" transform="matrix(-1 0 0 1 300.409 270.685)"/></clipPath><clipPath id="k"><path d="M0 0h65.96v65.202H0z" transform="matrix(-1 0 0 1 279.289 231.61)"/></clipPath><clipPath id="l"><path d="M0 0h65.96v65.202H0z" transform="matrix(-1 0 0 1 262.391 270.685)"/></clipPath><clipPath id="m"><path d="M0 0h65.96v65.202H0z" transform="matrix(-1 0 0 1 243.383 230.555)"/></clipPath><clipPath id="n"><path d="M0 0h65.96v65.202H0z" transform="matrix(-1 0 0 1 159.949 306.592)"/></clipPath><clipPath id="o"><path d="M0 0h65.96v65.202H0z" transform="matrix(-1 0 0 1 138.828 267.517)"/></clipPath><clipPath id="p"><path d="M0 0h65.96v65.202H0z" transform="matrix(-1 0 0 1 121.934 306.592)"/></clipPath><clipPath id="q"><path d="M0 0h65.96v65.202H0z" transform="matrix(-1 0 0 1 102.922 266.461)"/></clipPath><clipPath id="r"><path d="M0 0h65.96v65.202H0z" transform="matrix(-1 0 0 1 122.989 385.798)"/></clipPath><clipPath id="s"><path d="M0 0h65.96v65.202H0z" transform="matrix(-1 0 0 1 101.867 346.723)"/></clipPath><clipPath id="t"><path d="M0 0h65.96v65.202H0z" transform="matrix(-1 0 0 1 84.969 385.798)"/></clipPath><clipPath id="u"><path d="M0 0h65.96v65.202H0z" transform="matrix(-1 0 0 1 65.96 345.667)"/></clipPath><clipPath id="v"><path d="M0 0h65.96v65.202H0z" transform="matrix(-1 0 0 1 201.141 230.555)"/></clipPath><clipPath id="w"><path d="M0 0h65.96v65.202H0z" transform="matrix(-1 0 0 1 138.828 190.424)"/></clipPath><clipPath id="x"><path d="M0 0h65.96v65.202H0z" transform="matrix(-1 0 0 1 118.765 151.348)"/></clipPath><clipPath id="y"><path d="M0 0h65.96v65.202H0z" transform="matrix(-1 0 0 1 213.23 82.401)"/></clipPath><clipPath id="z"><path d="M0 0h65.96v65.202H0z" transform="matrix(-1 0 0 1 219.09 349.891)"/></clipPath><clipPath id="A"><path d="M0 0h65.96v65.202H0z" transform="matrix(-1 0 0 1 197.969 310.816)"/></clipPath><clipPath id="B"><path d="M0 0h65.96v65.202H0z" transform="matrix(-1 0 0 1 180.016 270.685)"/></clipPath><clipPath id="C"><path d="M0 0h65.96v65.202H0z" transform="matrix(-1 0 0 1 158.894 230.554)"/></clipPath><clipPath id="D"><path d="M0 0h65.96v65.202H0z" transform="matrix(-1 0 0 1 79.688 151.349)"/></clipPath><clipPath id="E"><path d="M0 0h65.96v65.202H0z" transform="matrix(-1 0 0 1 526.477 119.364)"/></clipPath><clipPath id="F"><path d="M0 0h65.96v65.202H0z" transform="matrix(-1 0 0 1 333.101 161.506)"/></clipPath><clipPath id="G"><path d="M0 0h65.96v65.202H0z" transform="matrix(-1 0 0 1 484.234 119.364)"/></clipPath><clipPath id="H"><path d="M0 0h65.96v65.202H0z" transform="matrix(-1 0 0 1 421.922 79.233)"/></clipPath><clipPath id="I"><path d="M0 0h65.96v65.202H0z" transform="matrix(-1 0 0 1 401.859 40.158)"/></clipPath><clipPath id="J"><path d="M0 0h65.96v65.202H0z" transform="matrix(-1 0 0 1 441.989 119.364)"/></clipPath><clipPath id="K"><path d="M0 0h65.96v65.202H0z" transform="matrix(-1 0 0 1 362.781 40.158)"/></clipPath><g fill="#f2f2f2" opacity=".4"><g clip-path="url(#a)" opacity=".2"><rect height="63.359" opacity=".45" rx="9.621" transform="rotate(-27.04 239.239 -547.571) skewX(-.08)" width="19.242"/><rect height="63.359" opacity=".45" rx="9.621" transform="matrix(-.89069 -.45461 -.45337 .89132 300.84 48.906)" width="19.242"/><ellipse rx="9.654" ry="9.671" transform="matrix(-1 0 0 1 287.975 53.1)"/><ellipse rx="9.654" ry="9.671" transform="matrix(-1 0 0 1 267.943 92.364)"/><ellipse rx="9.654" ry="9.671" transform="matrix(-1 0 0 1 308.006 92.364)"/></g><g clip-path="url(#b)" opacity=".2"><rect height="63.359" opacity=".45" rx="9.621" transform="rotate(-27.04 409.56 -492.68) skewX(-.08)" width="19.242"/><rect height="63.359" opacity=".45" rx="9.621" transform="matrix(-.89069 -.45461 -.45337 .89132 294.504 132.337)" width="19.242"/><ellipse rx="9.654" ry="9.671" transform="matrix(-1 0 0 1 281.639 136.53)"/><ellipse rx="9.654" ry="9.671" transform="matrix(-1 0 0 1 261.608 175.795)"/><ellipse rx="9.654" ry="9.671" transform="matrix(-1 0 0 1 301.67 175.795)"/></g><g clip-path="url(#c)" opacity=".2"><rect height="63.359" opacity=".45" rx="9.621" transform="rotate(-27.04 316.603 -473.214) skewX(-.08)" width="19.242"/><rect height="63.359" opacity=".45" rx="9.621" transform="matrix(-.89069 -.45461 -.45337 .89132 275.492 92.205)" width="19.242"/><ellipse rx="9.654" ry="9.671" transform="matrix(-1 0 0 1 262.627 96.398)"/><ellipse rx="9.654" ry="9.671" transform="matrix(-1 0 0 1 242.596 135.663)"/><ellipse rx="9.654" ry="9.671" transform="matrix(-1 0 0 1 282.659 135.663)"/></g><g clip-path="url(#d)" opacity=".2"><rect height="63.359" opacity=".45" rx="9.621" transform="rotate(-27.04 295.482 -385.374) skewX(-.08)" width="19.242"/><rect height="63.359" opacity=".45" rx="9.621" transform="matrix(-.89069 -.45461 -.45337 .89132 233.25 92.205)" width="19.242"/><ellipse rx="9.654" ry="9.671" transform="matrix(-1 0 0 1 220.385 96.398)"/><ellipse rx="9.654" ry="9.671" transform="matrix(-1 0 0 1 200.354 135.663)"/><ellipse rx="9.654" ry="9.671" transform="matrix(-1 0 0 1 240.416 135.663)"/></g><g clip-path="url(#e)" opacity=".2"><rect height="63.359" opacity=".45" rx="9.621" transform="rotate(-27.04 202 -363.711) skewX(-.08)" width="19.242"/><rect height="63.359" opacity=".45" rx="9.621" transform="matrix(-.89069 -.45461 -.45337 .89132 213.184 52.075)" width="19.242"/><ellipse rx="9.654" ry="9.671" transform="matrix(-1 0 0 1 200.319 56.268)"/><ellipse rx="9.654" ry="9.671" transform="matrix(-1 0 0 1 180.287 95.533)"/><ellipse rx="9.654" ry="9.671" transform="matrix(-1 0 0 1 220.35 95.533)"/></g><g clip-path="url(#f)" opacity=".2"><rect height="63.359" opacity=".45" rx="9.621" transform="rotate(-27.04 180.879 -275.871) skewX(-.08)" width="19.242"/><rect height="63.359" opacity=".45" rx="9.621" transform="matrix(-.89069 -.45461 -.45337 .89132 170.942 52.075)" width="19.242"/><ellipse rx="9.654" ry="9.671" transform="matrix(-1 0 0 1 158.077 56.268)"/><ellipse rx="9.654" ry="9.671" transform="matrix(-1 0 0 1 138.045 95.532)"/><ellipse rx="9.654" ry="9.671" transform="matrix(-1 0 0 1 178.108 95.532)"/></g><g clip-path="url(#g)" opacity=".2"><rect height="63.359" opacity=".45" rx="9.621" transform="rotate(-27.04 238.436 -544.482) skewX(-.08)" width="19.242"/><rect height="63.359" opacity=".45" rx="9.621" transform="matrix(-.89069 -.45461 -.45337 .89132 299.348 48.879)" width="19.242"/><ellipse rx="9.654" ry="9.671" transform="matrix(-1 0 0 1 286.483 53.072)"/><ellipse rx="9.654" ry="9.671" transform="matrix(-1 0 0 1 266.451 92.337)"/><ellipse rx="9.654" ry="9.671" transform="matrix(-1 0 0 1 306.514 92.337)"/></g><g clip-path="url(#h)" opacity=".2"><rect height="63.359" opacity=".45" rx="9.621" transform="rotate(-27.04 144.953 -522.822) skewX(-.08)" width="19.242"/><rect height="63.359" opacity=".45" rx="9.621" transform="matrix(-.89069 -.45461 -.45337 .89132 279.281 8.748)" width="19.242"/><ellipse rx="9.654" ry="9.671" transform="matrix(-1 0 0 1 266.416 12.941)"/><ellipse rx="9.654" ry="9.671" transform="matrix(-1 0 0 1 246.385 52.206)"/><ellipse rx="9.654" ry="9.671" transform="matrix(-1 0 0 1 286.448 52.206)"/></g><g clip-path="url(#i)" opacity=".2"><rect height="63.359" opacity=".45" rx="9.621" transform="rotate(-27.04 123.832 -434.982) skewX(-.08)" width="19.242"/><rect height="63.359" opacity=".45" rx="9.621" transform="matrix(-.89069 -.45461 -.45337 .89132 237.039 8.748)" width="19.242"/><ellipse rx="9.654" ry="9.671" transform="matrix(-1 0 0 1 224.174 12.941)"/><ellipse rx="9.654" ry="9.671" transform="matrix(-1 0 0 1 204.143 52.206)"/><ellipse rx="9.654" ry="9.671" transform="matrix(-1 0 0 1 244.205 52.206)"/></g><g clip-path="url(#j)" opacity=".2"><rect height="63.359" opacity=".45" rx="9.621" transform="rotate(-27.04 708.338 -389.598) skewX(-.08)" width="19.242"/><rect height="63.359" opacity=".45" rx="9.621" transform="matrix(-.89069 -.45461 -.45337 .89132 280.3 279.433)" width="19.242"/><ellipse rx="9.654" ry="9.671" transform="matrix(-1 0 0 1 267.435 283.626)"/><ellipse rx="9.654" ry="9.671" transform="matrix(-1 0 0 1 247.404 322.891)"/><ellipse rx="9.654" ry="9.671" transform="matrix(-1 0 0 1 287.466 322.891)"/></g><g clip-path="url(#k)" opacity=".2"><rect height="63.359" opacity=".45" rx="9.621" transform="rotate(-27.04 616.523 -365.216) skewX(-.08)" width="19.242"/><rect height="63.359" opacity=".45" rx="9.621" transform="matrix(-.89069 -.45461 -.45337 .89132 259.18 240.358)" width="19.242"/><ellipse rx="9.654" ry="9.671" transform="matrix(-1 0 0 1 246.315 244.552)"/><ellipse rx="9.654" ry="9.671" transform="matrix(-1 0 0 1 226.283 283.816)"/><ellipse rx="9.654" ry="9.671" transform="matrix(-1 0 0 1 266.346 283.816)"/></g><g clip-path="url(#l)" opacity=".2"><rect height="63.359" opacity=".45" rx="9.621" transform="rotate(-27.04 689.329 -310.54) skewX(-.08)" width="19.242"/><rect height="63.359" opacity=".45" rx="9.621" transform="matrix(-.89069 -.45461 -.45337 .89132 242.281 279.433)" width="19.242"/><ellipse rx="9.654" ry="9.671" transform="matrix(-1 0 0 1 229.417 283.626)"/><ellipse rx="9.654" ry="9.671" transform="matrix(-1 0 0 1 209.385 322.891)"/><ellipse rx="9.654" ry="9.671" transform="matrix(-1 0 0 1 249.448 322.891)"/></g><g clip-path="url(#m)" opacity=".2"><rect height="63.359" opacity=".45" rx="9.621" transform="rotate(-27.04 596.374 -291.08) skewX(-.08)" width="19.242"/><rect height="63.359" opacity=".45" rx="9.621" transform="matrix(-.89069 -.45461 -.45337 .89132 223.273 239.303)" width="19.242"/><ellipse rx="9.654" ry="9.671" transform="matrix(-1 0 0 1 210.409 243.496)"/><ellipse rx="9.654" ry="9.671" transform="matrix(-1 0 0 1 190.377 282.76)"/><ellipse rx="9.654" ry="9.671" transform="matrix(-1 0 0 1 230.44 282.76)"/></g><g clip-path="url(#n)" opacity=".2"><rect height="63.359" opacity=".45" rx="9.621" transform="rotate(-27.04 712.772 -79.565) skewX(-.08)" width="19.242"/><rect height="63.359" opacity=".45" rx="9.621" transform="matrix(-.89069 -.45461 -.45337 .89132 139.84 315.34)" width="19.242"/><ellipse rx="9.654" ry="9.671" transform="matrix(-1 0 0 1 126.975 319.533)"/><ellipse rx="9.654" ry="9.671" transform="matrix(-1 0 0 1 106.944 358.798)"/><ellipse rx="9.654" ry="9.671" transform="matrix(-1 0 0 1 147.006 358.798)"/></g><g clip-path="url(#o)" opacity=".2"><rect height="63.359" opacity=".45" rx="9.621" transform="rotate(-27.04 620.958 -55.182) skewX(-.08)" width="19.242"/><rect height="63.359" opacity=".45" rx="9.621" transform="matrix(-.89069 -.45461 -.45337 .89132 118.719 276.265)" width="19.242"/><ellipse rx="9.654" ry="9.671" transform="matrix(-1 0 0 1 105.854 280.458)"/><ellipse rx="9.654" ry="9.671" transform="matrix(-1 0 0 1 85.823 319.722)"/><ellipse rx="9.654" ry="9.671" transform="matrix(-1 0 0 1 125.885 319.722)"/></g><g clip-path="url(#p)" opacity=".2"><rect height="63.359" opacity=".45" rx="9.621" transform="rotate(-27.04 693.765 -.514) skewX(-.08)" width="19.242"/><rect height="63.359" opacity=".45" rx="9.621" transform="matrix(-.89069 -.45461 -.45337 .89132 101.824 315.34)" width="19.242"/><ellipse rx="9.654" ry="9.671" transform="matrix(-1 0 0 1 88.96 319.533)"/><ellipse rx="9.654" ry="9.671" transform="matrix(-1 0 0 1 68.928 358.798)"/><ellipse rx="9.654" ry="9.671" transform="matrix(-1 0 0 1 108.991 358.798)"/></g><g clip-path="url(#q)" opacity=".2"><rect height="63.359" opacity=".45" rx="9.621" transform="rotate(-27.04 600.809 18.955) skewX(-.08)" width="19.242"/><rect height="63.359" opacity=".45" rx="9.621" transform="matrix(-.89069 -.45461 -.45337 .89132 82.813 275.209)" width="19.242"/><ellipse rx="9.654" ry="9.671" transform="matrix(-1 0 0 1 69.948 279.402)"/><ellipse rx="9.654" ry="9.671" transform="matrix(-1 0 0 1 49.916 318.667)"/><ellipse rx="9.654" ry="9.671" transform="matrix(-1 0 0 1 89.979 318.667)"/></g><g clip-path="url(#r)" opacity=".2"><rect height="63.359" opacity=".45" rx="9.621" transform="rotate(-27.04 858.997 36.895) skewX(-.08)" width="19.242"/><rect height="63.359" opacity=".45" rx="9.621" transform="matrix(-.89069 -.45461 -.45337 .89132 102.879 394.546)" width="19.242"/><ellipse rx="9.654" ry="9.671" transform="matrix(-1 0 0 1 90.014 398.739)"/><ellipse rx="9.654" ry="9.671" transform="matrix(-1 0 0 1 69.983 438.004)"/><ellipse rx="9.654" ry="9.671" transform="matrix(-1 0 0 1 110.046 438.004)"/></g><g clip-path="url(#s)" opacity=".2"><rect height="63.359" opacity=".45" rx="9.621" transform="rotate(-27.04 767.182 61.279) skewX(-.08)" width="19.242"/><rect height="63.359" opacity=".45" rx="9.621" transform="matrix(-.89069 -.45461 -.45337 .89132 81.758 355.471)" width="19.242"/><ellipse rx="9.654" ry="9.671" transform="matrix(-1 0 0 1 68.893 359.664)"/><ellipse rx="9.654" ry="9.671" transform="matrix(-1 0 0 1 48.861 398.928)"/><ellipse rx="9.654" ry="9.671" transform="matrix(-1 0 0 1 88.924 398.928)"/></g><g clip-path="url(#t)" opacity=".2"><rect height="63.359" opacity=".45" rx="9.621" transform="rotate(-27.04 839.987 115.955) skewX(-.08)" width="19.242"/><rect height="63.359" opacity=".45" rx="9.621" transform="matrix(-.89069 -.45461 -.45337 .89132 64.86 394.546)" width="19.242"/><ellipse rx="9.654" ry="9.671" transform="matrix(-1 0 0 1 51.995 398.739)"/><ellipse rx="9.654" ry="9.671" transform="matrix(-1 0 0 1 31.963 438.004)"/><ellipse rx="9.654" ry="9.671" transform="matrix(-1 0 0 1 72.026 438.004)"/></g><g clip-path="url(#u)" opacity=".2"><rect height="63.359" opacity=".45" rx="9.621" transform="rotate(-27.04 747.035 135.417) skewX(-.08)" width="19.242"/><rect height="63.359" opacity=".45" rx="9.621" transform="matrix(-.89069 -.45461 -.45337 .89132 45.851 354.415)" width="19.242"/><ellipse rx="9.654" ry="9.671" transform="matrix(-1 0 0 1 32.986 358.608)"/><ellipse rx="9.654" ry="9.671" transform="matrix(-1 0 0 1 12.955 397.873)"/><ellipse rx="9.654" ry="9.671" transform="matrix(-1 0 0 1 53.017 397.873)"/></g><g clip-path="url(#v)" opacity=".2"><rect height="63.359" opacity=".45" rx="9.621" transform="rotate(-27.04 575.254 -203.24) skewX(-.08)" width="19.242"/><rect height="63.359" opacity=".45" rx="9.621" transform="matrix(-.89069 -.45461 -.45337 .89132 181.031 239.303)" width="19.242"/><ellipse rx="9.654" ry="9.671" transform="matrix(-1 0 0 1 168.166 243.496)"/><ellipse rx="9.654" ry="9.671" transform="matrix(-1 0 0 1 148.135 282.76)"/><ellipse rx="9.654" ry="9.671" transform="matrix(-1 0 0 1 188.198 282.76)"/></g><g clip-path="url(#w)" opacity=".2"><rect height="63.359" opacity=".45" rx="9.621" transform="rotate(-27.04 460.647 -93.729) skewX(-.08)" width="19.242"/><rect height="63.359" opacity=".45" rx="9.621" transform="matrix(-.89069 -.45461 -.45337 .89132 118.719 199.172)" width="19.242"/><ellipse rx="9.654" ry="9.671" transform="matrix(-1 0 0 1 105.854 203.365)"/><ellipse rx="9.654" ry="9.671" transform="matrix(-1 0 0 1 85.823 242.63)"/><ellipse rx="9.654" ry="9.671" transform="matrix(-1 0 0 1 125.885 242.63)"/></g><g clip-path="url(#x)" opacity=".2"><rect height="63.359" opacity=".45" rx="9.621" transform="rotate(-27.04 369.361 -71.546) skewX(-.08)" width="19.242"/><rect height="63.359" opacity=".45" rx="9.621" transform="matrix(-.89069 -.45461 -.45337 .89132 98.655 160.096)" width="19.242"/><ellipse rx="9.654" ry="9.671" transform="matrix(-1 0 0 1 85.79 164.289)"/><ellipse rx="9.654" ry="9.671" transform="matrix(-1 0 0 1 65.76 203.554)"/><ellipse rx="9.654" ry="9.671" transform="matrix(-1 0 0 1 105.822 203.554)"/></g><g clip-path="url(#y)" opacity=".2"><rect height="63.359" opacity=".45" rx="9.621" transform="rotate(-27.04 273.222 -302.456) skewX(-.08)" width="19.242"/><rect height="63.359" opacity=".45" rx="9.621" transform="matrix(-.89069 -.45461 -.45337 .89132 193.121 91.15)" width="19.242"/><ellipse rx="9.654" ry="9.671" transform="matrix(-1 0 0 1 180.256 95.343)"/><ellipse rx="9.654" ry="9.671" transform="matrix(-1 0 0 1 160.225 134.607)"/><ellipse rx="9.654" ry="9.671" transform="matrix(-1 0 0 1 200.287 134.607)"/></g><g clip-path="url(#z)" opacity=".2"><rect height="63.359" opacity=".45" rx="9.621" transform="rotate(-27.04 832.38 -180.896) skewX(-.08)" width="19.242"/><rect height="63.359" opacity=".45" rx="9.621" transform="matrix(-.89069 -.45461 -.45337 .89132 198.98 358.639)" width="19.242"/><ellipse rx="9.654" ry="9.671" transform="matrix(-1 0 0 1 186.116 362.832)"/><ellipse rx="9.654" ry="9.671" transform="matrix(-1 0 0 1 166.084 402.096)"/><ellipse rx="9.654" ry="9.671" transform="matrix(-1 0 0 1 206.147 402.096)"/></g><g clip-path="url(#A)" opacity=".2"><rect height="63.359" opacity=".45" rx="9.621" transform="rotate(-27.04 740.566 -156.515) skewX(-.08)" width="19.242"/><rect height="63.359" opacity=".45" rx="9.621" transform="matrix(-.89069 -.45461 -.45337 .89132 177.86 319.564)" width="19.242"/><ellipse rx="9.654" ry="9.671" transform="matrix(-1 0 0 1 164.995 323.757)"/><ellipse rx="9.654" ry="9.671" transform="matrix(-1 0 0 1 144.964 363.022)"/><ellipse rx="9.654" ry="9.671" transform="matrix(-1 0 0 1 185.026 363.022)"/></g><g clip-path="url(#B)" opacity=".2"><rect height="63.359" opacity=".45" rx="9.621" transform="rotate(-27.04 648.14 -139.246) skewX(-.08)" width="19.242"/><rect height="63.359" opacity=".45" rx="9.621" transform="matrix(-.89069 -.45461 -.45337 .89132 159.906 279.433)" width="19.242"/><ellipse rx="9.654" ry="9.671" transform="matrix(-1 0 0 1 147.041 283.626)"/><ellipse rx="9.654" ry="9.671" transform="matrix(-1 0 0 1 127.01 322.89)"/><ellipse rx="9.654" ry="9.671" transform="matrix(-1 0 0 1 167.073 322.89)"/></g><g clip-path="url(#C)" opacity=".2"><rect height="63.359" opacity=".45" rx="9.621" transform="rotate(-27.04 554.13 -115.391) skewX(-.08)" width="19.242"/><rect height="63.359" opacity=".45" rx="9.621" transform="matrix(-.89069 -.45461 -.45337 .89132 138.785 239.302)" width="19.242"/><ellipse rx="9.654" ry="9.671" transform="matrix(-1 0 0 1 125.92 243.495)"/><ellipse rx="9.654" ry="9.671" transform="matrix(-1 0 0 1 105.889 282.76)"/><ellipse rx="9.654" ry="9.671" transform="matrix(-1 0 0 1 145.951 282.76)"/></g><g clip-path="url(#D)" opacity=".2"><rect height="63.359" opacity=".45" rx="9.621" transform="rotate(-27.04 349.823 9.713) skewX(-.08)" width="19.242"/><rect height="63.359" opacity=".45" rx="9.621" transform="matrix(-.89069 -.45461 -.45337 .89132 59.578 160.097)" width="19.242"/><ellipse rx="9.654" ry="9.671" transform="matrix(-1 0 0 1 46.713 164.29)"/><ellipse rx="9.654" ry="9.671" transform="matrix(-1 0 0 1 26.682 203.554)"/><ellipse rx="9.654" ry="9.671" transform="matrix(-1 0 0 1 66.745 203.554)"/></g><g clip-path="url(#E)" opacity=".2"><rect height="63.359" opacity=".45" rx="9.621" transform="rotate(-27.04 506.707 -935.352) skewX(-.08)" width="19.242"/><rect height="63.359" opacity=".45" rx="9.621" transform="matrix(-.89069 -.45461 -.45337 .89132 506.367 128.112)" width="19.242"/><ellipse rx="9.654" ry="9.671" transform="matrix(-1 0 0 1 493.502 132.305)"/><ellipse rx="9.654" ry="9.671" transform="matrix(-1 0 0 1 473.471 171.57)"/><ellipse rx="9.654" ry="9.671" transform="matrix(-1 0 0 1 513.534 171.57)"/></g><g clip-path="url(#F)" opacity=".2"><rect height="63.359" opacity=".45" rx="9.621" transform="rotate(-27.04 497.652 -512.167) skewX(-.08)" width="19.242"/><rect height="63.359" opacity=".45" rx="9.621" transform="matrix(-.89069 -.45461 -.45337 .89132 312.992 170.254)" width="19.242"/><ellipse rx="9.654" ry="9.671" transform="matrix(-1 0 0 1 300.127 174.448)"/><ellipse rx="9.654" ry="9.671" transform="matrix(-1 0 0 1 280.095 213.712)"/><ellipse rx="9.654" ry="9.671" transform="matrix(-1 0 0 1 320.158 213.712)"/></g><g clip-path="url(#G)" opacity=".2"><rect height="63.359" opacity=".45" rx="9.621" transform="rotate(-27.04 485.597 -847.556) skewX(-.08)" width="19.242"/><rect height="63.359" opacity=".45" rx="9.621" transform="matrix(-.89069 -.45461 -.45337 .89132 464.125 128.112)" width="19.242"/><ellipse rx="9.654" ry="9.671" transform="matrix(-1 0 0 1 451.26 132.305)"/><ellipse rx="9.654" ry="9.671" transform="matrix(-1 0 0 1 431.251 171.571)"/><ellipse rx="9.654" ry="9.671" transform="matrix(-1 0 0 1 471.291 171.57)"/></g><g clip-path="url(#H)" opacity=".2"><rect height="63.359" opacity=".45" rx="9.621" transform="rotate(-27.04 370.98 -738.001) skewX(-.08)" width="19.242"/><rect height="63.359" opacity=".45" rx="9.621" transform="matrix(-.89069 -.45461 -.45337 .89132 401.812 87.981)" width="19.242"/><ellipse rx="9.654" ry="9.671" transform="matrix(-1 0 0 1 388.948 92.175)"/><ellipse rx="9.654" ry="9.671" transform="matrix(-1 0 0 1 368.916 131.439)"/><ellipse rx="9.654" ry="9.671" transform="matrix(-1 0 0 1 408.979 131.439)"/></g><g clip-path="url(#I)" opacity=".2"><rect height="63.359" opacity=".45" rx="9.621" transform="rotate(-27.04 279.694 -715.821) skewX(-.08)" width="19.242"/><rect height="63.359" opacity=".45" rx="9.621" transform="matrix(-.89069 -.45461 -.45337 .89132 381.75 48.906)" width="19.242"/><ellipse rx="9.654" ry="9.671" transform="matrix(-1 0 0 1 368.885 53.1)"/><ellipse rx="9.654" ry="9.671" transform="matrix(-1 0 0 1 348.854 92.364)"/><ellipse rx="9.654" ry="9.671" transform="matrix(-1 0 0 1 388.916 92.364)"/></g><g clip-path="url(#J)" opacity=".2"><rect height="63.359" opacity=".45" rx="9.621" transform="rotate(-27.04 464.475 -759.71) skewX(-.08)" width="19.242"/><rect height="63.359" opacity=".45" rx="9.621" transform="matrix(-.89069 -.45461 -.45337 .89132 421.879 128.112)" width="19.242"/><ellipse rx="9.654" ry="9.671" transform="matrix(-1 0 0 1 409.014 132.305)"/><ellipse rx="9.654" ry="9.671" transform="matrix(-1 0 0 1 389.005 171.571)"/><ellipse rx="9.654" ry="9.671" transform="matrix(-1 0 0 1 429.045 171.57)"/></g><g clip-path="url(#K)" opacity=".2"><rect height="63.359" opacity=".45" rx="9.621" transform="rotate(-27.04 260.155 -634.559) skewX(-.08)" width="19.242"/><rect height="63.359" opacity=".45" rx="9.621" transform="matrix(-.89069 -.45461 -.45337 .89132 342.672 48.906)" width="19.242"/><ellipse rx="9.654" ry="9.671" transform="matrix(-1 0 0 1 329.811 53.1)"/><ellipse rx="9.654" ry="9.671" transform="matrix(-1 0 0 1 309.776 92.364)"/><ellipse rx="9.654" ry="9.671" transform="matrix(-1 0 0 1 349.838 92.364)"/></g></g></svg>