<svg width="66" height="45" fill="none" xmlns="http://www.w3.org/2000/svg"><path d="M18.323 0C7.293 6.742 0 17.247 0 29.007 0 39.199 7.472 45 15.833 45c7.65 0 14.054-5.645 14.054-12.387 0-6.742-5.337-11.289-12.097-11.289-1.423 0-3.024.157-3.558.47 1.6-5.644 8.183-12.23 13.876-14.895L18.323 0zm36.114 0C43.407 6.742 36.29 17.247 36.29 29.007 36.291 39.199 43.585 45 51.946 45 59.774 45 66 39.355 66 32.613c0-6.742-5.337-11.289-11.92-11.289-1.422 0-3.023.157-3.557.47C51.946 16.15 58.706 9.564 64.399 6.9L54.437 0z" fill="#F1F5F7"/></svg>