<svg width="40" height="40" fill="none" xmlns="http://www.w3.org/2000/svg"><path d="M32.799 13.328l1.682-1.682c.913-.913.913-2.4 0-3.314a2.346 2.346 0 0 0-3.315 0l-1.795 1.796a16.409 16.409 0 0 0-6.246-2.641v-2.33h1.563a.78.78 0 0 0 .78-.782V2.344A2.346 2.346 0 0 0 23.126 0h-6.25a2.346 2.346 0 0 0-2.344 2.344v2.031c0 .432.35.781.781.781h1.563v2.33a16.406 16.406 0 0 0-6.246 2.642L8.834 8.332a2.346 2.346 0 0 0-3.315 0 2.346 2.346 0 0 0 0 3.314l1.682 1.682a16.39 16.39 0 0 0-3.607 10.266C3.594 32.64 10.954 40 20 40s16.406-7.36 16.406-16.406A16.39 16.39 0 0 0 32.8 13.328zm-.528-3.891a.782.782 0 0 1 1.105 1.104l-1.614 1.614c-.364-.373-.746-.73-1.143-1.066l1.652-1.652zM16.094 2.344c0-.431.35-.781.781-.781h6.25c.43 0 .781.35.781.78v1.25h-7.812v-1.25zm5.468 2.812v2.105a16.809 16.809 0 0 0-3.125 0V5.156h3.125zM6.624 9.436a.782.782 0 0 1 1.105 0L9.38 11.09c-.396.337-.778.693-1.141 1.066l-1.615-1.614a.783.783 0 0 1 0-1.104zM20 38.439c-8.185 0-14.844-6.66-14.844-14.844a14.826 14.826 0 0 1 5.865-11.822 14.831 14.831 0 0 1 11.206-2.857 14.833 14.833 0 0 1 8.926 4.883 14.826 14.826 0 0 1 3.69 9.796c0 8.185-6.658 14.843-14.843 14.843z" fill="#fff"/><path d="M20 25.938a2.346 2.346 0 0 0 2.344-2.344 2.348 2.348 0 0 0-1.563-2.21v-5.603a.781.781 0 1 0-1.562 0v5.603a2.348 2.348 0 0 0-1.563 2.21A2.346 2.346 0 0 0 20 25.937zm0-3.125a.782.782 0 1 1-.001 1.563.782.782 0 0 1 .001-1.564z" fill="#fff"/><path d="M28.322 15.352a.72.72 0 0 0-.084-.084 11.76 11.76 0 0 0-4.924-2.916.78.78 0 1 0-.442 1.499 10.182 10.182 0 0 1 3.731 2.034l-.527.528a.782.782 0 0 0 1.105 1.105l.529-.529a10.061 10.061 0 0 1 2.416 5.824h-.751a.781.781 0 0 0 0 1.562h.751a10.06 10.06 0 0 1-2.416 5.823l-.529-.528a.782.782 0 0 0-1.105 1.105l.529.529a10.063 10.063 0 0 1-5.824 2.417v-.752a.781.781 0 1 0-1.562 0v.751a10.061 10.061 0 0 1-5.824-2.416l.529-.529a.781.781 0 1 0-1.105-1.105l-.529.528a10.061 10.061 0 0 1-2.416-5.823h.751a.781.781 0 0 0 0-1.562h-.751a10.061 10.061 0 0 1 2.416-5.824l.529.529a.779.779 0 0 0 1.105 0 .782.782 0 0 0 0-1.105l-.527-.527a10.178 10.178 0 0 1 3.731-2.035.781.781 0 0 0-.442-1.499 11.757 11.757 0 0 0-4.923 2.915.793.793 0 0 0-.047.042l-.038.042a11.638 11.638 0 0 0-3.397 8.243c0 3.107 1.206 6.031 3.397 8.242a.603.603 0 0 0 .038.042c.013.014.027.026.041.038A11.639 11.639 0 0 0 20 35.313c3.107 0 6.031-1.206 8.242-3.396.014-.013.029-.025.042-.039.014-.013.026-.027.038-.041a11.638 11.638 0 0 0 3.397-8.243c0-3.107-1.206-6.031-3.397-8.242z" fill="#fff"/><path d="M20 13.438a.782.782 0 1 0 0-1.564.782.782 0 0 0 0 1.563z" fill="#fff"/></svg>