<svg fill="none" height="569" width="803" xmlns="http://www.w3.org/2000/svg" xmlns:xlink="http://www.w3.org/1999/xlink"><filter id="a" color-interpolation-filters="sRGB" filterUnits="userSpaceOnUse" height="619" width="853" x="-29" y="-23"><feFlood flood-opacity="0" result="BackgroundImageFix"/><feColorMatrix in="SourceAlpha" values="0 0 0 0 0 0 0 0 0 0 0 0 0 0 0 0 0 0 127 0"/><feOffset dx="-4" dy="2"/><feGaussianBlur stdDeviation="12.5"/><feColorMatrix values="0 0 0 0 0 0 0 0 0 0 0 0 0 0 0 0 0 0 0.15 0"/><feBlend in2="BackgroundImageFix" result="effect1_dropShadow"/><feBlend in="SourceGraphic" in2="effect1_dropShadow" result="shape"/></filter><filter id="b" color-interpolation-filters="sRGB" filterUnits="userSpaceOnUse" height="51" width="51" x="455" y="403"><feFlood flood-opacity="0" result="BackgroundImageFix"/><feColorMatrix in="SourceAlpha" values="0 0 0 0 0 0 0 0 0 0 0 0 0 0 0 0 0 0 127 0"/><feOffset dy="4"/><feGaussianBlur stdDeviation="5.5"/><feColorMatrix values="0 0 0 0 0 0 0 0 0 0 0 0 0 0 0 0 0 0 0.25 0"/><feBlend in2="BackgroundImageFix" result="effect1_dropShadow"/><feBlend in="SourceGraphic" in2="effect1_dropShadow" result="shape"/></filter><clipPath id="c"><path d="m0 0h803v569h-803z"/></clipPath><g clip-path="url(#c)"><rect fill="#524d84" filter="url(#a)" height="569" rx="20" width="803"/><path d="m66.91 92.272c-.797-.813-1.828-1.204-2.969-1.188-1.172.016-2.312.36-3.125 1.297-.765.89-.984 1.812-.984 3.031v3.016c0 1.312.219 2.328 1.172 3.25a3.74 3.74 0 0 0 2.719 1.078 3.788 3.788 0 0 0 3.89-3.75c.016-1.094-.344-2-1.125-2.75a3.865 3.865 0 0 0 -2.484-.938c-.844 0-1.64.329-2.25.875v-.78c0-.532.047-.97.281-1.391.328-.704 1.094-1.172 1.906-1.172.61 0 1.203.28 1.61.75l1.36-1.328zm-3.187 8.718a2.068 2.068 0 0 1 -1.407-.609c-.359-.344-.562-.86-.562-1.375 0-.531.203-1.031.562-1.39.375-.376.891-.594 1.422-.594.516 0 1.016.218 1.39.578.376.359.579.875.579 1.406s-.203 1.031-.563 1.375c-.359.375-.875.609-1.421.609zm6.243-9.687-.344 5.953 1.61.516c.296-.344.859-.75 1.718-.735.516.016 1.016.203 1.375.547.39.375.61.89.61 1.422a2.01 2.01 0 0 1 -.579 1.406 2.028 2.028 0 0 1 -1.406.563c-.515 0-1-.204-1.375-.547a1.975 1.975 0 0 1 -.531-.906l-1.813.484a3.7 3.7 0 0 0 1.047 1.719 3.783 3.783 0 0 0 2.672 1.031c1-.016 1.985-.36 2.703-1.047a3.877 3.877 0 0 0 1.172-2.703c.016-1.047-.344-2.031-1.156-2.766a3.868 3.868 0 0 0 -2.453-.906c-.578 0-1.219.172-1.75.516l.156-2.782h4.453v-1.765h-6.11zm19.905 0h-1.687l-3.891 7.969-3.906-7.97h-1.688v11.251h1.766v-7.203l3.453 7.203h.75l3.438-7.219v7.219h1.765zm-25.586 93.877c-.797-.813-1.828-1.203-2.969-1.188-1.172.016-2.312.36-3.125 1.297-.765.891-.984 1.813-.984 3.031v3.016c0 1.312.219 2.328 1.172 3.25a3.735 3.735 0 0 0 2.719 1.078c1 .031 2.015-.359 2.718-1.047.72-.687 1.172-1.687 1.172-2.703.016-1.094-.344-2-1.125-2.75a3.863 3.863 0 0 0 -2.484-.937c-.844 0-1.64.328-2.25.875v-.782c0-.531.047-.968.281-1.39.328-.703 1.094-1.172 1.906-1.172.61 0 1.203.281 1.61.75l1.36-1.328zm-3.187 8.718a2.068 2.068 0 0 1 -1.407-.609c-.359-.344-.562-.859-.562-1.375 0-.531.203-1.031.562-1.391.375-.375.891-.593 1.422-.593.516 0 1.016.218 1.39.578.376.359.579.875.579 1.406s-.203 1.031-.563 1.375c-.359.375-.874.609-1.421.609zm9.868 1.782c-1.156 0-2.328-.422-3.094-1.313-.766-.937-.953-1.765-.953-2.984v-3.11c0-1.203.172-2.031.953-3 .719-.828 1.875-1.328 3.094-1.296 1.156-.032 2.312.406 3.094 1.296.78.907.953 1.766.953 3v3.11c0 1.172-.172 2.078-.953 2.984-.766.875-1.875 1.313-3.094 1.313zm0-9.922c-.735-.016-1.453.406-1.828 1.031-.25.422-.297.891-.297 1.484v3.11c0 .547.015 1.078.344 1.547.39.593 1.062.984 1.78.968a2.076 2.076 0 0 0 1.798-.984c.312-.453.328-.875.328-1.531v-3.11c0-.578 0-.953-.281-1.468a2.104 2.104 0 0 0 -1.844-1.047zm17.408-1.547h-1.688l-3.89 7.969-3.906-7.969h-1.688v11.25h1.766v-7.203l3.453 7.203h.75l3.437-7.219v7.219h1.766zm-28.12 92.908-.344 5.953 1.61.516c.296-.344.859-.75 1.718-.734.516.015 1.016.203 1.375.546.39.375.61.891.61 1.422 0 .532-.22 1.047-.579 1.407a2.027 2.027 0 0 1 -1.406.562c-.515 0-1-.203-1.375-.547a1.967 1.967 0 0 1 -.531-.906l-1.813.484a3.69 3.69 0 0 0 1.047 1.719 3.775 3.775 0 0 0 2.672 1.031c1-.015 1.985-.359 2.703-1.047a3.874 3.874 0 0 0 1.172-2.703c.016-1.047-.344-2.031-1.156-2.765a3.87 3.87 0 0 0 -2.453-.907c-.578 0-1.219.172-1.75.516l.156-2.781h4.453v-1.766h-6.11zm9.155 0-.344 5.953 1.61.516c.297-.344.86-.75 1.719-.734.515.015 1.015.203 1.375.546.39.375.609.891.609 1.422 0 .532-.219 1.047-.578 1.407a2.027 2.027 0 0 1 -1.406.562c-.516 0-1-.203-1.375-.547a1.967 1.967 0 0 1 -.532-.906l-1.812.484a3.69 3.69 0 0 0 1.047 1.719 3.775 3.775 0 0 0 2.672 1.031c1-.015 1.984-.359 2.703-1.047a3.874 3.874 0 0 0 1.172-2.703c.015-1.047-.344-2.031-1.157-2.765a3.87 3.87 0 0 0 -2.453-.907c-.578 0-1.219.172-1.75.516l.156-2.781h4.454v-1.766zm19.905 0h-1.687l-3.89 7.969-3.907-7.969h-1.687v11.25h1.765v-7.203l3.453 7.203h.75l3.438-7.219v7.219h1.765zm-30.923 98.397-.344 5.953 1.61.515c.296-.343.859-.75 1.718-.734.516.016 1.016.203 1.375.547.39.375.61.89.61 1.422 0 .531-.22 1.047-.579 1.406a2.027 2.027 0 0 1 -1.406.562c-.516 0-1-.203-1.375-.546a1.974 1.974 0 0 1 -.531-.907l-1.813.485a3.692 3.692 0 0 0 1.047 1.718 3.78 3.78 0 0 0 2.672 1.032c1-.016 1.984-.36 2.703-1.047a3.877 3.877 0 0 0 1.172-2.703c.016-1.047-.344-2.032-1.156-2.766a3.868 3.868 0 0 0 -2.453-.906c-.578 0-1.22.172-1.75.515l.156-2.781h4.453v-1.765h-6.11zm12.78 11.468c-1.156 0-2.328-.422-3.094-1.312-.766-.938-.953-1.766-.953-2.985v-3.109c0-1.203.172-2.031.953-3 .719-.828 1.875-1.328 3.094-1.297 1.156-.031 2.312.406 3.094 1.297.78.906.953 1.766.953 3v3.109c0 1.172-.172 2.079-.953 2.985-.766.875-1.875 1.312-3.094 1.312zm0-9.922c-.735-.015-1.453.407-1.828 1.032-.25.422-.297.89-.297 1.484v3.109c0 .547.015 1.079.344 1.547.39.594 1.062.985 1.78.969a2.076 2.076 0 0 0 1.798-.984c.312-.453.328-.875.328-1.532v-3.109c0-.578 0-.953-.281-1.469a2.108 2.108 0 0 0 -1.844-1.047zm17.408-1.546h-1.687l-3.892 7.968-3.906-7.968h-1.688v11.25h1.766v-7.204l3.453 7.204h.75l3.438-7.219v7.219h1.765v-11.25z" fill="#fff" opacity=".5"/><path d="m35.313 274.687c.453.141.89.344 1.265.625.875.657 1.344 1.672 1.328 2.813-.015 1.156-.422 2.219-1.328 2.875-.953.734-2.062.891-3.203.906-1.156 0-2.328-.219-3.203-.906-.89-.672-1.344-1.75-1.328-2.875.015-1.156.422-2.125 1.328-2.813a4.25 4.25 0 0 1 1.422-.671l-.203-1.407c-.922.219-1.766.61-2.485 1.36-.953.906-1.39 2.172-1.39 3.593 0 1.594.578 3 1.797 3.954 1.14.906 2.578 1.218 4.062 1.234 1.39.016 2.875-.359 4.047-1.25 1.219-.922 1.812-2.328 1.812-3.938 0-1.406-.406-2.671-1.39-3.609-.657-.672-1.39-1.047-2.188-1.266zm3.921-7.871c0-1.593-.593-3.062-1.812-4.015-1.156-.906-2.563-1.235-4.047-1.235-1.453.016-2.89.313-4.063 1.235-1.203.953-1.78 2.437-1.796 4.015-.016 1.563.593 3.063 1.797 4 1.14.907 2.609 1.25 4.062 1.25 1.453-.015 2.906-.343 4.047-1.25 1.219-.921 1.812-2.406 1.812-4zm-1.328 0c0 1.125-.437 2.235-1.328 2.891-.875.672-2.062.891-3.203.891-1.14 0-2.328-.219-3.203-.891-.89-.656-1.328-1.766-1.328-2.891 0-1.14.437-2.234 1.328-2.89.875-.672 2.062-.891 3.203-.891 1.14.016 2.328.219 3.203.891.89.656 1.328 1.75 1.328 2.89zm-7.328-15.091c-1.078.39-1.953 1.078-2.484 2-.407.687-.578 1.546-.578 2.328 0 .734.078 1.515.453 2.25.468.937 1.453 1.656 2.531 1.656.703 0 1.5-.266 2.016-.859.53-.579.812-1.329 1.047-2.094l.609-2.063c.156-.562.375-1.015.703-1.359a1.498 1.498 0 0 1 1.11-.469c.5 0 1.03.188 1.374.656.36.5.547 1.344.547 2.063 0 .953-.36 1.906-1.031 2.453-.484.406-.969.578-1.5.703l.39 1.406c.657-.156 1.422-.468 2-.984 1.047-.922 1.47-2.062 1.47-3.531 0-1.078-.172-2.125-.735-2.922-.563-.813-1.531-1.328-2.469-1.328-.812 0-1.593.359-2.156.937-.516.532-.828 1.188-1.078 2.047l-.578 2c-.188.61-.422 1.188-.75 1.5-.235.25-.578.375-.922.375-.531 0-1.063-.328-1.36-.844-.234-.421-.359-1-.343-1.578 0-.593.187-1.203.453-1.64.39-.641.953-1.016 1.656-1.313zm-2.828-9.859v9.063h1.313v-3.844h9.937v-1.391h-9.938v-3.828z" fill="#2d285c"/><path d="m89.73 490.129h2.03l3.86-9.469v-1.781h-6.937v1.781h4.906l-3.86 9.469zm13.719-3.625v-2.922h-1.906v2.922h-2.828l3.594-7.625h-2.141l-3.61 7.625v1.766h4.985v1.859h1.906v-1.859h1.063v-1.766zm6.99 3.844c-1.156 0-2.328-.422-3.093-1.313-.766-.937-.953-1.765-.953-2.984v-3.11c0-1.203.171-2.031.953-3 .718-.828 1.875-1.328 3.093-1.296 1.157-.032 2.313.406 3.094 1.296.781.907.953 1.766.953 3v3.11c0 1.172-.172 2.078-.953 2.984-.765.875-1.875 1.313-3.094 1.313zm0-9.922c-.734-.016-1.453.406-1.828 1.031-.25.422-.297.891-.297 1.484v3.11c0 .547.016 1.078.344 1.547.391.593 1.063.984 1.781.968a2.075 2.075 0 0 0 1.797-.984c.313-.453.328-.875.328-1.531v-3.11c0-.578 0-.953-.281-1.468a2.104 2.104 0 0 0 -1.844-1.047zm65.351 9.703h2.031l3.86-9.469v-1.781h-6.938v1.781h4.906zm14.85-10.281c-.797-.813-1.828-1.203-2.969-1.188-1.172.016-2.313.36-3.125 1.297-.766.891-.984 1.813-.984 3.031v3.016c0 1.312.218 2.328 1.171 3.25a3.736 3.736 0 0 0 2.719 1.078c1 .031 2.016-.359 2.719-1.047.719-.687 1.172-1.687 1.172-2.703.015-1.094-.344-2-1.125-2.75a3.865 3.865 0 0 0 -2.485-.937 3.38 3.38 0 0 0 -2.25.875v-.782c0-.531.047-.968.282-1.39.328-.703 1.093-1.172 1.906-1.172.609 0 1.203.281 1.609.75zm-3.188 8.718a2.068 2.068 0 0 1 -1.406-.609c-.359-.344-.563-.859-.563-1.375 0-.531.204-1.031.563-1.391a2.024 2.024 0 0 1 1.422-.593c.515 0 1.015.218 1.39.578.375.359.579.875.579 1.406a1.9 1.9 0 0 1 -.563 1.375 1.983 1.983 0 0 1 -1.422.609zm9.868 1.782c-1.156 0-2.328-.422-3.093-1.313-.766-.937-.954-1.765-.954-2.984v-3.11c0-1.203.172-2.031.954-3 .718-.828 1.875-1.328 3.093-1.296 1.157-.032 2.313.406 3.094 1.296.781.907.953 1.766.953 3v3.11c0 1.172-.172 2.078-.953 2.984-.766.875-1.875 1.313-3.094 1.313zm0-9.922c-.734-.016-1.453.406-1.828 1.031-.25.422-.297.891-.297 1.484v3.11c0 .547.016 1.078.344 1.547.391.593 1.063.984 1.781.968a2.075 2.075 0 0 0 1.797-.984c.313-.453.328-.875.328-1.531v-3.11c0-.578 0-.953-.281-1.468a2.104 2.104 0 0 0 -1.844-1.047zm63.478 9.703h2.031l3.859-9.469v-1.781h-6.937v1.781h4.906zm7.912-8.297c-.016.469.109 1 .391 1.469.14.297.359.547.593.781a3.424 3.424 0 0 0 -.89 1.125 3.327 3.327 0 0 0 -.391 1.594c0 1.015.422 2.031 1.203 2.687.688.594 1.688.875 2.641.875.922 0 1.906-.25 2.64-.875.813-.656 1.188-1.625 1.204-2.687a3.174 3.174 0 0 0 -.391-1.594 3.378 3.378 0 0 0 -.875-1.125c.219-.234.422-.484.578-.781.281-.469.391-1 .391-1.469 0-.969-.407-1.906-1.188-2.484-.64-.5-1.5-.703-2.359-.703-.828 0-1.688.187-2.36.703-.796.593-1.156 1.453-1.187 2.484zm3.547-1.422c.437-.015.859.125 1.14.375.282.25.422.625.407 1.047 0 .406-.125.797-.407 1.031-.281.25-.703.36-1.14.36-.422 0-.844-.11-1.141-.36-.297-.234-.422-.625-.422-1.031 0-.422.125-.797.422-1.047s.719-.359 1.141-.375zm0 4.61c.515 0 1.031.14 1.359.468.344.328.5.813.5 1.313s-.156.984-.5 1.312c-.328.313-.844.469-1.359.469-.516 0-1.016-.156-1.36-.469-.359-.328-.5-.812-.5-1.312s.141-.985.5-1.313c.344-.328.844-.468 1.36-.468zm9.925 5.328c-1.157 0-2.328-.422-3.094-1.313-.766-.937-.953-1.765-.953-2.984v-3.11c0-1.203.172-2.031.953-3 .719-.828 1.875-1.328 3.094-1.296 1.156-.032 2.312.406 3.093 1.296.782.907.954 1.766.954 3v3.11c0 1.172-.172 2.078-.954 2.984-.765.875-1.875 1.313-3.093 1.313zm0-9.922c-.735-.016-1.453.406-1.828 1.031-.25.422-.297.891-.297 1.484v3.11c0 .547.015 1.078.343 1.547.391.593 1.063.984 1.782.968a2.077 2.077 0 0 0 1.797-.984c.312-.453.328-.875.328-1.531v-3.11c0-.578 0-.953-.282-1.468a2.103 2.103 0 0 0 -1.843-1.047zm62.662 1.406c-.016.469.109 1 .39 1.469.141.297.36.547.594.781a3.424 3.424 0 0 0 -.89 1.125 3.327 3.327 0 0 0 -.391 1.594c0 1.015.422 2.031 1.203 2.687.688.594 1.688.875 2.641.875.922 0 1.906-.25 2.64-.875.813-.656 1.188-1.625 1.203-2.687a3.162 3.162 0 0 0 -.39-1.594 3.378 3.378 0 0 0 -.875-1.125c.219-.234.422-.484.578-.781.281-.469.391-1 .391-1.469 0-.969-.407-1.906-1.188-2.484-.641-.5-1.5-.703-2.359-.703-.828 0-1.688.187-2.36.703-.797.593-1.156 1.453-1.187 2.484zm3.547-1.422c.437-.015.859.125 1.14.375.282.25.422.625.407 1.047 0 .406-.125.797-.407 1.031-.281.25-.703.36-1.14.36-.422 0-.844-.11-1.141-.36-.297-.234-.422-.625-.422-1.031 0-.422.125-.797.422-1.047s.719-.359 1.141-.375zm0 4.61c.515 0 1.031.14 1.359.468.344.328.5.813.5 1.313s-.156.984-.5 1.312c-.328.313-.844.469-1.359.469-.516 0-1.016-.156-1.36-.469-.359-.328-.5-.812-.5-1.312s.141-.985.5-1.313c.344-.328.844-.468 1.36-.468zm9.924 5.328c-1.156 0-2.328-.422-3.093-1.313-.766-.937-.953-1.765-.953-2.984v-3.11c0-1.203.171-2.031.953-3 .718-.828 1.875-1.328 3.093-1.296 1.157-.032 2.313.406 3.094 1.296.781.907.953 1.766.953 3v3.11c0 1.172-.172 2.078-.953 2.984-.765.875-1.875 1.313-3.094 1.313zm0-9.922c-.734-.016-1.453.406-1.828 1.031-.25.422-.297.891-.297 1.484v3.11c0 .547.016 1.078.344 1.547.391.593 1.063.984 1.781.968a2.075 2.075 0 0 0 1.797-.984c.313-.453.328-.875.328-1.531v-3.11c0-.578 0-.953-.281-1.468a2.104 2.104 0 0 0 -1.844-1.047zm10.284 9.922c-1.157 0-2.328-.422-3.094-1.313-.766-.937-.953-1.765-.953-2.984v-3.11c0-1.203.172-2.031.953-3 .719-.828 1.875-1.328 3.094-1.296 1.156-.032 2.312.406 3.093 1.296.782.907.954 1.766.954 3v3.11c0 1.172-.172 2.078-.954 2.984-.765.875-1.875 1.313-3.093 1.313zm0-9.922c-.735-.016-1.453.406-1.828 1.031-.25.422-.297.891-.297 1.484v3.11c0 .547.015 1.078.343 1.547.391.593 1.063.984 1.782.968a2.077 2.077 0 0 0 1.797-.984c.312-.453.328-.875.328-1.531v-3.11c0-.578 0-.953-.282-1.468a2.103 2.103 0 0 0 -1.843-1.047zm62.302 1.406c-.015.469.11 1 .391 1.469.141.297.359.547.594.781a3.428 3.428 0 0 0 -.891 1.125 3.338 3.338 0 0 0 -.391 1.594c0 1.015.422 2.031 1.204 2.687.687.594 1.687.875 2.64.875.922 0 1.906-.25 2.641-.875.812-.656 1.187-1.625 1.203-2.687a3.154 3.154 0 0 0 -.391-1.594 3.378 3.378 0 0 0 -.875-1.125c.219-.234.422-.484.578-.781.282-.469.391-1 .391-1.469 0-.969-.406-1.906-1.187-2.484-.641-.5-1.5-.703-2.36-.703-.828 0-1.687.187-2.359.703-.797.593-1.156 1.453-1.188 2.484zm3.547-1.422c.438-.015.86.125 1.141.375s.422.625.406 1.047c0 .406-.125.797-.406 1.031-.281.25-.703.36-1.141.36-.422 0-.844-.11-1.14-.36-.297-.234-.422-.625-.422-1.031 0-.422.125-.797.422-1.047.296-.25.718-.359 1.14-.375zm0 4.61c.516 0 1.031.14 1.36.468.343.328.5.813.5 1.313s-.157.984-.5 1.312c-.329.313-.844.469-1.36.469-.515 0-1.015-.156-1.359-.469-.36-.328-.5-.812-.5-1.312s.14-.985.5-1.313c.344-.328.844-.468 1.359-.468zm5.628-2.657h1.922c0-.547.25-1.093.641-1.453.343-.312.797-.484 1.328-.484.578 0 1.047.187 1.406.609.328.36.484.86.484 1.344 0 .562-.25 1.141-.984 1.797l-4.812 4.297v1.64h7.734v-1.781h-4.828l2.89-2.547c1.282-1.125 1.938-1.781 1.938-3.39 0-.922-.297-1.875-.938-2.547-.734-.797-1.781-1.203-2.843-1.203-1 0-1.953.25-2.672.875-.906.781-1.266 1.734-1.266 2.843zm13.643 7.985c-1.157 0-2.328-.422-3.094-1.313-.766-.937-.953-1.765-.953-2.984v-3.11c0-1.203.172-2.031.953-3 .719-.828 1.875-1.328 3.094-1.296 1.156-.032 2.312.406 3.094 1.296.781.907.953 1.766.953 3v3.11c0 1.172-.172 2.078-.953 2.984-.766.875-1.875 1.313-3.094 1.313zm0-9.922c-.735-.016-1.453.406-1.828 1.031-.25.422-.297.891-.297 1.484v3.11c0 .547.015 1.078.344 1.547.39.593 1.062.984 1.781.968a2.077 2.077 0 0 0 1.797-.984c.312-.453.328-.875.328-1.531v-3.11c0-.578 0-.953-.281-1.468a2.105 2.105 0 0 0 -1.844-1.047zm61.666 1.406c-.016.469.109 1 .39 1.469.141.297.36.547.594.781a3.424 3.424 0 0 0 -.89 1.125 3.327 3.327 0 0 0 -.391 1.594c0 1.015.422 2.031 1.203 2.687.688.594 1.688.875 2.641.875.922 0 1.906-.25 2.64-.875.813-.656 1.188-1.625 1.203-2.687a3.162 3.162 0 0 0 -.39-1.594 3.378 3.378 0 0 0 -.875-1.125c.219-.234.422-.484.578-.781.281-.469.391-1 .391-1.469 0-.969-.407-1.906-1.188-2.484-.641-.5-1.5-.703-2.359-.703-.828 0-1.688.187-2.36.703-.797.593-1.156 1.453-1.187 2.484zm3.547-1.422c.437-.015.859.125 1.14.375.282.25.422.625.407 1.047 0 .406-.125.797-.407 1.031-.281.25-.703.36-1.14.36-.422 0-.844-.11-1.141-.36-.297-.234-.422-.625-.422-1.031 0-.422.125-.797.422-1.047s.719-.359 1.141-.375zm0 4.61c.515 0 1.031.14 1.359.468.344.328.5.813.5 1.313s-.156.984-.5 1.312c-.328.313-.844.469-1.359.469-.516 0-1.016-.156-1.36-.469-.359-.328-.5-.812-.5-1.312s.141-.985.5-1.313c.344-.328.844-.468 1.36-.468zm12.456 1.484v-2.922h-1.907v2.922h-2.828l3.594-7.625h-2.141l-3.609 7.625v1.766h4.984v1.859h1.907v-1.859h1.062v-1.766zm6.99 3.844c-1.156 0-2.328-.422-3.094-1.313-.765-.937-.953-1.765-.953-2.984v-3.11c0-1.203.172-2.031.953-3 .719-.828 1.875-1.328 3.094-1.296 1.156-.032 2.312.406 3.094 1.296.781.907.953 1.766.953 3v3.11c0 1.172-.172 2.078-.953 2.984-.766.875-1.875 1.313-3.094 1.313zm0-9.922c-.734-.016-1.453.406-1.828 1.031-.25.422-.297.891-.297 1.484v3.11c0 .547.016 1.078.344 1.547.39.593 1.062.984 1.781.968a2.077 2.077 0 0 0 1.797-.984c.312-.453.328-.875.328-1.531v-3.11c0-.578 0-.953-.281-1.468a2.105 2.105 0 0 0 -1.844-1.047zm63.064 1.406c-.015.469.11 1 .391 1.469.141.297.359.547.594.781a3.428 3.428 0 0 0 -.891 1.125 3.337 3.337 0 0 0 -.39 1.594c0 1.015.421 2.031 1.203 2.687.687.594 1.687.875 2.64.875.922 0 1.907-.25 2.641-.875.812-.656 1.187-1.625 1.203-2.687a3.154 3.154 0 0 0 -.391-1.594 3.378 3.378 0 0 0 -.875-1.125c.219-.234.422-.484.579-.781.281-.469.39-1 .39-1.469 0-.969-.406-1.906-1.187-2.484-.641-.5-1.5-.703-2.36-.703-.828 0-1.687.187-2.359.703-.797.593-1.156 1.453-1.188 2.484zm3.547-1.422c.438-.015.86.125 1.141.375s.422.625.406 1.047c0 .406-.125.797-.406 1.031-.281.25-.703.36-1.141.36-.422 0-.843-.11-1.14-.36-.297-.234-.422-.625-.422-1.031 0-.422.125-.797.422-1.047s.718-.359 1.14-.375zm0 4.61c.516 0 1.032.14 1.36.468.343.328.5.813.5 1.313s-.157.984-.5 1.312c-.328.313-.844.469-1.36.469-.515 0-1.015-.156-1.359-.469-.359-.328-.5-.812-.5-1.312s.141-.985.5-1.313c.344-.328.844-.468 1.359-.468zm12.956-5.172c-.797-.813-1.828-1.203-2.968-1.188-1.172.016-2.313.36-3.125 1.297-.766.891-.985 1.813-.985 3.031v3.016c0 1.312.219 2.328 1.172 3.25a3.735 3.735 0 0 0 2.719 1.078 3.786 3.786 0 0 0 3.89-3.75c.016-1.094-.343-2-1.125-2.75a3.86 3.86 0 0 0 -2.484-.937c-.844 0-1.641.328-2.25.875v-.782c0-.531.047-.968.281-1.39.328-.703 1.094-1.172 1.907-1.172.609 0 1.203.281 1.609.75zm-3.187 8.718a2.068 2.068 0 0 1 -1.406-.609c-.36-.344-.563-.859-.563-1.375 0-.531.203-1.031.563-1.391.375-.375.89-.593 1.421-.593a2.03 2.03 0 0 1 1.391.578c.375.359.578.875.578 1.406a1.9 1.9 0 0 1 -.562 1.375c-.36.375-.875.609-1.422.609zm9.868 1.782c-1.156 0-2.328-.422-3.094-1.313-.765-.937-.953-1.765-.953-2.984v-3.11c0-1.203.172-2.031.953-3 .719-.828 1.875-1.328 3.094-1.296 1.156-.032 2.312.406 3.094 1.296.781.907.953 1.766.953 3v3.11c0 1.172-.172 2.078-.953 2.984-.766.875-1.875 1.313-3.094 1.313zm0-9.922c-.734-.016-1.453.406-1.828 1.031-.25.422-.297.891-.297 1.484v3.11c0 .547.016 1.078.344 1.547.39.593 1.062.984 1.781.968a2.077 2.077 0 0 0 1.797-.984c.312-.453.328-.875.328-1.531v-3.11c0-.578 0-.953-.281-1.468a2.105 2.105 0 0 0 -1.844-1.047zm62.14 8.734c.797.828 1.843 1.219 2.968 1.203 1.188-.015 2.313-.359 3.125-1.297.766-.89.985-1.812.985-3.031v-3.015c0-1.313-.219-2.329-1.172-3.25a3.736 3.736 0 0 0 -2.719-1.079 3.79 3.79 0 0 0 -2.719 1.047 3.877 3.877 0 0 0 -1.171 2.703c-.016 1.094.343 2 1.125 2.735a3.78 3.78 0 0 0 2.484.937c.844 0 1.641-.312 2.25-.859v.781c0 .531-.047.969-.281 1.391-.328.703-1.094 1.172-1.907 1.172a2.155 2.155 0 0 1 -1.609-.75zm3.187-8.703c.531.016 1.047.219 1.406.594.36.359.563.875.563 1.39 0 .516-.203 1.032-.563 1.391a1.997 1.997 0 0 1 -1.421.594 2.034 2.034 0 0 1 -1.391-.578 2.042 2.042 0 0 1 -.578-1.407 1.9 1.9 0 0 1 .562-1.375c.36-.39.875-.625 1.422-.609zm10.118 9.891c-1.156 0-2.328-.422-3.093-1.313-.766-.937-.954-1.765-.954-2.984v-3.11c0-1.203.172-2.031.954-3 .718-.828 1.875-1.328 3.093-1.296 1.157-.032 2.313.406 3.094 1.296.781.907.953 1.766.953 3v3.11c0 1.172-.172 2.078-.953 2.984-.766.875-1.875 1.313-3.094 1.313zm0-9.922c-.734-.016-1.453.406-1.828 1.031-.25.422-.297.891-.297 1.484v3.11c0 .547.016 1.078.344 1.547.391.593 1.063.984 1.781.968a2.075 2.075 0 0 0 1.797-.984c.313-.453.328-.875.328-1.531v-3.11c0-.578 0-.953-.281-1.468a2.104 2.104 0 0 0 -1.844-1.047zm10.283 9.922c-1.156 0-2.328-.422-3.093-1.313-.766-.937-.953-1.765-.953-2.984v-3.11c0-1.203.171-2.031.953-3 .718-.828 1.875-1.328 3.093-1.296 1.157-.032 2.313.406 3.094 1.296.781.907.953 1.766.953 3v3.11c0 1.172-.172 2.078-.953 2.984-.765.875-1.875 1.313-3.094 1.313zm0-9.922c-.734-.016-1.453.406-1.828 1.031-.25.422-.297.891-.297 1.484v3.11c0 .547.016 1.078.344 1.547.391.593 1.063.984 1.781.968a2.075 2.075 0 0 0 1.797-.984c.313-.453.328-.875.328-1.531v-3.11c0-.578 0-.953-.281-1.468a2.104 2.104 0 0 0 -1.844-1.047z" fill="#fff" opacity=".5"/><path d="m363.219 506.75h-9.063v1.312h3.844v9.938h1.391v-9.938h3.828zm1.406 0v11.25h1.391v-11.25zm14.771 0h-1.281l-4.234 8.953-4.25-8.953h-1.266v11.25h1.328v-8.188l3.813 8.188h.75l3.812-8.203v8.187h1.328zm9.292 1.312v-1.312h-7.11v11.25h7.11v-1.328h-5.719v-3.766h4.781v-1.312h-4.781v-3.532zm5.468-1.312v11.25h1.391v-11.25zm5.147 0h-1.407v11.25h1.407v-8.797l5.875 8.797h1.406v-11.25h-1.406v8.781zm21.426 5.656c0 1.516-.453 3.078-1.406 4.11-.922 1.015-2.265 1.468-3.656 1.468h-3.781v-11.25l3.812.016c1.453 0 2.735.484 3.625 1.484 1.016 1.094 1.406 2.61 1.406 4.172zm-1.468 0c.015-1.219-.266-2.422-.985-3.25-.672-.765-1.562-1.062-2.593-1.078l-2.36.016v8.547l2.344.031c1.031-.016 1.969-.36 2.625-1.094.703-.812.953-2.031.969-3.172zm10.202 5.594h1.437l-3.765-11.25h-1.938l-3.765 11.25h1.453l.875-2.641h4.812zm-5.266-3.938 1.953-5.843 1.985 5.843zm13.906-7.312-2.86 4.969-2.875-4.969h-1.625l3.797 6.562v4.688h1.406v-4.688l3.782-6.562zm10.37 2.828c-.391-1.078-1.078-1.953-2-2.484-.688-.407-1.547-.578-2.328-.578-.735 0-1.516.078-2.25.453-.938.468-1.657 1.453-1.657 2.531 0 .703.266 1.5.86 2.016.578.531 1.328.812 2.093 1.046l2.063.61c.562.156 1.016.375 1.359.703.313.297.469.687.469 1.109 0 .5-.187 1.032-.656 1.375-.5.36-1.344.547-2.063.547-.953 0-1.906-.359-2.453-1.031-.406-.484-.578-.969-.703-1.5l-1.406.391c.156.656.469 1.421.984 2 .922 1.046 2.063 1.468 3.531 1.468 1.079 0 2.125-.171 2.922-.734.813-.563 1.328-1.531 1.328-2.469 0-.812-.359-1.594-.937-2.156-.531-.516-1.188-.828-2.047-1.078l-2-.578c-.609-.188-1.187-.422-1.5-.75a1.262 1.262 0 0 1 -.375-.922c0-.531.328-1.063.844-1.36.422-.234 1-.359 1.578-.343.594 0 1.203.187 1.641.453.64.39 1.015.953 1.312 1.656z" fill="#2d285c"/><g stroke="#2d285c"><path d="m101.5 55v415" opacity=".6"/><path d="m187.5 55v415" opacity=".6"/><path d="m272.5 55v415" opacity=".6"/><path d="m357.5 55v415" opacity=".6"/><path d="m442.5 55v415" opacity=".6"/><path d="m528.5 55v415" opacity=".6"/><path d="m613.5 55v415" opacity=".6"/><path d="m698.5 55v415" opacity=".6"/><path d="m55 107.5h703" opacity=".6"/><path d="m55 200.5h703" opacity=".6"/><path d="m55 292.5h703" opacity=".6"/><path d="m55 391.5h703" opacity=".6"/></g><circle cx="714.5" cy="91.5" fill="#f1c40f" opacity=".6" r="7.5"/><g filter="url(#b)"><circle cx="480.5" cy="424.5" fill="#ab49c9" r="12.5"/><circle cx="480.5" cy="424.5" r="13.5" stroke="#fff" stroke-width="2"/></g><path d="m498.017 407.186c.103.542.626.899 1.169.797l8.843-1.673a1 1 0 1 0 -.371-1.965l-7.861 1.487-1.487-7.861a1 1 0 1 0 -1.965.371zm208.157-305.749-1.131 1.657 1.653 1.127 1.13-1.658zm-3.391 4.972-2.261 3.316 1.652 1.126 2.261-3.315zm-4.522 6.631-2.261 3.315 1.652 1.127 2.261-3.315zm-4.522 6.63-2.261 3.315 1.653 1.127 2.26-3.315zm-4.522 6.631-2.261 3.315 1.653 1.127 2.261-3.315zm-4.521 6.63-2.261 3.315 1.652 1.127 2.261-3.315zm-4.522 6.631-2.261 3.315 1.652 1.127 2.261-3.316zm-4.522 6.63-2.261 3.315 1.653 1.127 2.26-3.315zm-4.522 6.63-2.261 3.316 1.653 1.127 2.261-3.316zm-4.521 6.631-2.261 3.315 1.652 1.127 2.261-3.315zm-4.522 6.63-2.261 3.316 1.652 1.126 2.261-3.315zm-4.522 6.631-2.261 3.315 1.653 1.127 2.26-3.315zm-4.522 6.63-2.26 3.315 1.652 1.127 2.261-3.315zm-4.521 6.631-2.261 3.315 1.652 1.127 2.261-3.316zm-4.522 6.63-2.261 3.315 1.652 1.127 2.261-3.315zm-4.522 6.631-2.261 3.315 1.653 1.127 2.26-3.316zm-4.522 6.63-2.26 3.315 1.652 1.127 2.261-3.315zm-4.521 6.63-2.261 3.316 1.652 1.126 2.261-3.315zm-4.522 6.631-2.261 3.315 1.652 1.127 2.261-3.315zm-4.522 6.63-2.261 3.315 1.653 1.127 2.261-3.315zm-4.522 6.631-2.26 3.315 1.652 1.127 2.261-3.315zm-4.521 6.63-2.261 3.315 1.652 1.127 2.261-3.315zm-4.522 6.631-2.261 3.315 1.652 1.127 2.261-3.316zm-4.522 6.63-2.261 3.315 1.653 1.127 2.261-3.315zm-4.522 6.63-2.26 3.316 1.652 1.127 2.261-3.316zm-4.521 6.631-2.261 3.315 1.652 1.127 2.261-3.315-1.652-1.127zm-4.522 6.63-2.261 3.316 1.652 1.126 2.261-3.315zm-4.522 6.631-2.261 3.315 1.653 1.127 2.261-3.315zm-4.521 6.63-2.261 3.315 1.652 1.127 2.261-3.315zm-4.522 6.631-2.261 3.315 1.652 1.127 2.261-3.315zm-4.522 6.63-2.261 3.315 1.652 1.127 2.261-3.315zm-4.522 6.631-2.261 3.315 1.653 1.127 2.261-3.316zm-4.521 6.63-2.261 3.315 1.652 1.127 2.261-3.315zm-4.522 6.63-2.261 3.316 1.652 1.126 2.261-3.315zm-4.522 6.631-2.261 3.315 1.653 1.127 2.26-3.315zm-4.522 6.63-2.261 3.315 1.653 1.127 2.261-3.315zm-4.521 6.631-2.261 3.315 1.652 1.127 2.261-3.315zm-4.522 6.63-2.261 3.315 1.652 1.127 2.261-3.315zm-4.522 6.631-2.261 3.315 1.653 1.127 2.26-3.316zm-4.522 6.63-2.261 3.315 1.653 1.127 2.261-3.315zm-4.521 6.63-2.261 3.316 1.652 1.127 2.261-3.316zm-4.522 6.631-2.261 3.315 1.652 1.127 2.261-3.315zm-4.522 6.63-2.261 3.316 1.653 1.126 2.26-3.315zm-4.522 6.631-2.26 3.315 1.652 1.127 2.261-3.315zm-4.521 6.63-2.261 3.315 1.652 1.127 2.261-3.315zm-4.522 6.631-2.261 3.315 1.652 1.127 2.261-3.316zm-4.522 6.63-1.13 1.658 1.652 1.126 1.131-1.657z" fill="#f1f5f7"/></g></svg>