<svg fill="none" height="569" width="803" xmlns="http://www.w3.org/2000/svg" xmlns:xlink="http://www.w3.org/1999/xlink"><filter id="a" color-interpolation-filters="sRGB" filterUnits="userSpaceOnUse" height="619" width="853" x="-29" y="-23"><feFlood flood-opacity="0" result="BackgroundImageFix"/><feColorMatrix in="SourceAlpha" values="0 0 0 0 0 0 0 0 0 0 0 0 0 0 0 0 0 0 127 0"/><feOffset dx="-4" dy="2"/><feGaussianBlur stdDeviation="12.5"/><feColorMatrix values="0 0 0 0 0 0 0 0 0 0 0 0 0 0 0 0 0 0 0.15 0"/><feBlend in2="BackgroundImageFix" result="effect1_dropShadow"/><feBlend in="SourceGraphic" in2="effect1_dropShadow" result="shape"/></filter><filter id="b" color-interpolation-filters="sRGB" filterUnits="userSpaceOnUse" height="51" width="51" x="293" y="351"><feFlood flood-opacity="0" result="BackgroundImageFix"/><feColorMatrix in="SourceAlpha" values="0 0 0 0 0 0 0 0 0 0 0 0 0 0 0 0 0 0 127 0"/><feOffset dy="4"/><feGaussianBlur stdDeviation="5.5"/><feColorMatrix values="0 0 0 0 0 0 0 0 0 0 0 0 0 0 0 0 0 0 0.25 0"/><feBlend in2="BackgroundImageFix" result="effect1_dropShadow"/><feBlend in="SourceGraphic" in2="effect1_dropShadow" result="shape"/></filter><clipPath id="c"><path d="m0 0h803v569h-803z"/></clipPath><g clip-path="url(#c)"><rect fill="#524d84" filter="url(#a)" height="569" rx="20" width="803"/><path d="m66.613 92.147c-.828-.766-1.828-1.079-2.922-1.063-1.203-.031-2.375.36-3.218 1.36-.782.921-.953 1.843-.953 3.093v2.766c0 1.39.187 2.437 1.218 3.406a3.76 3.76 0 0 0 2.703 1.047c.985.031 2-.344 2.72-1.031a3.88 3.88 0 0 0 1.202-2.72c.031-1.108-.328-2.015-1.14-2.765a3.813 3.813 0 0 0 -2.453-.906c-.75 0-1.485.25-2.079.703v-.5c0-.469-.015-.844.157-1.234.28-.735 1.047-1.235 1.843-1.235.516 0 1.032.22 1.407.594l1.515-1.516zm-1.922 8.093a1.714 1.714 0 0 1 -1.25.516c-.453.015-.906-.188-1.234-.516a1.737 1.737 0 0 1 -.516-1.234c0-.469.188-.922.516-1.25a1.774 1.774 0 0 1 1.25-.516c.453 0 .906.188 1.234.516s.516.781.516 1.25-.188.922-.516 1.234zm4.983-8.937-.344 5.781 1.828 1.047c.063-.125.156-.25.266-.36a1.766 1.766 0 0 1 1.234-.515c.469 0 .922.187 1.25.516.328.328.516.78.516 1.234 0 .469-.188.922-.516 1.25a1.83 1.83 0 0 1 -1.25.5c-.453 0-.906-.188-1.234-.516a1.642 1.642 0 0 1 -.453-.781l-2.047.547c.187.656.547 1.25 1.031 1.703a3.829 3.829 0 0 0 2.703 1.047 3.85 3.85 0 0 0 2.719-1.031 3.931 3.931 0 0 0 1.188-2.72c.046-1.03-.313-2.015-1.141-2.765a3.883 3.883 0 0 0 -2.453-.89c-.485 0-1.063.125-1.563.39l.14-2.453h4.032v-1.984zm20.511 0h-2.155l-3.64 7.469-3.641-7.47h-2.156v11.251h2.156v-6.703l3.266 6.703h.75l3.265-6.719v6.719h2.157v-11.25zm-26.197 93.752c-.828-.766-1.828-1.078-2.922-1.063-1.203-.031-2.375.36-3.218 1.36-.782.921-.953 1.843-.953 3.093v2.766c0 1.391.187 2.437 1.218 3.406a3.76 3.76 0 0 0 2.703 1.047c.985.031 2-.344 2.72-1.031a3.878 3.878 0 0 0 1.202-2.719c.031-1.109-.328-2.016-1.14-2.766a3.817 3.817 0 0 0 -2.453-.906c-.75 0-1.485.25-2.079.703v-.5c0-.468-.015-.843.157-1.234.28-.734 1.047-1.234 1.843-1.234.516 0 1.032.218 1.407.593zm-1.922 8.093a1.706 1.706 0 0 1 -1.25.516c-.453.016-.906-.187-1.234-.516a1.737 1.737 0 0 1 -.516-1.234c0-.469.188-.922.516-1.25a1.775 1.775 0 0 1 1.25-.516c.453 0 .906.188 1.234.516s.516.781.516 1.25-.188.922-.516 1.234zm8.248 2.532c-1.187 0-2.421-.422-3.218-1.36-.797-1-.953-1.828-.953-3.109v-2.766c0-1.25.125-2.078.953-3.109.734-.875 1.953-1.391 3.218-1.359 1.188-.032 2.407.406 3.22 1.359.812.953.952 1.828.952 3.109v2.766c0 1.219-.14 2.141-.953 3.109-.797.922-1.953 1.36-3.219 1.36zm0-9.703c-.703-.016-1.39.406-1.734 1.015-.25.422-.266.86-.266 1.453v2.766c0 .531-.015 1.062.313 1.547.375.562 1.016.937 1.688.922a1.986 1.986 0 0 0 1.703-.938c.312-.453.296-.859.296-1.531v-2.766c0-.562.032-.906-.234-1.437-.344-.625-1.047-1.047-1.766-1.031zm17.642-1.766h-2.156l-3.64 7.469-3.641-7.469h-2.157v11.25h2.157v-6.703l3.265 6.703h.75l3.266-6.719v6.719h2.156zm-27.686 92.908-.343 5.781 1.828 1.047c.062-.125.156-.25.266-.359a1.767 1.767 0 0 1 1.234-.516 1.765 1.765 0 0 1 1.766 1.75c0 .469-.188.922-.516 1.25-.328.313-.781.5-1.25.5-.453 0-.906-.187-1.234-.515a1.645 1.645 0 0 1 -.454-.782l-2.047.547c.188.657.547 1.25 1.032 1.703a3.82 3.82 0 0 0 2.703 1.047 3.842 3.842 0 0 0 2.719-1.031 3.927 3.927 0 0 0 1.187-2.719c.047-1.031-.312-2.015-1.14-2.765a3.884 3.884 0 0 0 -2.454-.891c-.484 0-1.062.125-1.562.391l.14-2.453h4.032v-1.985zm9.2 0-.344 5.781 1.828 1.047c.063-.125.156-.25.266-.359a1.766 1.766 0 0 1 1.234-.516 1.764 1.764 0 0 1 1.766 1.75c0 .469-.188.922-.516 1.25-.328.313-.781.5-1.25.5-.453 0-.906-.187-1.234-.515a1.645 1.645 0 0 1 -.453-.782l-2.047.547a3.74 3.74 0 0 0 1.031 1.703 3.82 3.82 0 0 0 2.703 1.047 3.842 3.842 0 0 0 2.719-1.031 3.927 3.927 0 0 0 1.187-2.719c.047-1.031-.312-2.015-1.14-2.765a3.885 3.885 0 0 0 -2.453-.891c-.485 0-1.063.125-1.563.391l.14-2.453h4.032v-1.985zm2.113 27h-2.156l-3.64 7.469-3.642-7.469h-2.156v11.25h2.157v-6.703l3.265 6.703h.75l3.266-6.719v6.719h2.156zm-13.176 71.397-.343 5.781 1.828 1.047c.062-.125.156-.25.265-.36a1.765 1.765 0 0 1 1.235-.515c.468 0 .922.187 1.25.515s.515.782.515 1.235c0 .468-.187.922-.515 1.25a1.83 1.83 0 0 1 -1.25.5c-.453 0-.907-.188-1.235-.516a1.642 1.642 0 0 1 -.453-.781l-2.047.547c.188.656.547 1.25 1.032 1.703a3.829 3.829 0 0 0 2.703 1.047 3.847 3.847 0 0 0 2.718-1.032 3.926 3.926 0 0 0 1.188-2.718c.047-1.032-.313-2.016-1.14-2.766a3.885 3.885 0 0 0 -2.454-.891c-.484 0-1.062.125-1.562.391l.14-2.453h4.032v-1.984zm12.465 11.468c-1.187 0-2.422-.422-3.219-1.359-.796-1-.953-1.828-.953-3.109v-2.766c0-1.25.125-2.078.953-3.109.735-.875 1.954-1.391 3.22-1.36 1.187-.031 2.405.406 3.218 1.36.812.953.953 1.828.953 3.109v2.766c0 1.218-.14 2.14-.953 3.109-.797.922-1.953 1.359-3.219 1.359zm0-9.703c-.703-.015-1.39.406-1.734 1.016-.25.422-.266.859-.266 1.453v2.766c0 .531-.015 1.062.313 1.546.375.563 1.015.938 1.687.922a1.983 1.983 0 0 0 1.703-.937c.313-.453.297-.86.297-1.531v-2.766c0-.563.031-.906-.234-1.438-.344-.625-1.047-1.046-1.766-1.031zm17.642-1.765h-2.157l-3.64 7.468-3.64-7.468h-2.157v11.25h2.156v-6.704l3.266 6.704h.75l3.265-6.719v6.719h2.157z" fill="#fff" opacity=".5"/><path d="m35.25 274.656c.453.125.875.328 1.25.594.86.656 1.313 1.734 1.297 2.828 0 1.109-.438 2.188-1.297 2.813-.86.671-2 .859-3.125.875-1.125-.016-2.281-.204-3.125-.875-.86-.625-1.297-1.704-1.297-2.813 0-1.094.438-2.172 1.297-2.828.406-.297.875-.5 1.39-.641l-.265-1.562c-.703.203-1.422.515-2.047 1-1.203.953-1.812 2.437-1.812 4.031s.593 3.078 1.812 4.031c1.14.907 2.563 1.25 4.047 1.266 1.453.016 2.89-.344 4.047-1.266 1.187-.953 1.812-2.406 1.812-4.031 0-1.562-.578-3.047-1.812-4.031a4.894 4.894 0 0 0 -1.75-.891zm3.984-8.135c0-1.593-.593-3.062-1.812-4.031-1.156-.922-2.547-1.25-4.047-1.25-1.453.016-2.875.313-4.047 1.25-1.203.953-1.797 2.438-1.812 4.031 0 1.579.593 3.079 1.812 4.016 1.125.906 2.594 1.266 4.047 1.266s2.906-.36 4.047-1.266c1.219-.922 1.812-2.422 1.812-4.016zm-1.437 0c.016 1.094-.438 2.188-1.297 2.813-.86.672-2 .875-3.125.875-1.11-.016-2.281-.203-3.125-.875-.86-.625-1.297-1.719-1.281-2.813-.016-1.109.422-2.187 1.281-2.812.844-.656 2.016-.875 3.125-.875 1.125.016 2.266.219 3.125.875.86.625 1.297 1.703 1.297 2.812zm-7.203-15.134c-1.094.406-1.985 1.093-2.5 2.031-.407.703-.563 1.547-.578 2.328 0 .75.078 1.516.453 2.266.468.953 1.468 1.687 2.578 1.687.719 0 1.515-.265 2.047-.875.515-.562.797-1.312 1.031-2.094l.61-2.078c.156-.531.359-.968.671-1.297a1.444 1.444 0 0 1 1.063-.453c.453 0 .953.172 1.297.625.359.485.53 1.313.53 2.016 0 .922-.312 1.906-1.077 2.453-.407.313-.953.516-1.547.625l.422 1.531c.703-.172 1.453-.437 2.093-.937 1.11-.875 1.547-2.156 1.547-3.625 0-1.094-.172-2.141-.734-2.953-.563-.813-1.531-1.344-2.484-1.344-.844 0-1.625.359-2.203.969-.5.515-.813 1.156-1.063 2.031l-.594 2c-.172.609-.406 1.172-.703 1.469a1.286 1.286 0 0 1 -.875.343c-.5 0-1-.296-1.281-.796-.235-.407-.344-.969-.344-1.547s.188-1.157.453-1.594c.375-.609.907-.969 1.594-1.25l-.406-1.531zm-2.844-9.816v9.094h1.516v-3.781h9.734v-1.516h-9.734v-3.797z" fill="#2d285c"/><path d="m90.167 490.129h2.156l3.766-9.25v-2h-7.094v2h4.953zm14.137-3.734v-2.813h-2.157v2.813h-2.609l3.547-7.516h-2.203l-3.547 7.516v1.984h4.812v1.75h2.157v-1.75h1v-1.984zm6.422 3.953c-1.188 0-2.422-.422-3.219-1.36-.797-1-.953-1.828-.953-3.109v-2.766c0-1.25.125-2.078.953-3.109.734-.875 1.953-1.391 3.219-1.359 1.187-.032 2.406.406 3.218 1.359.813.953.953 1.828.953 3.109v2.766c0 1.219-.14 2.141-.953 3.109-.797.922-1.953 1.36-3.218 1.36zm0-9.703c-.704-.016-1.391.406-1.735 1.015-.25.422-.265.86-.265 1.453v2.766c0 .531-.016 1.062.312 1.547.375.562 1.016.937 1.688.922a1.988 1.988 0 0 0 1.703-.938c.312-.453.297-.859.297-1.531v-2.766c0-.562.031-.906-.235-1.437-.344-.625-1.047-1.047-1.765-1.031zm65.502 9.484h2.156l3.765-9.25v-2h-7.093v2h4.953zm14.73-10.406c-.828-.766-1.828-1.078-2.922-1.063-1.203-.031-2.375.36-3.219 1.36-.781.921-.953 1.843-.953 3.093v2.766c0 1.391.188 2.437 1.219 3.406a3.76 3.76 0 0 0 2.703 1.047c.985.031 2-.344 2.719-1.031a3.881 3.881 0 0 0 1.203-2.719c.031-1.109-.328-2.016-1.141-2.766a3.814 3.814 0 0 0 -2.453-.906c-.75 0-1.484.25-2.078.703v-.5c0-.468-.015-.843.156-1.234.282-.734 1.047-1.234 1.844-1.234.516 0 1.031.218 1.406.593zm-1.922 8.093a1.705 1.705 0 0 1 -1.25.516c-.453.016-.906-.187-1.234-.516a1.737 1.737 0 0 1 -.516-1.234c0-.469.188-.922.516-1.25a1.775 1.775 0 0 1 1.25-.516 1.765 1.765 0 0 1 1.75 1.766c0 .469-.188.922-.516 1.234zm8.248 2.532c-1.187 0-2.422-.422-3.219-1.36-.796-1-.953-1.828-.953-3.109v-2.766c0-1.25.125-2.078.953-3.109.735-.875 1.954-1.391 3.219-1.359 1.188-.032 2.406.406 3.219 1.359.812.953.953 1.828.953 3.109v2.766c0 1.219-.141 2.141-.953 3.109-.797.922-1.953 1.36-3.219 1.36zm0-9.703c-.703-.016-1.39.406-1.734 1.015-.25.422-.266.86-.266 1.453v2.766c0 .531-.015 1.062.313 1.547.375.562 1.015.937 1.687.922a1.985 1.985 0 0 0 1.703-.938c.313-.453.297-.859.297-1.531v-2.766c0-.562.031-.906-.234-1.437-.344-.625-1.047-1.047-1.766-1.031zm63.951 9.484h2.157l3.765-9.25v-2h-7.094v2h4.954zm7.934-8.25c.016.406.078.875.281 1.344.141.312.36.593.594.859a3.423 3.423 0 0 0 -.891 1.234 3.79 3.79 0 0 0 -.281 1.438c0 1.047.453 2.078 1.25 2.734.688.578 1.703.875 2.672.875.937 0 1.937-.25 2.687-.875.829-.672 1.204-1.64 1.25-2.734a4.103 4.103 0 0 0 -.281-1.438 3.42 3.42 0 0 0 -.89-1.234c.234-.266.437-.547.578-.859.218-.469.281-.938.281-1.344 0-1-.438-1.953-1.234-2.531-.641-.5-1.5-.703-2.391-.703-.828 0-1.703.187-2.375.703-.828.593-1.203 1.468-1.25 2.531zm2.25 0c0-.375.109-.703.375-.922.25-.219.625-.312 1-.328.391.016.766.109 1.016.328s.375.547.359.922c.016.375-.109.703-.359.922s-.625.312-1.016.312c-.375 0-.75-.093-1-.312-.266-.219-.375-.547-.375-.922zm2.609 6.062c-.297.282-.765.422-1.234.422s-.922-.14-1.234-.422c-.313-.296-.438-.734-.438-1.187 0-.469.125-.906.438-1.188.312-.296.765-.437 1.234-.437s.937.141 1.234.437c.313.282.453.719.453 1.188 0 .453-.14.891-.453 1.187zm8.279 2.407c-1.188 0-2.422-.422-3.219-1.36-.797-1-.953-1.828-.953-3.109v-2.766c0-1.25.125-2.078.953-3.109.734-.875 1.953-1.391 3.219-1.359 1.187-.032 2.406.406 3.218 1.359.813.953.954 1.828.954 3.109v2.766c0 1.219-.141 2.141-.954 3.109-.796.922-1.953 1.36-3.218 1.36zm0-9.703c-.703-.016-1.391.406-1.735 1.015-.25.422-.265.86-.265 1.453v2.766c0 .531-.016 1.062.312 1.547.375.562 1.016.937 1.688.922a1.988 1.988 0 0 0 1.703-.938c.312-.453.297-.859.297-1.531v-2.766c0-.562.031-.906-.235-1.437-.343-.625-1.047-1.047-1.765-1.031zm62.381 1.234c.015.406.078.875.281 1.344.14.312.359.593.594.859a3.411 3.411 0 0 0 -.891 1.234 3.79 3.79 0 0 0 -.281 1.438c0 1.047.453 2.078 1.25 2.734.687.578 1.703.875 2.672.875.937 0 1.937-.25 2.687-.875.828-.672 1.203-1.64 1.25-2.734-.016-.453-.078-.938-.281-1.438-.188-.453-.5-.89-.891-1.234.235-.266.438-.547.578-.859.219-.469.282-.938.282-1.344 0-1-.438-1.953-1.235-2.531-.64-.5-1.5-.703-2.39-.703-.829 0-1.704.187-2.375.703-.829.593-1.204 1.468-1.25 2.531zm2.25 0c0-.375.109-.703.375-.922.25-.219.625-.312 1-.328.39.016.765.109 1.015.328s.375.547.36.922c.015.375-.11.703-.36.922s-.625.312-1.015.312c-.375 0-.75-.093-1-.312-.266-.219-.375-.547-.375-.922zm2.609 6.062c-.297.282-.766.422-1.234.422-.469 0-.922-.14-1.235-.422-.312-.296-.437-.734-.437-1.187 0-.469.125-.906.437-1.188.313-.296.766-.437 1.235-.437.468 0 .937.141 1.234.437.312.282.453.719.453 1.188 0 .453-.141.891-.453 1.187zm8.278 2.407c-1.187 0-2.422-.422-3.219-1.36-.796-1-.953-1.828-.953-3.109v-2.766c0-1.25.125-2.078.953-3.109.735-.875 1.954-1.391 3.219-1.359 1.188-.032 2.406.406 3.219 1.359.812.953.953 1.828.953 3.109v2.766c0 1.219-.141 2.141-.953 3.109-.797.922-1.953 1.36-3.219 1.36zm0-9.703c-.703-.016-1.39.406-1.734 1.015-.25.422-.266.86-.266 1.453v2.766c0 .531-.015 1.062.313 1.547.375.562 1.015.937 1.687.922a1.985 1.985 0 0 0 1.703-.938c.313-.453.297-.859.297-1.531v-2.766c0-.562.031-.906-.234-1.437-.344-.625-1.047-1.047-1.766-1.031zm9.595 9.703c-1.188 0-2.422-.422-3.219-1.36-.797-1-.953-1.828-.953-3.109v-2.766c0-1.25.125-2.078.953-3.109.735-.875 1.953-1.391 3.219-1.359 1.187-.032 2.406.406 3.219 1.359.812.953.953 1.828.953 3.109v2.766c0 1.219-.141 2.141-.953 3.109-.797.922-1.953 1.36-3.219 1.36zm0-9.703c-.703-.016-1.391.406-1.734 1.015-.25.422-.266.86-.266 1.453v2.766c0 .531-.016 1.062.312 1.547.375.562 1.016.937 1.688.922a1.986 1.986 0 0 0 1.703-.938c.313-.453.297-.859.297-1.531v-2.766c0-.562.031-.906-.234-1.437-.344-.625-1.047-1.047-1.766-1.031zm63.325 1.234c.016.406.078.875.281 1.344.141.312.36.593.594.859a3.423 3.423 0 0 0 -.891 1.234 3.79 3.79 0 0 0 -.281 1.438c0 1.047.453 2.078 1.25 2.734.688.578 1.703.875 2.672.875.938 0 1.938-.25 2.688-.875.828-.672 1.203-1.64 1.25-2.734a4.128 4.128 0 0 0 -.282-1.438 3.42 3.42 0 0 0 -.89-1.234c.234-.266.437-.547.578-.859.219-.469.281-.938.281-1.344 0-1-.437-1.953-1.234-2.531-.641-.5-1.5-.703-2.391-.703-.828 0-1.703.187-2.375.703-.828.593-1.203 1.468-1.25 2.531zm2.25 0c0-.375.109-.703.375-.922.25-.219.625-.312 1-.328.391.016.766.109 1.016.328s.375.547.359.922c.016.375-.109.703-.359.922s-.625.312-1.016.312c-.375 0-.75-.093-1-.312-.266-.219-.375-.547-.375-.922zm2.609 6.062c-.296.282-.765.422-1.234.422s-.922-.14-1.234-.422c-.313-.296-.438-.734-.438-1.187 0-.469.125-.906.438-1.188.312-.296.765-.437 1.234-.437s.938.141 1.234.437c.313.282.454.719.454 1.188 0 .453-.141.891-.454 1.187zm4.31-5.531h2.188a1.76 1.76 0 0 1 .546-1.297 1.71 1.71 0 0 1 1.172-.468c.563 0 1.047.218 1.391.64.266.328.391.735.391 1.141 0 .484-.25 1.047-.969 1.656l-4.766 4.031v2h7.688v-2h-4.313l2.485-2.14c1.328-1.157 2.062-1.922 2.062-3.516 0-.906-.297-1.828-.891-2.516-.703-.906-1.796-1.296-2.953-1.296-.953 0-2 .218-2.765.89-.797.703-1.313 1.781-1.266 2.875zm13.417 7.938c-1.187 0-2.422-.422-3.219-1.36-.797-1-.953-1.828-.953-3.109v-2.766c0-1.25.125-2.078.953-3.109.735-.875 1.953-1.391 3.219-1.359 1.188-.032 2.406.406 3.219 1.359.812.953.953 1.828.953 3.109v2.766c0 1.219-.141 2.141-.953 3.109-.797.922-1.953 1.36-3.219 1.36zm0-9.703c-.703-.016-1.391.406-1.734 1.015-.25.422-.266.86-.266 1.453v2.766c0 .531-.016 1.062.313 1.547.375.562 1.015.937 1.687.922a1.985 1.985 0 0 0 1.703-.938c.313-.453.297-.859.297-1.531v-2.766c0-.562.031-.906-.234-1.437-.344-.625-1.047-1.047-1.766-1.031zm61.898 1.234c.015.406.078.875.281 1.344.14.312.359.593.594.859a3.411 3.411 0 0 0 -.891 1.234 3.79 3.79 0 0 0 -.281 1.438c0 1.047.453 2.078 1.25 2.734.687.578 1.703.875 2.672.875.937 0 1.937-.25 2.687-.875.828-.672 1.203-1.64 1.25-2.734-.016-.453-.078-.938-.281-1.438-.188-.453-.5-.89-.891-1.234.235-.266.438-.547.578-.859.219-.469.282-.938.282-1.344 0-1-.438-1.953-1.235-2.531-.64-.5-1.5-.703-2.39-.703-.829 0-1.704.187-2.375.703-.829.593-1.204 1.468-1.25 2.531zm2.25 0c0-.375.109-.703.375-.922.25-.219.625-.312 1-.328.39.016.765.109 1.015.328s.375.547.36.922c.015.375-.11.703-.36.922s-.625.312-1.015.312c-.375 0-.75-.093-1-.312-.266-.219-.375-.547-.375-.922zm2.609 6.062c-.297.282-.766.422-1.234.422-.469 0-.922-.14-1.235-.422-.312-.296-.437-.734-.437-1.187 0-.469.125-.906.437-1.188.313-.296.766-.437 1.235-.437.468 0 .937.141 1.234.437.312.282.453.719.453 1.188 0 .453-.141.891-.453 1.187zm11.231-1.546v-2.813h-2.156v2.813h-2.609l3.547-7.516h-2.204l-3.546 7.516v1.984h4.812v1.75h2.156v-1.75h1v-1.984zm6.422 3.953c-1.187 0-2.422-.422-3.219-1.36-.796-1-.953-1.828-.953-3.109v-2.766c0-1.25.125-2.078.953-3.109.735-.875 1.954-1.391 3.219-1.359 1.188-.032 2.406.406 3.219 1.359.812.953.953 1.828.953 3.109v2.766c0 1.219-.141 2.141-.953 3.109-.797.922-1.953 1.36-3.219 1.36zm0-9.703c-.703-.016-1.39.406-1.734 1.015-.25.422-.266.86-.266 1.453v2.766c0 .531-.015 1.062.313 1.547.375.562 1.015.937 1.687.922a1.985 1.985 0 0 0 1.703-.938c.313-.453.297-.859.297-1.531v-2.766c0-.562.031-.906-.234-1.437-.344-.625-1.047-1.047-1.766-1.031zm63.545 1.234c.016.406.078.875.281 1.344.141.312.36.593.594.859a3.42 3.42 0 0 0 -.89 1.234c-.204.5-.282.985-.282 1.438 0 1.047.453 2.078 1.25 2.734.688.578 1.703.875 2.672.875.938 0 1.938-.25 2.688-.875.828-.672 1.203-1.64 1.25-2.734-.016-.453-.078-.938-.282-1.438a3.42 3.42 0 0 0 -.89-1.234c.234-.266.437-.547.578-.859.219-.469.281-.938.281-1.344 0-1-.437-1.953-1.234-2.531-.641-.5-1.5-.703-2.391-.703-.828 0-1.703.187-2.375.703-.828.593-1.203 1.468-1.25 2.531zm2.25 0c0-.375.11-.703.375-.922.25-.219.625-.312 1-.328.391.016.766.109 1.016.328s.375.547.359.922c.016.375-.109.703-.359.922s-.625.312-1.016.312c-.375 0-.75-.093-1-.312-.265-.219-.375-.547-.375-.922zm2.61 6.062c-.297.282-.766.422-1.235.422s-.922-.14-1.234-.422c-.313-.296-.438-.734-.438-1.187 0-.469.125-.906.438-1.188.312-.296.765-.437 1.234-.437s.938.141 1.235.437c.312.282.453.719.453 1.188 0 .453-.141.891-.453 1.187zm11.356-8.218c-.828-.766-1.828-1.078-2.922-1.063-1.203-.031-2.375.36-3.219 1.36-.781.921-.953 1.843-.953 3.093v2.766c0 1.391.188 2.437 1.219 3.406a3.76 3.76 0 0 0 2.703 1.047c.984.031 2-.344 2.719-1.031a3.881 3.881 0 0 0 1.203-2.719c.031-1.109-.328-2.016-1.141-2.766a3.814 3.814 0 0 0 -2.453-.906c-.75 0-1.484.25-2.078.703v-.5c0-.468-.016-.843.156-1.234.282-.734 1.047-1.234 1.844-1.234.516 0 1.031.218 1.406.593zm-1.922 8.093a1.705 1.705 0 0 1 -1.25.516c-.453.016-.906-.187-1.234-.516a1.737 1.737 0 0 1 -.516-1.234c0-.469.188-.922.516-1.25a1.775 1.775 0 0 1 1.25-.516 1.765 1.765 0 0 1 1.75 1.766c0 .469-.188.922-.516 1.234zm8.248 2.532c-1.187 0-2.422-.422-3.219-1.36-.796-1-.953-1.828-.953-3.109v-2.766c0-1.25.125-2.078.953-3.109.735-.875 1.954-1.391 3.219-1.359 1.188-.032 2.406.406 3.219 1.359.812.953.953 1.828.953 3.109v2.766c0 1.219-.141 2.141-.953 3.109-.797.922-1.953 1.36-3.219 1.36zm0-9.703c-.703-.016-1.39.406-1.734 1.015-.25.422-.266.86-.266 1.453v2.766c0 .531-.015 1.062.313 1.547.375.562 1.015.937 1.687.922a1.985 1.985 0 0 0 1.703-.938c.313-.453.297-.859.297-1.531v-2.766c0-.562.031-.906-.234-1.437-.344-.625-1.047-1.047-1.766-1.031zm63.219 8.656c.828.765 1.828 1.078 2.922 1.062 1.203.032 2.375-.359 3.219-1.359.781-.922.953-1.844.953-3.094v-2.765c0-1.391-.188-2.438-1.219-3.407a3.76 3.76 0 0 0 -2.703-1.047c-.985-.031-2 .344-2.719 1.032a3.879 3.879 0 0 0 -1.203 2.718c-.031 1.11.328 2.016 1.141 2.766a3.809 3.809 0 0 0 2.453.906c.75 0 1.484-.25 2.078-.703v.5c0 .469.015.844-.156 1.235-.282.734-1.047 1.234-1.844 1.234a2.015 2.015 0 0 1 -1.406-.594zm1.922-8.094a1.713 1.713 0 0 1 1.25-.516c.453-.015.906.188 1.234.516.328.313.516.781.516 1.234 0 .469-.188.922-.516 1.25a1.77 1.77 0 0 1 -1.25.516 1.761 1.761 0 0 1 -1.75-1.766c0-.468.188-.921.516-1.234zm10.744 9.141c-1.188 0-2.422-.422-3.219-1.36-.797-1-.953-1.828-.953-3.109v-2.766c0-1.25.125-2.078.953-3.109.735-.875 1.953-1.391 3.219-1.359 1.187-.032 2.406.406 3.219 1.359.812.953.953 1.828.953 3.109v2.766c0 1.219-.141 2.141-.953 3.109-.797.922-1.953 1.36-3.219 1.36zm0-9.703c-.703-.016-1.391.406-1.734 1.015-.25.422-.266.86-.266 1.453v2.766c0 .531-.016 1.062.312 1.547.375.562 1.016.937 1.688.922a1.986 1.986 0 0 0 1.703-.938c.313-.453.297-.859.297-1.531v-2.766c0-.562.031-.906-.234-1.437-.344-.625-1.047-1.047-1.766-1.031zm9.595 9.703c-1.188 0-2.422-.422-3.219-1.36-.797-1-.953-1.828-.953-3.109v-2.766c0-1.25.125-2.078.953-3.109.734-.875 1.953-1.391 3.219-1.359 1.187-.032 2.406.406 3.218 1.359.813.953.953 1.828.953 3.109v2.766c0 1.219-.14 2.141-.953 3.109-.797.922-1.953 1.36-3.218 1.36zm0-9.703c-.704-.016-1.391.406-1.735 1.015-.25.422-.265.86-.265 1.453v2.766c0 .531-.016 1.062.312 1.547.375.562 1.016.937 1.688.922a1.988 1.988 0 0 0 1.703-.938c.312-.453.297-.859.297-1.531v-2.766c0-.562.031-.906-.235-1.437-.344-.625-1.047-1.047-1.765-1.031z" fill="#fff" opacity=".5"/><path d="m363.25 506.75h-9.094v1.516h3.782v9.734h1.515v-9.734h3.797zm1.248 0v11.25h1.516v-11.25zm15.128 0h-1.531l-4.094 8.719-4.125-8.719h-1.516v11.25h1.532v-7.938l3.734 7.938h.734l3.735-7.953v7.953h1.531zm9.582 1.516v-1.516h-7.078v11.25h7.078v-1.516h-5.562v-3.359h4.625v-1.5h-4.625v-3.359zm5.422-1.516v11.25h1.516v-11.25zm5.206 0h-1.344v11.25h1.547v-8.469l5.672 8.469h1.359v-11.25h-1.531v8.469zm21.38 2.875a5.313 5.313 0 0 0 -4.688-2.875h-3.578v11.25h3.578c1.938 0 3.782-1.125 4.688-2.875.437-.875.64-1.828.64-2.75 0-.938-.203-1.891-.64-2.75zm-1.36 4.812c-.64 1.297-2 2.094-3.406 2.11l-1.969.015v-8.375h1.969a3.836 3.836 0 0 1 3.406 2.125c.313.625.438 1.329.454 2.063 0 .719-.141 1.437-.454 2.062zm10.396 3.563h1.562l-3.703-11.25h-2.156l-3.703 11.25h1.562l.672-2.047h5.078zm-5.297-3.469 2.063-6.219 2.078 6.219zm13.821-7.781-2.797 4.859-2.796-4.859h-1.766l3.797 6.594v4.656h1.531v-4.656l3.797-6.594zm10.533 2.844c-.407-1.094-1.094-1.985-2.032-2.5-.703-.407-1.547-.563-2.328-.578-.75 0-1.515.078-2.265.453-.954.468-1.688 1.468-1.688 2.578 0 .719.266 1.515.875 2.047.563.515 1.313.797 2.094 1.031l2.078.609c.531.157.969.36 1.297.672.297.281.453.656.453 1.063 0 .453-.172.953-.625 1.297-.484.359-1.313.531-2.016.531-.922 0-1.906-.313-2.453-1.078-.312-.407-.515-.953-.625-1.547l-1.531.422c.172.703.437 1.453.937 2.093.875 1.11 2.157 1.547 3.625 1.547 1.094 0 2.141-.171 2.954-.734.812-.563 1.343-1.531 1.343-2.484 0-.844-.359-1.625-.968-2.204-.516-.5-1.157-.812-2.032-1.062l-2-.594c-.609-.172-1.172-.406-1.468-.703a1.282 1.282 0 0 1 -.344-.875c0-.5.297-1 .797-1.281.406-.235.968-.344 1.547-.344.578 0 1.156.188 1.593.453.61.375.969.906 1.25 1.594z" fill="#2d285c"/><g stroke="#2d285c"><path d="m101.5 55v415" opacity=".6"/><path d="m187.5 55v415" opacity=".6"/><path d="m272.5 55v415" opacity=".6"/><path d="m357.5 55v415" opacity=".6"/><path d="m442.5 55v415" opacity=".6"/><path d="m528.5 55v415" opacity=".6"/><path d="m613.5 55v415" opacity=".6"/><path d="m698.5 55v415" opacity=".6"/><path d="m55 107.5h703" opacity=".6"/><path d="m55 200.5h703" opacity=".6"/><path d="m55 292.5h703" opacity=".6"/><path d="m55 391.5h703" opacity=".6"/></g></g><circle cx="714.5" cy="91.5" fill="#f1c40f" opacity=".6" r="7.5"/><circle cx="482.5" cy="420.5" fill="#ab49c9" opacity=".6" r="7.5"/><path d="m343.507 378.13a1 1 0 0 0 -.377 1.363l4.438 7.83a1 1 0 0 0 1.74-.987l-3.945-6.959 6.96-3.945a1 1 0 0 0 -.987-1.74zm123.759 33.906-1.921-.531-.533 1.928 1.922.531zm-5.765-1.594-3.844-1.062-.533 1.928 3.844 1.062zm-7.688-2.125-3.843-1.062-.533 1.928 3.843 1.062zm-7.687-2.125-3.844-1.062-.533 1.928 3.844 1.062zm-7.688-2.125-3.843-1.062-.533 1.928 3.843 1.062zm-7.687-2.125-3.844-1.062-.533 1.928 3.844 1.062zm-7.688-2.125-3.843-1.062-.533 1.928 3.843 1.062zm-7.687-2.125-3.844-1.062-.533 1.928 3.844 1.062zm-7.688-2.125-3.843-1.062-.533 1.928 3.843 1.062zm-7.687-2.125-3.844-1.062-.533 1.928 3.844 1.062zm-7.688-2.125-3.843-1.062-.533 1.928 3.843 1.062zm-7.687-2.125-3.844-1.062-.533 1.928 3.844 1.062zm-7.688-2.125-3.843-1.062-.533 1.928 3.843 1.062zm-7.687-2.125-3.844-1.062-.533 1.928 3.844 1.062zm-7.688-2.125-3.843-1.062-.533 1.928 3.843 1.062zm-7.687-2.125-3.844-1.062-.533 1.928 3.844 1.062zm-7.688-2.125-1.922-.531-.532 1.928 1.921.531z" fill="#f1f5f7"/><g filter="url(#b)"><circle cx="318.5" cy="372.5" fill="#358efe" r="12.5"/><circle cx="318.5" cy="372.5" r="13.5" stroke="#fff" stroke-width="2"/></g><path d="m706.822 103.57-211 304" opacity=".2" stroke="#f1f5f7" stroke-dasharray="4 4" stroke-width="2"/></svg>