<svg fill="none" height="353" width="334" xmlns="http://www.w3.org/2000/svg" xmlns:xlink="http://www.w3.org/1999/xlink"><filter id="a" color-interpolation-filters="sRGB" filterUnits="userSpaceOnUse" height="46" width="46" x="169" y="257"><feFlood flood-opacity="0" result="BackgroundImageFix"/><feColorMatrix in="SourceAlpha" values="0 0 0 0 0 0 0 0 0 0 0 0 0 0 0 0 0 0 127 0"/><feOffset dy="4"/><feGaussianBlur stdDeviation="5.5"/><feColorMatrix values="0 0 0 0 0 0 0 0 0 0 0 0 0 0 0 0 0 0 0.25 0"/><feBlend in2="BackgroundImageFix" result="effect1_dropShadow"/><feBlend in="SourceGraphic" in2="effect1_dropShadow" result="shape"/></filter><rect fill="#524d84" height="353" rx="10" width="334"/><path d="m41.538 78.775c-.638-.65-1.463-.963-2.375-.95-.938.013-1.85.287-2.5 1.037-.613.713-.788 1.45-.788 2.425v2.413c0 1.05.175 1.862.938 2.6a2.988 2.988 0 0 0 2.174.862 3.028 3.028 0 0 0 3.113-3c.012-.875-.275-1.6-.9-2.2a3.092 3.092 0 0 0 -1.988-.75c-.675 0-1.312.263-1.8.7v-.625c0-.425.038-.775.226-1.112.262-.563.875-.938 1.525-.938.487 0 .962.226 1.287.6l1.087-1.062zm-2.55 6.975a1.657 1.657 0 0 1 -1.126-.487 1.54 1.54 0 0 1 -.45-1.1c0-.425.163-.825.45-1.113.3-.3.713-.475 1.138-.475.413 0 .813.175 1.112.462.3.288.463.7.463 1.125s-.163.825-.45 1.1c-.288.3-.7.488-1.138.488zm4.993-7.75-.275 4.763 1.288.412c.237-.275.687-.6 1.375-.587.412.012.812.162 1.1.437.312.3.487.712.487 1.137s-.175.838-.462 1.125c-.3.288-.7.45-1.125.45-.413 0-.8-.162-1.1-.437-.2-.188-.35-.45-.426-.725l-1.45.388c.15.525.438 1.012.838 1.375.563.537 1.362.85 2.138.825.8-.013 1.587-.288 2.162-.838a3.1 3.1 0 0 0 .938-2.163c.012-.837-.276-1.625-.925-2.212a3.094 3.094 0 0 0 -1.963-.725c-.462 0-.975.138-1.4.413l.125-2.226h3.563v-1.412zm15.924 0h-1.35l-3.112 6.375-3.124-6.375h-1.35v9h1.412v-5.763l2.763 5.763h.6l2.75-5.775v5.775h1.412v-9zm-19.368 58.125c-.638-.65-1.463-.963-2.375-.95-.938.012-1.85.287-2.5 1.037-.613.713-.788 1.45-.788 2.425v2.413c0 1.05.175 1.862.938 2.6a2.988 2.988 0 0 0 2.174.862 3.027 3.027 0 0 0 3.113-3c.012-.875-.275-1.6-.9-2.2a3.092 3.092 0 0 0 -1.988-.75c-.675 0-1.312.263-1.8.7v-.625c0-.425.038-.775.226-1.112.262-.563.875-.938 1.525-.938.487 0 .962.225 1.287.6l1.087-1.062zm-2.55 6.975a1.66 1.66 0 0 1 -1.126-.488 1.538 1.538 0 0 1 -.45-1.1c0-.425.163-.825.45-1.112.3-.3.713-.475 1.138-.475.413 0 .813.175 1.112.462.3.288.463.7.463 1.125s-.163.825-.45 1.1c-.288.3-.7.488-1.138.488zm7.894 1.425c-.925 0-1.862-.338-2.475-1.05-.612-.75-.762-1.413-.762-2.388v-2.487c0-.963.137-1.625.762-2.4.575-.663 1.5-1.063 2.475-1.038.925-.025 1.85.325 2.475 1.038.625.725.763 1.412.763 2.4v2.487c0 .938-.138 1.663-.763 2.388-.612.7-1.5 1.05-2.475 1.05zm0-7.938c-.587-.012-1.163.325-1.462.825-.2.338-.238.713-.238 1.188v2.487c0 .438.012.863.275 1.238.313.475.85.787 1.425.775.587.012 1.138-.3 1.438-.788.25-.362.262-.7.262-1.225v-2.487c0-.463 0-.763-.225-1.175a1.685 1.685 0 0 0 -1.475-.838zm13.927-1.237h-1.35l-3.113 6.375-3.125-6.375h-1.35v9h1.413v-5.763l2.762 5.763h.6l2.75-5.775v5.775h1.413zm-22.596 57.349-.276 4.763 1.288.412c.237-.275.688-.6 1.375-.587.413.012.813.162 1.1.437a1.581 1.581 0 0 1 .025 2.263c-.3.287-.7.45-1.125.45-.413 0-.8-.163-1.1-.438-.2-.187-.35-.45-.425-.725l-1.45.388c.15.525.438 1.012.837 1.375.563.537 1.363.85 2.138.825.8-.013 1.587-.288 2.163-.838a3.1 3.1 0 0 0 .937-2.162c.012-.838-.275-1.625-.925-2.213a3.097 3.097 0 0 0 -1.962-.725c-.463 0-.976.138-1.4.413l.125-2.225h3.563v-1.413zm7.324 0-.275 4.763 1.287.412c.238-.275.688-.6 1.375-.587.413.012.813.162 1.1.437a1.581 1.581 0 0 1 .025 2.263c-.3.287-.7.45-1.125.45-.412 0-.8-.163-1.1-.438-.2-.187-.35-.45-.425-.725l-1.45.388c.15.525.438 1.012.838 1.375.562.537 1.362.85 2.137.825.8-.013 1.588-.288 2.163-.838a3.1 3.1 0 0 0 .937-2.162c.013-.838-.275-1.625-.925-2.213a3.097 3.097 0 0 0 -1.962-.725c-.463 0-.975.138-1.4.413l.125-2.225h3.562v-1.413zm15.924 0h-1.35l-3.113 6.375-3.125-6.375h-1.35v9h1.413v-5.762l2.762 5.762h.6l2.75-5.775v5.775h1.413zm-24.248 57.35-.276 4.762 1.288.413c.237-.275.688-.6 1.375-.588.413.013.813.163 1.1.438.313.3.487.712.487 1.137s-.174.838-.462 1.125a1.618 1.618 0 0 1 -2.225.013c-.2-.188-.35-.45-.425-.725l-1.45.387c.15.525.438 1.013.837 1.375a3.02 3.02 0 0 0 2.138.825c.8-.012 1.587-.287 2.163-.837a3.1 3.1 0 0 0 .937-2.163c.012-.837-.275-1.625-.925-2.212a3.091 3.091 0 0 0 -1.962-.725c-.463 0-.976.137-1.4.412l.125-2.225h3.563v-1.412zm10.224 9.175c-.925 0-1.863-.338-2.475-1.05-.613-.75-.763-1.413-.763-2.388v-2.487c0-.963.138-1.625.763-2.4.575-.663 1.5-1.063 2.475-1.038.925-.025 1.85.325 2.475 1.038.625.725.762 1.412.762 2.4v2.487c0 .938-.137 1.663-.762 2.388-.613.7-1.5 1.05-2.475 1.05zm0-7.938c-.588-.012-1.163.325-1.463.825-.2.338-.237.713-.237 1.188v2.487c0 .438.012.863.275 1.238.312.475.85.787 1.425.775.587.012 1.137-.3 1.437-.788.25-.362.263-.7.263-1.225v-2.487c0-.463 0-.763-.225-1.175a1.685 1.685 0 0 0 -1.475-.838zm13.926-1.237h-1.35l-3.112 6.375-3.125-6.375h-1.35v9h1.412v-5.763l2.763 5.763h.6l2.75-5.775v5.775h1.412z" fill="#fff" opacity=".5"/><path d="m19 186.525c.363.1.7.262 1 .475.688.525 1.05 1.387 1.038 2.262 0 .888-.35 1.75-1.038 2.25-.688.538-1.6.688-2.5.7-.9-.012-1.825-.162-2.5-.7-.688-.5-1.037-1.362-1.037-2.25 0-.875.35-1.737 1.037-2.262.325-.238.7-.4 1.113-.513l-.213-1.25c-.563.163-1.138.413-1.638.8-.962.763-1.45 1.95-1.45 3.225s.476 2.463 1.45 3.225c.913.725 2.05 1 3.238 1.013 1.163.012 2.313-.275 3.238-1.013.95-.762 1.45-1.925 1.45-3.225 0-1.25-.463-2.437-1.45-3.225a3.913 3.913 0 0 0 -1.4-.712zm3.188-6.508c0-1.275-.476-2.45-1.45-3.225-.925-.737-2.038-1-3.238-1-1.163.013-2.3.25-3.238 1-.962.763-1.437 1.95-1.45 3.225 0 1.263.476 2.463 1.45 3.213.9.725 2.075 1.012 3.238 1.012s2.325-.287 3.238-1.012c.974-.738 1.45-1.938 1.45-3.213zm-1.15 0c.012.875-.35 1.75-1.038 2.25-.688.538-1.6.7-2.5.7-.887-.012-1.825-.162-2.5-.7-.688-.5-1.037-1.375-1.025-2.25-.012-.887.338-1.75 1.025-2.25.675-.525 1.613-.7 2.5-.7.9.013 1.813.175 2.5.7.688.5 1.038 1.363 1.038 2.25zm-5.763-12.108c-.875.325-1.588.875-2 1.625-.325.563-.45 1.238-.463 1.863 0 .6.063 1.212.363 1.812.375.763 1.175 1.35 2.063 1.35.575 0 1.212-.212 1.637-.7.413-.45.637-1.05.825-1.675l.488-1.662c.125-.425.287-.775.537-1.038.225-.237.525-.362.85-.362.363 0 .762.137 1.038.5.287.387.425 1.05.425 1.612 0 .738-.25 1.525-.863 1.963-.325.25-.762.412-1.238.5l.338 1.225c.563-.138 1.163-.35 1.675-.75.887-.7 1.238-1.725 1.238-2.9 0-.875-.138-1.713-.588-2.363s-1.225-1.075-1.988-1.075c-.674 0-1.3.288-1.762.775-.4.413-.65.925-.85 1.625l-.475 1.6c-.137.488-.325.938-.562 1.175a1.026 1.026 0 0 1 -.7.275c-.4 0-.8-.237-1.025-.637-.188-.325-.275-.775-.275-1.238 0-.462.15-.925.362-1.275.3-.487.725-.775 1.275-1zm-2.275-7.852v7.275h1.213v-3.025h7.787v-1.212h-7.787v-3.038z" fill="#2d285c"/><path d="m56.328 305h1.625l3.087-7.575v-1.425h-5.55v1.425h3.925zm10.975-2.9v-2.338h-1.525v2.338h-2.262l2.875-6.1h-1.713l-2.887 6.1v1.412h3.987v1.488h1.525v-1.488h.85v-1.412zm5.593 3.075c-.925 0-1.863-.338-2.475-1.05-.613-.75-.763-1.413-.763-2.388v-2.487c0-.963.138-1.625.763-2.4.575-.663 1.5-1.063 2.475-1.038.925-.025 1.85.325 2.475 1.038.625.725.762 1.412.762 2.4v2.487c0 .938-.137 1.663-.762 2.388-.613.7-1.5 1.05-2.475 1.05zm0-7.938c-.588-.012-1.163.325-1.463.825-.2.338-.237.713-.237 1.188v2.487c0 .438.012.863.275 1.238.312.475.85.787 1.425.775.587.012 1.137-.3 1.437-.788.25-.362.263-.7.263-1.225v-2.487c0-.463 0-.763-.225-1.175a1.685 1.685 0 0 0 -1.475-.838zm39.662 7.763h1.625l3.088-7.575v-1.425h-5.55v1.425h3.925zm6.33-6.638c-.013.375.087.8.312 1.175.113.238.288.438.475.625-.3.25-.55.563-.712.9a2.67 2.67 0 0 0 -.313 1.275c0 .813.338 1.625.963 2.15.55.475 1.35.701 2.112.701.738 0 1.525-.201 2.113-.701.65-.525.95-1.3.962-2.15a2.528 2.528 0 0 0 -.312-1.275c-.163-.337-.4-.65-.7-.9.175-.187.337-.387.462-.625.225-.375.313-.8.313-1.175 0-.775-.325-1.525-.95-1.987-.513-.4-1.2-.563-1.888-.563-.662 0-1.35.15-1.887.563-.638.475-.925 1.162-.95 1.987zm2.837-1.137c.35-.013.688.1.913.3s.337.5.325.837c0 .325-.1.638-.325.825-.225.2-.563.288-.913.288-.337 0-.675-.088-.912-.288-.238-.187-.338-.5-.338-.825 0-.337.1-.637.338-.837.237-.2.575-.288.912-.3zm0 3.687c.413 0 .825.113 1.088.375.275.263.4.65.4 1.05s-.125.788-.4 1.05c-.263.25-.675.375-1.088.375-.412 0-.812-.125-1.087-.375-.288-.262-.4-.65-.4-1.05s.112-.787.4-1.05c.275-.262.675-.375 1.087-.375zm7.94 4.263c-.925 0-1.862-.338-2.475-1.05-.612-.75-.762-1.413-.762-2.388v-2.487c0-.963.137-1.625.762-2.4.575-.663 1.5-1.063 2.475-1.038.925-.025 1.85.325 2.475 1.038.625.725.763 1.412.763 2.4v2.487c0 .938-.138 1.663-.763 2.388-.612.7-1.5 1.05-2.475 1.05zm0-7.938c-.587-.012-1.162.325-1.462.825-.2.338-.238.713-.238 1.188v2.487c0 .438.013.863.275 1.238.313.475.85.787 1.425.775.588.012 1.138-.3 1.438-.788.25-.362.262-.7.262-1.225v-2.487c0-.463 0-.763-.225-1.175a1.684 1.684 0 0 0 -1.475-.838zm36.645 1.125c-.013.375.087.8.312 1.175.113.238.288.438.475.625-.3.25-.55.563-.712.9a2.67 2.67 0 0 0 -.313 1.275c0 .813.338 1.625.963 2.15.55.475 1.35.701 2.112.701.738 0 1.525-.201 2.113-.701.65-.525.95-1.3.962-2.15a2.528 2.528 0 0 0 -.312-1.275c-.163-.337-.4-.65-.7-.9.175-.187.337-.387.462-.625.225-.375.313-.8.313-1.175 0-.775-.325-1.525-.95-1.987-.513-.4-1.2-.563-1.888-.563-.662 0-1.35.15-1.887.563-.638.475-.925 1.162-.95 1.987zm2.837-1.137c.35-.013.688.1.913.3s.337.5.325.837c0 .325-.1.638-.325.825-.225.2-.563.288-.913.288-.337 0-.675-.088-.912-.288-.238-.187-.338-.5-.338-.825 0-.337.1-.637.338-.837.237-.2.575-.288.912-.3zm0 3.687c.413 0 .825.113 1.088.375.275.263.4.65.4 1.05s-.125.788-.4 1.05c-.263.25-.675.375-1.088.375-.412 0-.812-.125-1.087-.375-.288-.262-.4-.65-.4-1.05s.112-.787.4-1.05c.275-.262.675-.375 1.087-.375zm4.503-2.125h1.537c0-.437.2-.875.513-1.162.275-.25.637-.388 1.062-.388.463 0 .838.15 1.125.488.263.287.388.687.388 1.075 0 .45-.2.912-.788 1.437l-3.85 3.438v1.312h6.188v-1.425h-3.863l2.313-2.037c1.025-.9 1.55-1.425 1.55-2.713 0-.737-.238-1.5-.75-2.037-.588-.638-1.425-.963-2.275-.963-.8 0-1.563.2-2.138.7-.725.625-1.012 1.388-1.012 2.275zm10.914 6.388c-.925 0-1.863-.338-2.475-1.05-.613-.75-.763-1.413-.763-2.388v-2.487c0-.963.138-1.625.763-2.4.575-.663 1.5-1.063 2.475-1.038.925-.025 1.85.325 2.475 1.038.625.725.762 1.412.762 2.4v2.487c0 .938-.137 1.663-.762 2.388-.613.7-1.5 1.05-2.475 1.05zm0-7.938c-.588-.012-1.163.325-1.463.825-.2.338-.237.713-.237 1.188v2.487c0 .438.012.863.275 1.238.312.475.85.787 1.425.775.587.012 1.137-.3 1.437-.788.25-.362.263-.7.263-1.225v-2.487c0-.463 0-.763-.225-1.175a1.686 1.686 0 0 0 -1.475-.838zm38.599 1.125c-.012.375.088.8.313 1.175.112.238.287.438.475.625-.3.25-.55.563-.713.9a2.67 2.67 0 0 0 -.312 1.275c0 .813.337 1.625.962 2.15.55.475 1.35.701 2.113.701.737 0 1.525-.201 2.112-.701.65-.525.95-1.3.963-2.15a2.54 2.54 0 0 0 -.313-1.275 2.7 2.7 0 0 0 -.7-.9c.175-.187.338-.387.463-.625.225-.375.312-.8.312-1.175 0-.775-.325-1.525-.95-1.987-.512-.4-1.2-.563-1.887-.563-.663 0-1.35.15-1.888.563-.637.475-.925 1.162-.95 1.987zm2.838-1.137c.35-.013.687.1.912.3s.338.5.325.837c0 .325-.1.638-.325.825-.225.2-.562.288-.912.288-.338 0-.675-.088-.913-.288-.237-.187-.337-.5-.337-.825 0-.337.1-.637.337-.837.238-.2.575-.288.913-.3zm0 3.687c.412 0 .825.113 1.087.375.275.263.4.65.4 1.05s-.125.788-.4 1.05c-.262.25-.675.375-1.087.375-.413 0-.813-.125-1.088-.375-.287-.262-.4-.65-.4-1.05s.113-.787.4-1.05c.275-.262.675-.375 1.088-.375zm10.365-4.137c-.638-.65-1.463-.963-2.375-.95-.938.012-1.85.287-2.5 1.037-.613.713-.788 1.45-.788 2.425v2.413c0 1.05.175 1.862.938 2.6a2.988 2.988 0 0 0 2.175.863 3.03 3.03 0 0 0 3.112-3.001c.013-.875-.275-1.6-.9-2.2a3.091 3.091 0 0 0 -1.987-.75c-.675 0-1.313.263-1.8.7v-.625c0-.425.037-.775.225-1.112.262-.563.875-.938 1.525-.938.487 0 .962.225 1.287.6zm-2.55 6.975a1.66 1.66 0 0 1 -1.125-.488 1.536 1.536 0 0 1 -.45-1.1c0-.425.162-.825.45-1.112.3-.3.712-.475 1.137-.475.413 0 .813.175 1.113.462.3.288.462.7.462 1.125s-.162.825-.45 1.1c-.287.3-.7.488-1.137.488zm7.894 1.425c-.925 0-1.862-.338-2.475-1.05-.612-.75-.762-1.413-.762-2.388v-2.487c0-.963.137-1.625.762-2.4.575-.663 1.5-1.063 2.475-1.038.925-.025 1.85.325 2.475 1.038.625.725.763 1.412.763 2.4v2.487c0 .938-.138 1.663-.763 2.388-.612.7-1.5 1.05-2.475 1.05zm0-7.938c-.587-.012-1.162.325-1.462.825-.2.338-.238.713-.238 1.188v2.487c0 .438.013.863.275 1.238.313.475.85.787 1.425.775.588.012 1.138-.3 1.438-.788.25-.362.262-.7.262-1.225v-2.487c0-.463 0-.763-.225-1.175a1.684 1.684 0 0 0 -1.475-.838zm37.416 6.988c.638.662 1.475.975 2.375.963.95-.013 1.85-.288 2.5-1.038.613-.713.788-1.45.788-2.425v-2.413c0-1.05-.175-1.862-.938-2.6a2.987 2.987 0 0 0 -2.175-.862 3.028 3.028 0 0 0 -2.175.837 3.098 3.098 0 0 0 -.937 2.163c-.013.875.275 1.6.9 2.187.55.488 1.275.75 1.987.75.675 0 1.313-.25 1.8-.687v.625c0 .425-.037.775-.225 1.112-.262.563-.875.938-1.525.938-.487 0-.962-.225-1.287-.6zm2.55-6.963c.425.013.838.175 1.125.475.288.288.45.701.45 1.113s-.162.825-.45 1.112c-.3.3-.7.475-1.137.475-.413 0-.813-.175-1.113-.462-.287-.3-.462-.7-.462-1.125s.162-.825.45-1.1c.287-.313.7-.5 1.137-.488zm8.095 7.913c-.925 0-1.863-.338-2.475-1.05-.613-.75-.763-1.413-.763-2.388v-2.487c0-.963.138-1.625.763-2.4.575-.663 1.5-1.063 2.475-1.038.925-.025 1.85.325 2.475 1.038.625.725.762 1.412.762 2.4v2.487c0 .938-.137 1.663-.762 2.388-.613.7-1.5 1.05-2.475 1.05zm0-7.938c-.588-.012-1.163.325-1.463.825-.2.338-.237.713-.237 1.188v2.487c0 .438.012.863.275 1.238.312.475.85.787 1.425.775.587.012 1.137-.3 1.437-.788.25-.362.263-.7.263-1.225v-2.487c0-.463 0-.763-.225-1.175a1.686 1.686 0 0 0 -1.475-.838zm8.226 7.938c-.925 0-1.862-.338-2.475-1.05-.612-.75-.762-1.413-.762-2.388v-2.487c0-.963.137-1.625.762-2.4.575-.663 1.5-1.063 2.475-1.038.925-.025 1.85.325 2.475 1.038.625.725.763 1.412.763 2.4v2.487c0 .938-.138 1.663-.763 2.388-.612.7-1.5 1.05-2.475 1.05zm0-7.938c-.587-.012-1.162.325-1.462.825-.2.338-.238.713-.238 1.188v2.487c0 .438.013.863.275 1.238.313.475.85.787 1.425.775.588.012 1.138-.3 1.438-.788.25-.362.262-.7.262-1.225v-2.487c0-.463 0-.763-.225-1.175a1.684 1.684 0 0 0 -1.475-.838z" fill="#fff" opacity=".5"/><path d="m135.4 320h-7.275v1.212h3.025v7.788h1.213v-7.788h3.037zm.998 0v9h1.213v-9zm12.103 0h-1.225l-3.275 6.975-3.3-6.975h-1.213v9h1.225v-6.35l2.988 6.35h.587l2.988-6.363v6.363h1.225zm7.665 1.212v-1.212h-5.662v9h5.662v-1.213h-4.45v-2.687h3.7v-1.2h-3.7v-2.688zm4.338-1.212v9h1.212v-9zm4.165 0h-1.075v9h1.237v-6.775l4.538 6.775h1.087v-9h-1.225v6.775zm17.104 2.3a4.25 4.25 0 0 0 -3.75-2.3h-2.863v9h2.863c1.55 0 3.025-.9 3.75-2.3.35-.7.512-1.463.512-2.2 0-.75-.162-1.513-.512-2.2zm-1.088 3.85c-.512 1.037-1.6 1.675-2.725 1.687l-1.575.013v-6.7h1.575a3.068 3.068 0 0 1 2.725 1.7c.25.5.35 1.062.363 1.65 0 .575-.113 1.15-.363 1.65zm8.317 2.85h1.25l-2.963-9h-1.725l-2.962 9h1.25l.537-1.638h4.063zm-4.238-2.775 1.65-4.975 1.663 4.975zm11.057-6.225-2.237 3.887-2.238-3.887h-1.412l3.037 5.275v3.725h1.225v-3.725l3.038-5.275zm8.426 2.275c-.325-.875-.875-1.588-1.625-2-.563-.325-1.238-.45-1.863-.463-.6 0-1.212.063-1.812.363-.763.375-1.35 1.175-1.35 2.062 0 .575.212 1.213.7 1.638.45.412 1.05.637 1.675.825l1.662.487c.425.125.775.288 1.038.538.237.225.362.525.362.85 0 .362-.137.762-.5 1.037-.387.288-1.05.425-1.612.425-.738 0-1.525-.25-1.963-.862-.25-.325-.412-.763-.5-1.238l-1.225.338c.138.562.35 1.162.75 1.675.7.887 1.725 1.238 2.9 1.238.875 0 1.713-.138 2.363-.588s1.075-1.225 1.075-1.988c0-.675-.288-1.3-.775-1.762-.413-.4-.925-.65-1.625-.85l-1.6-.475c-.488-.138-.938-.325-1.175-.563a1.025 1.025 0 0 1 -.275-.7c0-.4.237-.8.637-1.025.325-.187.775-.275 1.238-.275.462 0 .925.15 1.275.363.487.3.775.725 1 1.275z" fill="#2d285c"/><g stroke="#2d285c"><path d="m65.5 41v247" opacity=".6"/><path d="m93.5 41v247" opacity=".6"/><path d="m121.5 41v247" opacity=".6"/><path d="m149.5 41v247" opacity=".6"/><path d="m177.5 41v247" opacity=".6"/><path d="m205.5 41v247" opacity=".6"/><path d="m233.5 41v247" opacity=".6"/><path d="m261.5 41v247" opacity=".6"/><path d="m289.5 41v247" opacity=".6"/><path d="m39 60.5h270" opacity=".6"/><path d="m39 90.5h270" opacity=".6"/><path d="m39 120.5h270" opacity=".6"/><path d="m39 150.5h270" opacity=".6"/><path d="m39 180.5h270" opacity=".6"/><path d="m39 210.5h270" opacity=".6"/><path d="m39 240.5h270" opacity=".6"/><path d="m39 270.5h270" opacity=".6"/></g><circle cx="278.5" cy="73.5" fill="#f1c40f" opacity=".6" r="7.5"/><g filter="url(#a)"><circle cx="192" cy="276" fill="#ab49c9" r="10"/><circle cx="192" cy="276" r="11" stroke="#fff" stroke-width="2"/></g><path d="m201.084 260.402a1 1 0 0 0 1.318.514l8.241-3.618a1 1 0 0 0 -.804-1.832l-7.325 3.216-3.216-7.325a1 1 0 0 0 -1.832.804zm68.984-177.765-.718 1.844 1.863.726.719-1.844zm-2.156 5.531-1.437 3.688 1.863.726 1.437-3.688zm-2.875 7.375-1.437 3.688 1.863.726 1.437-3.688zm-2.875 7.375-1.437 3.688 1.863.726 1.437-3.688zm-2.875 7.375-1.437 3.688 1.863.726 1.437-3.688zm-2.875 7.375-1.437 3.688 1.863.726 1.437-3.688zm-2.875 7.375-1.437 3.688 1.863.726 1.437-3.688zm-2.875 7.375-1.437 3.688 1.863.726 1.437-3.688zm-2.875 7.375-1.437 3.688 1.863.726 1.437-3.688zm-2.875 7.375-1.437 3.688 1.863.726 1.437-3.688zm-2.875 7.375-1.437 3.688 1.863.726 1.437-3.688zm-2.875 7.375-1.437 3.688 1.863.726 1.437-3.688zm-2.875 7.375-1.437 3.688 1.863.726 1.437-3.688zm-2.875 7.375-1.437 3.688 1.863.726 1.437-3.688zm-2.875 7.375-1.437 3.688 1.863.726 1.437-3.688zm-2.875 7.375-1.437 3.688 1.863.726 1.437-3.688zm-2.875 7.375-1.437 3.688 1.863.726 1.437-3.688zm-2.875 7.375-1.437 3.688 1.863.726 1.437-3.688zm-2.875 7.375-1.437 3.688 1.863.726 1.437-3.688zm-2.875 7.375-1.437 3.688 1.863.726 1.437-3.688zm-2.875 7.375-1.437 3.688 1.863.726 1.437-3.688zm-2.875 7.375-1.437 3.688 1.863.726 1.437-3.688zm-2.875 7.375-1.437 3.688 1.863.726 1.437-3.688zm-2.875 7.375-1.437 3.688 1.863.726 1.437-3.688zm-2.875 7.375-.719 1.844 1.864.726.718-1.844z" fill="#f1f5f7"/></svg>